<svg xmlns="http://www.w3.org/2000/svg" xmlns:xlink="http://www.w3.org/1999/xlink" viewBox="0 0 48 48"><defs><clipPath id="a"><circle cx="24" cy="24" r="24" fill="none"/></clipPath></defs><g clip-path="url(#a)"><path d="M0,0H48V48H0Z" fill="#229e45" fill-rule="evenodd"/><path d="M24.1,38.7,46.72,24,24,9.3,1.28,24.05Z" fill="#f8e509" fill-rule="evenodd"/><path d="M34,24a9.56,9.56,0,1,1-9.54-9.56A9.56,9.56,0,0,1,34,24Z" fill="#2b49a3" fill-rule="evenodd"/><path d="M21.25,29.72l-.3-.17-.3.15.06-.34-.24-.25.34,0,.17-.3.14.32.33.06-.25.22m6.45,2-.29-.17-.3.15.06-.34-.23-.24.33,0,.16-.31.15.32.33.06-.25.23m-2.72-2.25-.25-.15-.27.13.06-.29-.21-.22.3,0,.14-.27.12.28.29.05-.22.21m6.52-.64-.25-.15-.27.13.06-.29-.2-.21.29,0,.14-.26.12.27.28,0-.21.2m-6.55-1.65-.3-.17-.3.15.06-.34L24,25.27l.33,0,.16-.31.15.32.33.06-.25.24m-7.85-2.63-.3-.16-.3.15.08-.35-.25-.24.34,0L16.6,22l.15.32.33.06-.24.23m1,4.29-.3-.17-.3.15.07-.34-.24-.25.34,0,.16-.3.15.31.33.06-.25.23m9.9-5-.27-.15-.27.13.06-.3L27,20.93l.3,0,.14-.27.13.28.3.06-.23.2M27.14,24l-.2-.12-.22.11.05-.24-.17-.18.24,0,.11-.21.1.23.23,0-.17.16M16.45,27.57l-.21-.11-.2.1.05-.23-.16-.16.22,0,.11-.21.1.21.22.05-.17.15m15,1.14-.17-.08-.17.08,0-.18L31,28.18l.18,0,.09-.15.08.15.19,0-.15.11" fill="#ffffef" fill-rule="evenodd"/><path d="M16.45,27.57l-.2-.11-.21.09.05-.22-.16-.17.23,0,.1-.2.1.21.22.05-.17.15" fill="#ffffef" fill-rule="evenodd"/><path d="M16.45,27.57l-.2-.11-.21.09.05-.22-.16-.17.23,0,.1-.2.1.21.22.05-.17.15m3.17.22-.19-.1-.2.09,0-.22-.16-.17.23,0,.1-.2.1.21.22,0-.17.16m-.36,1.27L19,28.5l-.21.1.05-.22-.16-.17.23,0L19,28l.1.21.22.05-.17.15m6.56-1.67-.2-.12-.21.11.05-.23-.15-.17.22,0,.11-.2.09.21.22,0-.16.16m-1.89.23-.2-.12-.2.11,0-.23-.15-.17.23,0,.1-.21.09.22.23,0-.17.16m-5.16-.43L18.49,26l-.13.06,0-.14-.1-.11h.14l.06-.13.06.14.15,0-.11.1m12.59,3.4-.2-.11-.2.1,0-.22-.15-.17.22,0,.11-.21.09.21.23.05-.17.15m-1.56.45-.17-.11-.17.09,0-.19-.13-.14.19,0,.09-.17.07.18.19,0-.14.13m.78.18-.15-.09-.16.07,0-.17-.12-.13.17,0,.08-.15.08.15.17,0-.13.12m2.19-1.71-.15-.08-.15.08,0-.18-.12-.12.18,0,.07-.15.08.16.15,0-.12.12m-2.91,3.14-.18-.11-.21.09,0-.21-.15-.15.22,0,.1-.19.09.2.23,0-.18.15m0,1.06-.18-.1-.18.09,0-.21-.14-.15.2,0,.09-.18.09.19.2,0-.15.15M28.12,29.5,28,29.41l-.15.07,0-.16-.11-.13.16,0L28,29l.07.15.17,0-.12.12m-1.34.18-.15-.09-.14.07,0-.16-.12-.13.17,0,.08-.15.07.15.16,0-.12.12m-2.28-1.84-.15-.08-.15.07,0-.17-.12-.12.16,0,.08-.15.07.15.17,0-.12.12m.28,4.27-.12-.07-.14.07,0-.15-.09-.1.14,0,.07-.13.06.14.14,0-.11.1m-3.46-6.5-.3-.17-.3.15.06-.34-.24-.24.34-.05L21,24l.14.32.33.06-.25.23" fill="#ffffef" fill-rule="evenodd"/><path d="M33.33,27.43A8.37,8.37,0,0,0,33.76,26a23.46,23.46,0,0,0-17.9-6.28,9.75,9.75,0,0,0-.64,1.57,22.92,22.92,0,0,1,18.11,6.19Z" fill="#fff" fill-rule="evenodd"/><path d="M31.05,24.93l.17.1a.3.3,0,0,0,0,.16.27.27,0,0,0,.1.13.21.21,0,0,0,.15.05.11.11,0,0,0,.1-.05.08.08,0,0,0,0-.07.16.16,0,0,0,0-.07,1.48,1.48,0,0,0-.11-.14.64.64,0,0,1-.14-.22.28.28,0,0,1,.15-.33.26.26,0,0,1,.17,0,.61.61,0,0,1,.2.09.55.55,0,0,1,.2.24.31.31,0,0,1-.05.25l-.18-.11a.21.21,0,0,0,0-.13.17.17,0,0,0-.09-.1.25.25,0,0,0-.14-.06.1.1,0,0,0-.07,0,.11.11,0,0,0,0,.08s0,.09.12.16a1.49,1.49,0,0,1,.15.19.29.29,0,0,1,0,.31.33.33,0,0,1-.14.12.37.37,0,0,1-.18,0,.79.79,0,0,1-.21-.1.42.42,0,0,1-.2-.25.39.39,0,0,1,0-.3Zm-.87-.57.19.1a.23.23,0,0,0,0,.16.22.22,0,0,0,.11.12.24.24,0,0,0,.15.05.11.11,0,0,0,.09-.06.07.07,0,0,0,0-.06.12.12,0,0,0,0-.08l-.12-.13a.69.69,0,0,1-.15-.21.33.33,0,0,1,0-.24.29.29,0,0,1,.12-.1.32.32,0,0,1,.17,0,.44.44,0,0,1,.19.07.46.46,0,0,1,.2.23.33.33,0,0,1,0,.26l-.19-.11c0-.05,0-.09,0-.12a.19.19,0,0,0-.09-.11.28.28,0,0,0-.15,0,.07.07,0,0,0-.06,0,.11.11,0,0,0,0,.08s.05.09.12.16a.85.85,0,0,1,.15.18.31.31,0,0,1,0,.32.37.37,0,0,1-.13.12.28.28,0,0,1-.18,0,.58.58,0,0,1-.22-.08.45.45,0,0,1-.21-.24.39.39,0,0,1,0-.3Zm-1.07-.29.55-.9.66.42-.09.15-.48-.3-.12.2.45.28-.1.15-.45-.28-.15.25.51.3-.09.15-.68-.42ZM27.56,22.8l.08-.15.41.2-.19.38a.75.75,0,0,1-.22,0,.72.72,0,0,1-.25-.07.63.63,0,0,1-.23-.2.48.48,0,0,1-.07-.26.68.68,0,0,1,.07-.28.61.61,0,0,1,.2-.22.44.44,0,0,1,.27-.09.52.52,0,0,1,.24.08.4.4,0,0,1,.23.21.34.34,0,0,1,0,.26l-.2-.06a.26.26,0,0,0,0-.15.31.31,0,0,0-.12-.1.33.33,0,0,0-.24,0,.49.49,0,0,0-.24.48.25.25,0,0,0,.15.18.17.17,0,0,0,.12,0h.14l.06-.12-.22-.11ZM20.8,21.13,21,20.08l.31.05.09.73.29-.67.31,0-.15,1-.2,0,.13-.82-.33.79-.2,0-.09-.85-.12.83-.19,0ZM19.74,21l.1-1.05.77.07,0,.18L20,20.15l0,.23.52.05,0,.18L20,20.56l0,.28.59.05,0,.18L19.74,21Z" fill="#309e3a"/><path d="M16.24,20.35a.68.68,0,0,1,.05-.27.5.5,0,0,1,.1-.14.42.42,0,0,1,.14-.09.57.57,0,0,1,.22,0,.48.48,0,0,1,.5.56.54.54,0,0,1-.15.4.51.51,0,0,1-.37.13.56.56,0,0,1-.37-.15A.59.59,0,0,1,16.24,20.35Z" fill="#309e3a"/><path d="M16.45,20.35a.46.46,0,0,0,.08.27.27.27,0,0,0,.21.1.27.27,0,0,0,.21-.09.48.48,0,0,0,.08-.27.36.36,0,0,0-.07-.27.25.25,0,0,0-.2-.1.24.24,0,0,0-.21.09.37.37,0,0,0-.09.27Z" fill="#f7ffff"/><path d="M17.48,20.89V19.84h.45a.49.49,0,0,1,.24,0,.22.22,0,0,1,.12.09.35.35,0,0,1,.05.18.27.27,0,0,1-.08.19.4.4,0,0,1-.2.09l.11.09a.71.71,0,0,1,.11.17l.13.21h-.25L18,20.66l-.11-.15-.07,0-.1,0h0v.44Z" fill="#309e3a"/><path d="M17.7,20.29h.15a.48.48,0,0,0,.2,0s0,0,.06,0a.24.24,0,0,0,0-.08.11.11,0,0,0,0-.09L18,20H17.7v.26Z" fill="#fff"/><path d="M18.68,19.89l.38,0a.49.49,0,0,1,.2,0,.31.31,0,0,1,.15.1.51.51,0,0,1,.09.18.65.65,0,0,1,0,.25.57.57,0,0,1,0,.22.41.41,0,0,1-.12.18.55.55,0,0,1-.15.08H19l-.4,0,.05-1.05Z" fill="#309e3a"/><path d="M18.88,20.08l0,.69h.28a.17.17,0,0,0,.1,0,.23.23,0,0,0,.05-.1.53.53,0,0,0,0-.2v-.18a.24.24,0,0,0-.06-.11l-.09,0-.17,0Z" fill="#fff"/><path d="M23.82,21.76l.25-1,.33.08.24.07a.31.31,0,0,1,.12.15.29.29,0,0,1,0,.21.26.26,0,0,1-.07.15.33.33,0,0,1-.23.1.79.79,0,0,1-.22,0l-.13,0-.09.39-.21-.06Z" fill="#309e3a"/><path d="M24.23,21l-.06.29.11,0,.16,0a.15.15,0,0,0,.12-.11.31.31,0,0,0,0-.1.18.18,0,0,0-.08-.07l-.14,0-.1,0Z" fill="#fff"/><path d="M24.8,22.06l.35-1,.41.15.23.1a.31.31,0,0,1,.07.14.3.3,0,0,1-.13.34.55.55,0,0,1-.23,0,.5.5,0,0,1,.08.12l.06.2,0,.23-.23-.08L25.37,22a1.21,1.21,0,0,0-.05-.18l-.05-.06a.13.13,0,0,0-.09-.05l0,0-.15.42-.19-.07Z" fill="#309e3a"/><path d="M25.2,21.55l.14.06.19.05a.1.1,0,0,0,.07,0,.16.16,0,0,0,0-.07.08.08,0,0,0,0-.09.13.13,0,0,0-.06-.07l-.15-.05-.15-.05-.09.25Z" fill="#fff"/><path d="M26,22a.7.7,0,0,1,.13-.24.49.49,0,0,1,.14-.11.25.25,0,0,1,.15-.05.63.63,0,0,1,.23,0,.49.49,0,0,1,.32.24.57.57,0,0,1,0,.43.61.61,0,0,1-.25.34.48.48,0,0,1-.39,0,.54.54,0,0,1-.32-.25A.55.55,0,0,1,26,22Z" fill="#309e3a"/><path d="M26.23,22.08a.44.44,0,0,0,0,.28.27.27,0,0,0,.18.15.25.25,0,0,0,.22,0,.39.39,0,0,0,.16-.24.34.34,0,0,0,0-.28.26.26,0,0,0-.17-.15.25.25,0,0,0-.22,0,.41.41,0,0,0-.17.24Z" fill="#fff"/><path d="M28.07,23.48l.48-.93.4.21a.66.66,0,0,1,.2.14.18.18,0,0,1,.06.14.29.29,0,0,1,0,.16.25.25,0,0,1-.15.15.37.37,0,0,1-.23,0,1.39,1.39,0,0,1,.06.13,1.69,1.69,0,0,1,0,.21v.24l-.22-.12,0-.27a1.11,1.11,0,0,0,0-.19.3.3,0,0,0,0-.08l-.09-.05,0,0-.2.39-.19-.1Z" fill="#309e3a"/><path d="M28.54,23l.14.07.17.08h.08s0,0,.05-.07A.13.13,0,0,0,29,23a.19.19,0,0,0-.06-.07l-.13-.07-.15-.08Z" fill="#fff"/><path d="M32,25.4a.69.69,0,0,1,.19-.19.46.46,0,0,1,.16-.07.48.48,0,0,1,.17,0,1,1,0,0,1,.21.09.52.52,0,0,1,.22.33.59.59,0,0,1-.1.41.53.53,0,0,1-.34.25.49.49,0,0,1-.39-.08.55.55,0,0,1-.23-.33A.58.58,0,0,1,32,25.4Z" fill="#309e3a"/><path d="M32.15,25.52a.35.35,0,0,0-.09.27.28.28,0,0,0,.12.19.24.24,0,0,0,.23,0,.36.36,0,0,0,.21-.17.43.43,0,0,0,.09-.27.32.32,0,0,0-.12-.2.27.27,0,0,0-.23,0,.44.44,0,0,0-.22.18Z" fill="#fff"/><path d="M22.63,21.34l.18-.74.54.13,0,.12-.39-.09,0,.17.37.08,0,.13-.37-.09,0,.2.41.1,0,.12-.56-.13Z" fill="#309e3a"/></g></svg>