<svg xmlns="http://www.w3.org/2000/svg" xmlns:xlink="http://www.w3.org/1999/xlink" viewBox="0 0 49.77 49.77"><defs><style>.cls-1{fill:#fff;fill-rule:evenodd;}.cls-2{fill:#f7f7f7;}.cls-3{fill:url(#linear-gradient);}.cls-4{fill:url(#linear-gradient-2);}.cls-5{fill:#d41800;}.cls-6{fill:#f5f4f5;}.cls-7{fill:url(#linear-gradient-3);}.cls-8{fill:url(#linear-gradient-4);}.cls-9{fill:url(#linear-gradient-5);}.cls-10{fill:url(#linear-gradient-6);}.cls-11{fill:url(#linear-gradient-7);}.cls-12{fill:url(#linear-gradient-8);}.cls-13{fill:url(#linear-gradient-9);}.cls-14{fill:url(#linear-gradient-10);}.cls-15{fill:url(#linear-gradient-11);}.cls-16{fill:url(#linear-gradient-12);}.cls-17{fill:url(#linear-gradient-13);}.cls-18{fill:url(#linear-gradient-14);}.cls-19{fill:url(#linear-gradient-15);}.cls-20{fill:url(#linear-gradient-16);}.cls-21{fill:url(#linear-gradient-17);}.cls-22{fill:url(#linear-gradient-18);}.cls-23{fill:url(#linear-gradient-19);}.cls-24{fill:url(#linear-gradient-20);}.cls-25{fill:url(#linear-gradient-21);}.cls-26{fill:url(#linear-gradient-22);}.cls-27{fill:url(#linear-gradient-23);}.cls-28{fill:url(#linear-gradient-24);}.cls-29{fill:url(#linear-gradient-25);}.cls-30{fill:url(#linear-gradient-26);}.cls-31{fill:url(#linear-gradient-27);}.cls-32{fill:url(#linear-gradient-28);}.cls-33{fill:url(#linear-gradient-29);}.cls-34{fill:url(#linear-gradient-30);}.cls-35{fill:url(#linear-gradient-31);}.cls-36{fill:url(#linear-gradient-32);}.cls-37{fill:url(#linear-gradient-33);}.cls-38{fill:url(#linear-gradient-34);}.cls-39{fill:url(#linear-gradient-35);}.cls-40{fill:url(#linear-gradient-36);}.cls-41{fill:url(#linear-gradient-37);}.cls-42{fill:url(#linear-gradient-38);}.cls-43{fill:url(#linear-gradient-39);}.cls-44{fill:url(#linear-gradient-40);}.cls-45{fill:url(#linear-gradient-41);}.cls-46{fill:url(#linear-gradient-42);}.cls-47{fill:url(#linear-gradient-43);}.cls-48{fill:url(#linear-gradient-44);}</style><linearGradient id="linear-gradient" x1="-15.07" y1="23.87" x2="75.93" y2="28.64" gradientUnits="userSpaceOnUse"><stop offset="0" stop-color="#0b4eab"/><stop offset="1" stop-color="#0b4eab"/></linearGradient><linearGradient id="linear-gradient-2" x1="-14.98" y1="22.21" x2="76.02" y2="26.98" xlink:href="#linear-gradient"/><linearGradient id="linear-gradient-3" x1="17.31" y1="10.82" x2="17.07" y2="38.58" xlink:href="#linear-gradient"/><linearGradient id="linear-gradient-4" x1="22.76" y1="10.43" x2="22.52" y2="38.85" xlink:href="#linear-gradient"/><linearGradient id="linear-gradient-5" x1="20.53" y1="10.94" x2="20.3" y2="38.56" xlink:href="#linear-gradient"/><linearGradient id="linear-gradient-6" x1="21.43" y1="10.79" x2="21.19" y2="38.65" xlink:href="#linear-gradient"/><linearGradient id="linear-gradient-7" x1="21.08" y1="10.85" x2="20.85" y2="38.61" xlink:href="#linear-gradient"/><linearGradient id="linear-gradient-8" x1="20.32" y1="10.79" x2="20.08" y2="38.63" xlink:href="#linear-gradient"/><linearGradient id="linear-gradient-9" x1="23.12" y1="10.72" x2="22.88" y2="38.7" xlink:href="#linear-gradient"/><linearGradient id="linear-gradient-10" x1="20.04" y1="10.85" x2="19.8" y2="38.6" xlink:href="#linear-gradient"/><linearGradient id="linear-gradient-11" x1="20.18" y1="10.5" x2="19.94" y2="38.75" xlink:href="#linear-gradient"/><linearGradient id="linear-gradient-12" x1="20.4" y1="10.99" x2="20.16" y2="38.54" xlink:href="#linear-gradient"/><linearGradient id="linear-gradient-13" x1="16.32" y1="10.83" x2="16.08" y2="38.56" xlink:href="#linear-gradient"/><linearGradient id="linear-gradient-14" x1="18.25" y1="10.81" x2="18.02" y2="38.6" xlink:href="#linear-gradient"/><linearGradient id="linear-gradient-15" x1="19.81" y1="10.88" x2="19.58" y2="38.58" xlink:href="#linear-gradient"/><linearGradient id="linear-gradient-16" x1="24.8" y1="11.77" x2="24.58" y2="38.31" xlink:href="#linear-gradient"/><linearGradient id="linear-gradient-17" x1="23.46" y1="10.73" x2="23.23" y2="38.7" xlink:href="#linear-gradient"/><linearGradient id="linear-gradient-18" x1="20.77" y1="10.95" x2="20.53" y2="38.56" xlink:href="#linear-gradient"/><linearGradient id="linear-gradient-19" x1="24.09" y1="10.79" x2="23.85" y2="38.68" xlink:href="#linear-gradient"/><linearGradient id="linear-gradient-20" x1="23.78" y1="10.87" x2="23.55" y2="38.64" xlink:href="#linear-gradient"/><linearGradient id="linear-gradient-21" x1="24.37" y1="10.91" x2="24.14" y2="38.63" xlink:href="#linear-gradient"/><linearGradient id="linear-gradient-22" x1="11.47" y1="10.66" x2="11.23" y2="38.59" xlink:href="#linear-gradient"/><linearGradient id="linear-gradient-23" x1="13.83" y1="10.91" x2="13.59" y2="38.5" xlink:href="#linear-gradient"/><linearGradient id="linear-gradient-24" x1="13.51" y1="10.78" x2="13.28" y2="38.55" xlink:href="#linear-gradient"/><linearGradient id="linear-gradient-25" x1="13.16" y1="10.59" x2="12.93" y2="38.64" xlink:href="#linear-gradient"/><linearGradient id="linear-gradient-26" x1="14.21" y1="10.88" x2="13.97" y2="38.52" xlink:href="#linear-gradient"/><linearGradient id="linear-gradient-27" x1="14.06" y1="10.54" x2="13.83" y2="38.66" xlink:href="#linear-gradient"/><linearGradient id="linear-gradient-28" x1="10.81" y1="10.77" x2="10.58" y2="38.52" xlink:href="#linear-gradient"/><linearGradient id="linear-gradient-29" x1="11.83" y1="10.48" x2="11.59" y2="38.68" xlink:href="#linear-gradient"/><linearGradient id="linear-gradient-30" x1="10.51" y1="10.61" x2="10.27" y2="38.59" xlink:href="#linear-gradient"/><linearGradient id="linear-gradient-31" x1="19.53" y1="10.85" x2="19.3" y2="38.59" xlink:href="#linear-gradient"/><linearGradient id="linear-gradient-32" x1="11.13" y1="10.73" x2="10.89" y2="38.55" xlink:href="#linear-gradient"/><linearGradient id="linear-gradient-33" x1="15.41" y1="10.8" x2="15.18" y2="38.56" xlink:href="#linear-gradient"/><linearGradient id="linear-gradient-34" x1="19.17" y1="10.83" x2="18.93" y2="38.6" xlink:href="#linear-gradient"/><linearGradient id="linear-gradient-35" x1="18.72" y1="10.81" x2="18.49" y2="38.6" xlink:href="#linear-gradient"/><linearGradient id="linear-gradient-36" x1="15.85" y1="10.83" x2="15.61" y2="38.55" xlink:href="#linear-gradient"/><linearGradient id="linear-gradient-37" x1="14.43" y1="10.71" x2="14.19" y2="38.59" xlink:href="#linear-gradient"/><linearGradient id="linear-gradient-38" x1="14.56" y1="10.86" x2="14.33" y2="38.53" xlink:href="#linear-gradient"/><linearGradient id="linear-gradient-39" x1="14.79" y1="10.81" x2="14.55" y2="38.55" xlink:href="#linear-gradient"/><linearGradient id="linear-gradient-40" x1="15.05" y1="10.78" x2="14.82" y2="38.57" xlink:href="#linear-gradient"/><linearGradient id="linear-gradient-41" x1="16.63" y1="10.71" x2="16.39" y2="38.64" xlink:href="#linear-gradient"/><linearGradient id="linear-gradient-42" x1="17.93" y1="10.76" x2="17.7" y2="38.62" xlink:href="#linear-gradient"/><linearGradient id="linear-gradient-43" x1="17.48" y1="11.01" x2="17.25" y2="38.46" xlink:href="#linear-gradient"/><linearGradient id="linear-gradient-44" x1="17.08" y1="11.04" x2="16.85" y2="38.43" xlink:href="#linear-gradient"/></defs><g id="Layer_2" data-name="Layer 2"><g id="Slovakia_flag" data-name="Slovakia flag"><g id="Slovakia_flag-2" data-name="Slovakia flag"><g id="White_ellipse" data-name="White ellipse"><path class="cls-1" d="M3.33,37.34a24.9,24.9,0,1,0,9.1-34A24.94,24.94,0,0,0,3.33,37.34Z"/></g><path class="cls-2" d="M18.78,28.44l.07.06Z"/><path class="cls-2" d="M19.19,28.87l.06.07Z"/><path class="cls-2" d="M19.51,29.3l0,.09Z"/><path class="cls-2" d="M18.33,28.08l0,0Z"/><path class="cls-2" d="M15,28.94l.05-.07Z"/><path class="cls-2" d="M15.91,28.11l0,0Z"/><path class="cls-2" d="M20.41,30l.16-.18Z"/><path class="cls-2" d="M14.73,29.37l0-.05Z"/><path class="cls-2" d="M20.64,29.78a1.41,1.41,0,0,1,.23-.18A1,1,0,0,0,20.64,29.78Z"/><path class="cls-2" d="M20.26,30.22l.08-.11Z"/><path class="cls-2" d="M20.16,30.39l.05-.1Z"/><path class="cls-2" d="M19.94,30.06l.07.14Z"/><path class="cls-2" d="M19.75,29.69l.06.12Z"/><path class="cls-2" d="M14.47,29.8l.06-.1Z"/><path class="cls-2" d="M10.7,29.67c.07-.05.13-.11.2-.15S10.77,29.62,10.7,29.67Z"/><path class="cls-2" d="M11,29.44l.19-.11Z"/><path class="cls-2" d="M12,29.15h0l-.2,0a1.9,1.9,0,0,1,.25,0Z"/><path class="cls-2" d="M21,29.52l.22-.12Z"/><path class="cls-2" d="M10.37,30l.23-.22Z"/><path class="cls-2" d="M9.63,31a5.5,5.5,0,0,1,.69-1A5.5,5.5,0,0,0,9.63,31Z"/><path class="cls-2" d="M11.38,29.27l.21-.07Z"/><path class="cls-2" d="M13.67,29.81a2.13,2.13,0,0,1,.21.22Z"/><path class="cls-2" d="M13.92,30.08l.12.16Z"/><path class="cls-2" d="M14.27,30.19l.07-.13Z"/><path class="cls-2" d="M13.41,29.59a2.76,2.76,0,0,1,.25.21A2.76,2.76,0,0,0,13.41,29.59Z"/><path class="cls-2" d="M12.84,29.3l-.05,0-.06,0-.06,0h-.06l-.06,0H12a2.56,2.56,0,0,1,.93.18Z"/><path class="cls-2" d="M13.08,29.4l.22.12Z"/><path class="cls-2" d="M15.43,28.5l.06-.06Z"/><path class="cls-2" d="M23.38,29.52l.19.15Z"/><path class="cls-2" d="M37.59,3.49a25,25,0,0,0-25.16-.16l-.25.15a24.79,24.79,0,0,0-10.67,13H7.08C7,18.37,6.9,21,6.9,24.26a13.48,13.48,0,0,0,3.36,9.09,20.59,20.59,0,0,0,6.5,4.8l.38.18.38-.18a20.59,20.59,0,0,0,6.5-4.8,13.48,13.48,0,0,0,3.36-9.09c0-3.26-.09-5.89-.18-7.83H48.29a25.67,25.67,0,0,0-1.84-4A24.82,24.82,0,0,0,37.59,3.49ZM24.8,30.77l-.16.26h0l-.06.1h0l.05-.07a17.92,17.92,0,0,1-7.49,6.3A17.89,17.89,0,0,1,9.63,31c-1.42-1.58-1.86-4.72-1.86-6.77,0-7.44.35-10.82.35-10.82h18s.34,3.38.34,10.82A13,13,0,0,1,24.8,30.77Z"/><path class="cls-2" d="M23.68,29.76c.07.06.14.14.21.21S23.75,29.82,23.68,29.76Z"/><path class="cls-2" d="M24.64,31h0a4.54,4.54,0,0,0-.43-.68A4.54,4.54,0,0,1,24.64,31Z"/><path class="cls-2" d="M16.7,27.76h0l-.06,0,.1,0h0Z"/><path class="cls-2" d="M17.55,27.75h0l.09,0-.05,0Z"/><path class="cls-2" d="M20.14,30.41l0,.05L20,30.24c.06.13.09.22.09.22Z"/><path class="cls-2" d="M23.05,29.33l.18.1Z"/><path class="cls-2" d="M24,30l.25.3Z"/><path class="cls-2" d="M22.69,29.2l.19.07Z"/><path class="cls-2" d="M22.32,29.15h0a2,2,0,0,1,.24,0Z"/><path class="cls-2" d="M14.25,30.24l-.09.21-.11-.18c.07.11.11.19.11.19S14.19,30.37,14.25,30.24Z"/><path class="cls-2" d="M22.21,29.15h-.48l-.06,0h-.06l-.06,0-.06,0,0,0-.09,0a2.37,2.37,0,0,1,.93-.19Z"/><path class="cls-2" d="M6.9,24.26c0-3.26.08-5.89.18-7.83H1.51A25,25,0,0,0,0,25a24.61,24.61,0,0,0,1.48,8.34h8.77A13.48,13.48,0,0,1,6.9,24.26Z"/><path class="cls-3" d="M6.9,24.26c0-3.26.08-5.89.18-7.83H1.51A25,25,0,0,0,0,25a24.61,24.61,0,0,0,1.48,8.34h8.77A13.48,13.48,0,0,1,6.9,24.26Z"/><path class="cls-2" d="M27.38,24.26A13.48,13.48,0,0,1,24,33.35H48.26a24.68,24.68,0,0,0,0-16.92H27.2C27.29,18.37,27.38,21,27.38,24.26Z"/><path class="cls-4" d="M27.38,24.26A13.48,13.48,0,0,1,24,33.35H48.26a24.68,24.68,0,0,0,0-16.92H27.2C27.29,18.37,27.38,21,27.38,24.26Z"/><path class="cls-5" d="M17.52,38.15l-.38.18-.38-.18a20.59,20.59,0,0,1-6.5-4.8H1.49a24.29,24.29,0,0,0,1.84,4,24.94,24.94,0,0,0,34,9.11l.25-.16A24.72,24.72,0,0,0,48.26,33.35H24A20.59,20.59,0,0,1,17.52,38.15Z"/><path class="cls-5" d="M17.55,27.75h0Z"/><path class="cls-5" d="M24.58,31.12h0l.06-.1v0Z"/><path class="cls-5" d="M17.14,13.44h-9s-.35,3.38-.35,10.82c0,2,.44,5.19,1.86,6.77a5.5,5.5,0,0,1,.69-1l0-.06.23-.22.1-.09c.07-.05.13-.11.2-.15l.14-.08.19-.11.15-.06.21-.07.16,0,.2,0h.6l.06,0h.06l.06,0,.06,0,.05,0,.09,0,.15.07.22.12.11.07a2.76,2.76,0,0,1,.25.21h0l.21.22,0,0,.12.16v0a1.27,1.27,0,0,1,.11.19l.09-.22,0,0,.07-.13c0-.08.08-.16.13-.26l.06-.1c.06-.1.12-.22.2-.33l0-.05a3.37,3.37,0,0,1,.28-.38l.05-.07a3.92,3.92,0,0,1,.34-.37l.06-.06a3.39,3.39,0,0,1,.42-.33l0,0a2.75,2.75,0,0,1,.38-.2h0V24.05a15.56,15.56,0,0,0-4.9.56,19.5,19.5,0,0,0,0-2.86,14.92,14.92,0,0,0,4.9.56V19.73a11.33,11.33,0,0,0-3.88.57,19.64,19.64,0,0,0,0-2.87,11.57,11.57,0,0,0,3.87.57,23.62,23.62,0,0,0-.51-3.69,17.13,17.13,0,0,0,2.68,0A23.62,23.62,0,0,0,18,18a11.48,11.48,0,0,0,3.86-.57,22.9,22.9,0,0,0,0,2.87A11.25,11.25,0,0,0,18,19.73v2.58a14.92,14.92,0,0,0,4.9-.56,19.5,19.5,0,0,0,0,2.86,15.56,15.56,0,0,0-4.9-.56v3.84s0,0,0,0a2.38,2.38,0,0,1,.39.2l0,0a2.58,2.58,0,0,1,.41.33l.07.06c.12.12.23.24.34.37l.06.07.26.36,0,.09c.07.1.13.21.19.3l.06.12.13.25.07.14,0,0,.09.21s0,0,0,0l0,0,.05-.1.05-.07.08-.11.07-.09.16-.18.07-.06a1,1,0,0,1,.23-.18l.11-.08.22-.12.15-.06.09,0,0,0,.06,0,.06,0h.06l.06,0h.59l.2,0,.17,0,.19.07.17.06.18.1.15.09.19.15.11.09c.07.06.14.14.21.21L24,30l.25.3h0a4.54,4.54,0,0,1,.43.68l.16-.26a13,13,0,0,0,1.7-6.51c0-7.44-.34-10.82-.34-10.82Z"/><polygon class="cls-5" points="24.64 31.03 24.64 31.03 24.64 31.03 24.64 31.03"/><path class="cls-5" d="M16.73,27.75h0Z"/><path class="cls-6" d="M16.64,27.78l.06,0h0a2,2,0,0,1,.8,0h0l.05,0a1.6,1.6,0,0,1,.31.1s0,0,0,0V24.05a15.56,15.56,0,0,1,4.9.56,19.5,19.5,0,0,1,0-2.86,14.92,14.92,0,0,1-4.9.56V19.73a11.25,11.25,0,0,1,3.87.57,22.9,22.9,0,0,1,0-2.87A11.48,11.48,0,0,1,18,18a23.62,23.62,0,0,1,.51-3.69,17.13,17.13,0,0,1-2.68,0A23.62,23.62,0,0,1,16.31,18a11.57,11.57,0,0,1-3.87-.57,19.64,19.64,0,0,1,0,2.87,11.33,11.33,0,0,1,3.88-.57v2.58a14.92,14.92,0,0,1-4.9-.56,19.5,19.5,0,0,1,0,2.86,15.56,15.56,0,0,1,4.9-.56v3.84h0Z"/><path class="cls-2" d="M24.21,30.35h0L24,30,23.89,30c-.07-.07-.14-.15-.21-.21l-.11-.09-.19-.15-.15-.09-.18-.1-.17-.06-.19-.07-.17,0a2,2,0,0,0-.24,0,2.37,2.37,0,0,0-.93.19l-.15.06-.22.12-.11.08a1.41,1.41,0,0,0-.23.18l-.07.06-.16.18-.07.09-.08.11-.05.07-.05.1,0,0,0,.05s0-.09-.09-.22l0,0-.07-.14-.13-.25-.06-.12c-.06-.09-.12-.2-.19-.3l0-.09-.26-.36-.06-.07c-.11-.13-.22-.25-.34-.37l-.07-.06a2.58,2.58,0,0,0-.41-.33l0,0a2.35,2.35,0,0,0-.45-.22l-.25-.08-.09,0a2,2,0,0,0-.8,0l-.1,0-.25.08a2.58,2.58,0,0,0-.44.22l0,0a3.39,3.39,0,0,0-.42.33l-.06.06a3.92,3.92,0,0,0-.34.37l-.05.07a3.37,3.37,0,0,0-.28.38l0,.05c-.08.11-.14.23-.2.33l-.06.1c-.05.1-.1.18-.13.26l-.07.13,0,0c-.06.13-.09.22-.09.22s0-.08-.11-.19v0l-.12-.16,0,0a2.13,2.13,0,0,0-.21-.22h0a2.76,2.76,0,0,0-.25-.21l-.11-.07-.22-.12-.15-.07a2.56,2.56,0,0,0-.93-.18,1.9,1.9,0,0,0-.25,0l-.16,0-.21.07-.15.06-.19.11-.14.08c-.07,0-.13.1-.2.15l-.1.09-.23.22,0,.06a5.5,5.5,0,0,0-.69,1,17.89,17.89,0,0,0,7.51,6.32,17.92,17.92,0,0,0,7.49-6.3v0A4.54,4.54,0,0,0,24.21,30.35Z"/><path class="cls-7" d="M24.21,30.35h0L24,30,23.89,30c-.07-.07-.14-.15-.21-.21l-.11-.09-.19-.15-.15-.09-.18-.1-.17-.06-.19-.07-.17,0a2,2,0,0,0-.24,0,2.37,2.37,0,0,0-.93.19l-.15.06-.22.12-.11.08a1.41,1.41,0,0,0-.23.18l-.07.06-.16.18-.07.09-.08.11-.05.07-.05.1,0,0,0,.05s0-.09-.09-.22l0,0-.07-.14-.13-.25-.06-.12c-.06-.09-.12-.2-.19-.3l0-.09-.26-.36-.06-.07c-.11-.13-.22-.25-.34-.37l-.07-.06a2.58,2.58,0,0,0-.41-.33l0,0a2.35,2.35,0,0,0-.45-.22l-.25-.08-.09,0a2,2,0,0,0-.8,0l-.1,0-.25.08a2.58,2.58,0,0,0-.44.22l0,0a3.39,3.39,0,0,0-.42.33l-.06.06a3.92,3.92,0,0,0-.34.37l-.05.07a3.37,3.37,0,0,0-.28.38l0,.05c-.08.11-.14.23-.2.33l-.06.1c-.05.1-.1.18-.13.26l-.07.13,0,0c-.06.13-.09.22-.09.22s0-.08-.11-.19v0l-.12-.16,0,0a2.13,2.13,0,0,0-.21-.22h0a2.76,2.76,0,0,0-.25-.21l-.11-.07-.22-.12-.15-.07a2.56,2.56,0,0,0-.93-.18,1.9,1.9,0,0,0-.25,0l-.16,0-.21.07-.15.06-.19.11-.14.08c-.07,0-.13.1-.2.15l-.1.09-.23.22,0,.06a5.5,5.5,0,0,0-.69,1,17.89,17.89,0,0,0,7.51,6.32,17.92,17.92,0,0,0,7.49-6.3v0A4.54,4.54,0,0,0,24.21,30.35Z"/><path class="cls-5" d="M22.52,29.18l.17,0Z"/><path class="cls-8" d="M22.52,29.18l.17,0Z"/><path class="cls-5" d="M20.34,30.11l.07-.09Z"/><path class="cls-9" d="M20.34,30.11l.07-.09Z"/><path class="cls-5" d="M21.2,29.4l.15-.06Z"/><path class="cls-10" d="M21.2,29.4l.15-.06Z"/><path class="cls-5" d="M20.87,29.6l.11-.08Z"/><path class="cls-11" d="M20.87,29.6l.11-.08Z"/><path class="cls-5" d="M20.14,30.41l0,0Z"/><path class="cls-12" d="M20.14,30.41l0,0Z"/><path class="cls-5" d="M22.88,29.27l.17.06Z"/><path class="cls-13" d="M22.88,29.27l.17.06Z"/><path class="cls-5" d="M19.81,29.81l.13.25Z"/><path class="cls-14" d="M19.81,29.81l.13.25Z"/><path class="cls-5" d="M20,30.2l0,0Z"/><path class="cls-15" d="M20,30.2l0,0Z"/><path class="cls-5" d="M20.21,30.29l.05-.07Z"/><path class="cls-16" d="M20.21,30.29l.05-.07Z"/><path class="cls-5" d="M16.33,27.88a2.75,2.75,0,0,0-.38.2,2.58,2.58,0,0,1,.44-.22Z"/><path class="cls-17" d="M16.33,27.88a2.75,2.75,0,0,0-.38.2,2.58,2.58,0,0,1,.44-.22Z"/><path class="cls-5" d="M18.33,28.08a2.38,2.38,0,0,0-.39-.2l-.06,0A2.35,2.35,0,0,1,18.33,28.08Z"/><path class="cls-18" d="M18.33,28.08a2.38,2.38,0,0,0-.39-.2l-.06,0A2.35,2.35,0,0,1,18.33,28.08Z"/><path class="cls-5" d="M19.56,29.39c.07.1.13.21.19.3C19.69,29.6,19.63,29.49,19.56,29.39Z"/><path class="cls-19" d="M19.56,29.39c.07.1.13.21.19.3C19.69,29.6,19.63,29.49,19.56,29.39Z"/><path class="cls-5" d="M24.63,31.05v0h0Z"/><path class="cls-20" d="M24.63,31.05v0h0Z"/><path class="cls-5" d="M23.23,29.43l.15.09Z"/><path class="cls-21" d="M23.23,29.43l.15.09Z"/><path class="cls-5" d="M20.64,29.78l-.07.06Z"/><path class="cls-22" d="M20.64,29.78l-.07.06Z"/><path class="cls-5" d="M23.89,30,24,30Z"/><path class="cls-23" d="M23.89,30,24,30Z"/><path class="cls-5" d="M23.57,29.67l.11.09Z"/><path class="cls-24" d="M23.57,29.67l.11.09Z"/><path class="cls-5" d="M24.21,30.34h0Z"/><path class="cls-25" d="M24.21,30.34h0Z"/><path class="cls-5" d="M11.23,29.33l.15-.06Z"/><path class="cls-26" d="M11.23,29.33l.15-.06Z"/><path class="cls-5" d="M13.66,29.8h0Z"/><path class="cls-27" d="M13.66,29.8h0Z"/><path class="cls-5" d="M13.3,29.52l.11.07Z"/><path class="cls-28" d="M13.3,29.52l.11.07Z"/><path class="cls-5" d="M12.93,29.33l.15.07Z"/><path class="cls-29" d="M12.93,29.33l.15.07Z"/><path class="cls-5" d="M14,30.24v0Z"/><path class="cls-30" d="M14,30.24v0Z"/><path class="cls-5" d="M13.88,30l0,0Z"/><path class="cls-31" d="M13.88,30l0,0Z"/><path class="cls-5" d="M10.6,29.76l.1-.09Z"/><path class="cls-32" d="M10.6,29.76l.1-.09Z"/><path class="cls-5" d="M11.59,29.2l.16,0Z"/><path class="cls-33" d="M11.59,29.2l.16,0Z"/><path class="cls-5" d="M10.32,30l0-.06Z"/><path class="cls-34" d="M10.32,30l0-.06Z"/><path class="cls-5" d="M19.25,28.94l.26.36Z"/><path class="cls-35" d="M19.25,28.94l.26.36Z"/><path class="cls-5" d="M10.9,29.52l.14-.08Z"/><path class="cls-36" d="M10.9,29.52l.14-.08Z"/><path class="cls-5" d="M15.09,28.87a3.92,3.92,0,0,1,.34-.37A3.92,3.92,0,0,0,15.09,28.87Z"/><path class="cls-37" d="M15.09,28.87a3.92,3.92,0,0,1,.34-.37A3.92,3.92,0,0,0,15.09,28.87Z"/><path class="cls-5" d="M18.85,28.5c.12.12.23.24.34.37C19.08,28.74,19,28.62,18.85,28.5Z"/><path class="cls-38" d="M18.85,28.5c.12.12.23.24.34.37C19.08,28.74,19,28.62,18.85,28.5Z"/><path class="cls-5" d="M18.37,28.11a2.58,2.58,0,0,1,.41.33A2.58,2.58,0,0,0,18.37,28.11Z"/><path class="cls-39" d="M18.37,28.11a2.58,2.58,0,0,1,.41.33A2.58,2.58,0,0,0,18.37,28.11Z"/><path class="cls-5" d="M15.49,28.44a3.39,3.39,0,0,1,.42-.33A3.39,3.39,0,0,0,15.49,28.44Z"/><path class="cls-40" d="M15.49,28.44a3.39,3.39,0,0,1,.42-.33A3.39,3.39,0,0,0,15.49,28.44Z"/><path class="cls-5" d="M14.25,30.24l0,0Z"/><path class="cls-41" d="M14.25,30.24l0,0Z"/><path class="cls-5" d="M14.34,30.06c0-.08.08-.16.13-.26C14.42,29.9,14.37,30,14.34,30.06Z"/><path class="cls-42" d="M14.34,30.06c0-.08.08-.16.13-.26C14.42,29.9,14.37,30,14.34,30.06Z"/><path class="cls-5" d="M14.53,29.7c.06-.1.12-.22.2-.33C14.65,29.48,14.59,29.6,14.53,29.7Z"/><path class="cls-43" d="M14.53,29.7c.06-.1.12-.22.2-.33C14.65,29.48,14.59,29.6,14.53,29.7Z"/><path class="cls-5" d="M14.76,29.32a3.37,3.37,0,0,1,.28-.38A3.37,3.37,0,0,0,14.76,29.32Z"/><path class="cls-44" d="M14.76,29.32a3.37,3.37,0,0,1,.28-.38A3.37,3.37,0,0,0,14.76,29.32Z"/><path class="cls-6" d="M16.64,27.78l-.31.1.06,0Z"/><path class="cls-45" d="M16.64,27.78l-.31.1.06,0Z"/><path class="cls-6" d="M17.63,27.78l.25.08.06,0A1.6,1.6,0,0,0,17.63,27.78Z"/><path class="cls-46" d="M17.63,27.78l.25.08.06,0A1.6,1.6,0,0,0,17.63,27.78Z"/><path class="cls-6" d="M17.14,27.71a2.58,2.58,0,0,1,.4,0A2.58,2.58,0,0,0,17.14,27.71Z"/><path class="cls-47" d="M17.14,27.71a2.58,2.58,0,0,1,.4,0A2.58,2.58,0,0,0,17.14,27.71Z"/><path class="cls-6" d="M16.74,27.75a2.58,2.58,0,0,1,.4,0A2.58,2.58,0,0,0,16.74,27.75Z"/><path class="cls-48" d="M16.74,27.75a2.58,2.58,0,0,1,.4,0A2.58,2.58,0,0,0,16.74,27.75Z"/></g></g></g></svg>