<svg xmlns="http://www.w3.org/2000/svg" viewBox="0 0 48 48"><path d="M24,0c-.59,0-1.17,0-1.75.07h3.5C25.17,0,24.59,0,24,0Z" fill="none"/><path d="M22.25,47.93c.58,0,1.16.07,1.75.07s1.17,0,1.75-.07Z" fill="none"/><path d="M1.36,32c.29.8.61,1.58,1,2.34L5.48,32Z" fill="#012169"/><path d="M45.69,34.27a23,23,0,0,0,1-2.29h-4Z" fill="#012169"/><path d="M46.64,16q-.41-1.11-.9-2.19L42.8,16Z" fill="#012169"/><path d="M40,6.12A23.94,23.94,0,0,0,32.08,1.4V12Z" fill="#012169"/><path d="M16.12,1.33a24,24,0,0,0-8.25,4.9l8.25,6.12Z" fill="#012169"/><path d="M2.2,14c-.31.67-.59,1.35-.84,2H5Z" fill="#012169"/><path d="M32.08,46.6A23.9,23.9,0,0,0,39.92,42l-7.84-5.84Z" fill="#012169"/><path d="M8.11,42a24.06,24.06,0,0,0,8,4.69V36Z" fill="#012169"/><path d="M16.12,16V12.35L7.87,6.23a23.63,23.63,0,0,0-3,3.26L13.76,16Z" fill="#fff"/><path d="M32.08,32v4.13L39.92,42a24,24,0,0,0,3.18-3.42L34.18,32Z" fill="#fff"/><path d="M42.8,16l2.94-2.19a24.35,24.35,0,0,0-2.37-4L35.17,16Z" fill="#fff"/><path d="M32.08,14.13,41.23,7.3c-.39-.41-.8-.8-1.22-1.18L32.08,12Z" fill="#fff"/><path d="M39.65,32l5.23,3.85q.43-.77.81-1.56L42.6,32Z" fill="#fff"/><path d="M5.48,32,2.33,34.32a23.48,23.48,0,0,0,2.5,4.11L13.48,32Z" fill="#fff"/><path d="M16.12,34l-9.2,6.9c.38.39.78.77,1.19,1.13l8-6Z" fill="#fff"/><path d="M7.81,16,3,12.41q-.42.77-.78,1.56L5,16Z" fill="#fff"/><path d="M32.08,16h3.09l8.2-6.19A24.47,24.47,0,0,0,41.23,7.3l-9.15,6.83Z" fill="#c8102e"/><path d="M16.12,32H13.48L4.83,38.43a23,23,0,0,0,2.09,2.42l9.2-6.9Z" fill="#c8102e"/><path d="M34.18,32l8.92,6.55a24.2,24.2,0,0,0,1.78-2.7L39.65,32Z" fill="#c8102e"/><path d="M13.76,16,4.89,9.49A23.64,23.64,0,0,0,3,12.41L7.81,16Z" fill="#c8102e"/><path d="M16.12,36V46.67a24.61,24.61,0,0,0,3.19.87V33.59Z" fill="#fff"/><path d="M32.08,12V1.4A23.22,23.22,0,0,0,28.89.5V14.4Z" fill="#fff"/><path d="M28.89,33.73V47.5a23.22,23.22,0,0,0,3.19-.9V36.11Z" fill="#fff"/><path d="M5,16H1.36a24.59,24.59,0,0,0-.9,3.29h8.9Z" fill="#fff"/><path d="M19.31,14.72V.46a24.61,24.61,0,0,0-3.19.87v11Z" fill="#fff"/><path d="M9.63,28.89H.5A25.25,25.25,0,0,0,1.36,32H5.48Z" fill="#fff"/><path d="M38.39,19.31h9.15a24.59,24.59,0,0,0-.9-3.29H42.8Z" fill="#fff"/><path d="M42.6,32h4a25.25,25.25,0,0,0,.86-3.09H38.43Z" fill="#fff"/><polygon points="19.31 14.71 16.12 12.35 16.12 16.02 19.31 16.02 19.31 14.71" fill="#fff"/><polygon points="31.22 16.02 31.28 14.73 32.08 14.13 32.08 12.03 28.89 14.4 28.89 16.02 31.22 16.02" fill="#fff"/><polygon points="32.08 19.31 38.39 19.31 42.8 16.02 35.17 16.02 32.08 18.36 32.08 19.31" fill="#fff"/><rect x="16.12" y="16.02" width="3.19" height="3.29" fill="#fff"/><polygon points="16.12 16.02 13.76 16.02 15.92 17.62 9.94 17.62 7.81 16.02 4.95 16.02 9.36 19.31 16.12 19.31 16.12 16.02" fill="#fff"/><polygon points="16.12 30.66 16.35 31.98 19.31 31.98 19.31 28.89 16.12 28.89 16.12 30.66" fill="#fff"/><polygon points="29.97 28.89 28.89 28.89 28.89 31.98 32.08 31.98 32.08 30.43 29.97 28.89" fill="#fff"/><polygon points="32.08 18.36 31.08 19.11 31.22 16.02 28.89 16.02 28.89 19.31 32.08 19.31 32.08 18.36" fill="#fff"/><polygon points="39.65 31.98 42.6 31.98 38.43 28.89 35.45 28.89 39.65 31.98" fill="#fff"/><polygon points="16.12 30.66 16.12 28.89 9.63 28.89 5.48 31.98 13.48 31.98 16.02 30.08 16.12 30.66" fill="#fff"/><polygon points="32.08 31.98 34.18 31.98 32.08 30.43 32.08 31.98" fill="#fff"/><polygon points="16.35 31.98 16.62 33.57 16.12 33.95 16.12 35.98 19.31 33.59 19.31 31.98 16.35 31.98" fill="#fff"/><polygon points="32.08 31.98 28.89 31.98 28.89 33.73 32.08 36.1 32.08 31.98" fill="#fff"/><polygon points="31.22 16.02 32.08 16.02 32.08 14.13 31.28 14.73 31.22 16.02" fill="#fff"/><polygon points="16.02 30.08 13.48 31.98 16.12 31.98 16.12 30.66 16.02 30.08" fill="#fff"/><polygon points="32.08 28.89 32.08 30.43 34.18 31.98 39.65 31.98 35.45 28.89 32.08 28.89" fill="#fff"/><polygon points="31.08 19.11 32.08 18.36 32.08 16.02 31.22 16.02 31.08 19.11" fill="#fff"/><polygon points="35.17 16.02 32.08 16.02 32.08 18.36 35.17 16.02" fill="#fff"/><polygon points="32.08 30.43 32.08 28.89 29.97 28.89 32.08 30.43" fill="#fff"/><polygon points="16.12 30.66 16.12 31.98 16.35 31.98 16.12 30.66" fill="#fff"/><polygon points="15.92 17.62 13.76 16.02 7.81 16.02 9.94 17.62 15.92 17.62" fill="#fff"/><polygon points="16.35 31.98 16.12 31.98 16.12 33.95 16.62 33.57 16.35 31.98" fill="#fff"/><polygon points="32.08 24.17 32.08 24.02 31.98 24.1 32.08 24.17" fill="#c8102e"/><path d="M32.08,24v.14l6.35,4.72H47.5A23.93,23.93,0,0,0,48,24a24.22,24.22,0,0,0-.46-4.69H38.39Z" fill="#c8102e"/><path d="M28.89,47.5V33.73L26.54,32H21.47l-2.16,1.61V47.54a23.63,23.63,0,0,0,2.94.39h3.5A25,25,0,0,0,28.89,47.5Z" fill="#c8102e"/><path d="M15.92,24.2,9.36,19.31H.46A24.22,24.22,0,0,0,0,24a23.93,23.93,0,0,0,.5,4.89H9.63Z" fill="#c8102e"/><path d="M21.08,16h5.63l2.18-1.62V.5A25,25,0,0,0,25.75.07h-3.5a23.63,23.63,0,0,0-2.94.39V14.72Z" fill="#c8102e"/><polygon points="21.47 31.98 26.54 31.98 24 30.08 21.47 31.98" fill="#c8102e"/><polygon points="26.71 16.02 21.08 16.02 23.9 18.12 26.71 16.02" fill="#c8102e"/><polygon points="28.89 19.31 19.31 19.31 19.31 28.89 28.89 28.89 28.89 28.09 28.89 19.31" fill="#c8102e"/><polygon points="28.89 28.09 28.89 28.89 29.97 28.89 28.89 28.09" fill="#c8102e"/><rect x="16.12" y="19.31" width="3.19" height="9.57" fill="#c8102e"/><polygon points="32.08 24.02 38.39 19.31 32.08 19.31 32.08 24.02" fill="#c8102e"/><polygon points="21.08 16.02 19.31 14.71 19.31 16.02 21.08 16.02" fill="#c8102e"/><polygon points="19.31 19.31 28.89 19.31 28.89 16.02 26.71 16.02 23.9 18.12 21.08 16.02 19.31 16.02 19.31 19.31" fill="#c8102e"/><polygon points="26.54 31.98 28.89 33.73 28.89 31.98 26.54 31.98" fill="#c8102e"/><polygon points="28.89 14.4 26.71 16.02 28.89 16.02 28.89 14.4" fill="#c8102e"/><polygon points="19.31 33.59 21.47 31.98 19.31 31.98 19.31 33.59" fill="#c8102e"/><polygon points="16.12 19.31 9.36 19.31 15.92 24.2 9.63 28.89 16.12 28.89 16.12 19.31" fill="#c8102e"/><polygon points="28.89 19.31 28.89 28.09 32.08 28.09 32.08 24.17 31.98 24.1 32.08 24.02 32.08 19.31 28.89 19.31" fill="#c8102e"/><polygon points="34.37 28.09 35.45 28.89 38.43 28.89 32.08 24.17 32.08 28.09 34.37 28.09" fill="#c8102e"/><polygon points="28.89 28.89 19.31 28.89 19.31 31.98 21.47 31.98 24 30.08 26.54 31.98 28.89 31.98 28.89 28.89" fill="#c8102e"/><polygon points="35.45 28.89 34.37 28.09 32.08 28.09 32.08 28.89 35.45 28.89" fill="#c8102e"/><polygon points="32.08 28.89 32.08 28.09 28.89 28.09 29.97 28.89 32.08 28.89" fill="#c8102e"/></svg>