<svg xmlns="http://www.w3.org/2000/svg" viewBox="0 0 49.77 49.77"><defs><style>.cls-1{fill:#fff;fill-rule:evenodd;}.cls-2{fill:#d41800;}.cls-3{fill:#f7f7f7;}.cls-4{fill:#000d7f;}</style></defs><g id="Layer_2" data-name="Layer 2"><g id="Czech_Republic" data-name="Czech Republic"><g id="Czech_Republic-2" data-name="Czech Republic"><g id="White_ellipse" data-name="White ellipse"><path class="cls-1" d="M3.33,37.34a24.9,24.9,0,1,0,9.1-34A24.94,24.94,0,0,0,3.33,37.34Z"/></g><path class="cls-2" d="M5.61,40.62a25,25,0,0,0,31.73,5.83l.25-.16a24.93,24.93,0,0,0,12.18-21.4H29.32Z"/><path class="cls-3" d="M37.59,3.49A25.16,25.16,0,0,0,24.93,0a24.64,24.64,0,0,0-12.5,3.32l-.25.15A24.54,24.54,0,0,0,5.61,9.15L29.32,24.89H49.77A24.76,24.76,0,0,0,37.59,3.49Z"/><path class="cls-4" d="M5.61,9.15A24.93,24.93,0,0,0,3.33,37.34a25.51,25.51,0,0,0,2.28,3.28L29.32,24.89Z"/></g></g></g></svg>