<svg xmlns="http://www.w3.org/2000/svg" viewBox="0 0 49.77 49.77"><defs><style>.cls-1{fill:#fff;fill-rule:evenodd;}.cls-2{fill:#ffde17;}.cls-3{fill:#d41800;}</style></defs><g id="Layer_2" data-name="Layer 2"><g id="Germany_flag" data-name="Germany flag"><g id="Germany_flag-2" data-name="Germany flag"><g id="White_ellipse" data-name="White ellipse"><path class="cls-1" d="M3.33,37.34a24.9,24.9,0,1,0,9.1-34A24.95,24.95,0,0,0,3.33,37.34Z"/></g><path class="cls-2" d="M1.69,33.85a24,24,0,0,0,1.64,3.49,24.94,24.94,0,0,0,34,9.11l.25-.16A24.68,24.68,0,0,0,48.06,33.85c.06-.17.14-.33.2-.5H1.49C1.55,33.52,1.62,33.68,1.69,33.85Z"/><path class="cls-3" d="M1,17.91a24.73,24.73,0,0,0,.45,15.43H48.27a24.74,24.74,0,0,0,.5-15.45c-.14-.47-.3-.94-.46-1.41H1.52C1.35,17,1.17,17.43,1,17.91Z"/><path d="M48.09,15.93a25.8,25.8,0,0,0-1.64-3.5,24.95,24.95,0,0,0-34-9.1l-.25.15A24.69,24.69,0,0,0,1.74,15.93c-.07.17-.15.33-.21.51v0H48.31l0,0C48.23,16.26,48.15,16.1,48.09,15.93Z"/></g></g></g></svg>