<svg xmlns="http://www.w3.org/2000/svg" viewBox="0 0 180 128.89"><defs><style>.cls-1{fill:#fff;}.cls-2{fill:#f90;fill-rule:evenodd;}</style></defs><g id="Layer_2" data-name="Layer 2"><g id="WORKING"><path class="cls-1" d="M.75,32.1A.66.66,0,0,1,0,31.35V8.58a.66.66,0,0,1,.75-.74H2.62a.8.8,0,0,1,.89.68l.2,1.05A8.79,8.79,0,0,1,6.35,7.9a8.17,8.17,0,0,1,3-.57,6.25,6.25,0,0,1,5.16,2.41,10.09,10.09,0,0,1,1.93,6.48,12.1,12.1,0,0,1-.94,4.92,7.32,7.32,0,0,1-2.61,3.22,6.64,6.64,0,0,1-3.81,1.12A7.87,7.87,0,0,1,6.33,25,7.24,7.24,0,0,1,4,23.61v7.74a.66.66,0,0,1-.75.75Zm7.32-9.77a3.71,3.71,0,0,0,3.23-1.48,7.72,7.72,0,0,0,1.06-4.5,7.66,7.66,0,0,0-1-4.43A3.69,3.69,0,0,0,8.1,10.48,7.05,7.05,0,0,0,4,11.77V21A7,7,0,0,0,8.07,22.33Z"/><path class="cls-1" d="M28,25.62a7.93,7.93,0,0,1-6.17-2.43,9.64,9.64,0,0,1-2.21-6.73,9.57,9.57,0,0,1,2.21-6.72A8,8,0,0,1,28,7.33a7.94,7.94,0,0,1,6.16,2.41,9.52,9.52,0,0,1,2.21,6.72,9.6,9.6,0,0,1-2.21,6.73A7.92,7.92,0,0,1,28,25.62Zm0-3.16q4.29,0,4.29-6c0-4-1.43-6-4.29-6s-4.29,2-4.29,6S25.1,22.46,28,22.46Z"/><path class="cls-1" d="M44.2,25.11a.93.93,0,0,1-1-.72L38.17,9A3,3,0,0,1,38,8.31c0-.31.22-.47.65-.47h2.76a.81.81,0,0,1,.88.64L45.53,21l3.3-12.48A.91.91,0,0,1,49.15,8a1.23,1.23,0,0,1,.63-.13H52a1.11,1.11,0,0,1,.65.15.93.93,0,0,1,.3.53l3.31,12.72,3.4-12.76a.82.82,0,0,1,.89-.64h2.48c.44,0,.65.16.65.47a2.52,2.52,0,0,1-.17.68L58.4,24.39a1,1,0,0,1-1,.72H55a1.23,1.23,0,0,1-.65-.15.94.94,0,0,1-.34-.57L50.81,12.15,47.57,24.39a.94.94,0,0,1-.34.57,1.2,1.2,0,0,1-.65.15Z"/><path class="cls-1" d="M74.1,25.62q-4.29,0-6.51-2.31t-2.21-6.72a10,10,0,0,1,2.16-6.82,7.65,7.65,0,0,1,6-2.44,6.86,6.86,0,0,1,5.12,1.81,7,7,0,0,1,1.79,5.14,18.45,18.45,0,0,1-.17,2.41.93.93,0,0,1-.26.6.75.75,0,0,1-.49.15H69.09a5.1,5.1,0,0,0,1.45,3.78,6.07,6.07,0,0,0,4.14,1.21A15.58,15.58,0,0,0,79,21.78l.41-.1.23,0c.34,0,.51.22.51.68v1.22a1.35,1.35,0,0,1-.15.73,1.56,1.56,0,0,1-.7.42A13.77,13.77,0,0,1,74.1,25.62ZM77,14.76v-.27a4.86,4.86,0,0,0-.9-3.16,3.27,3.27,0,0,0-2.64-1.08,3.92,3.92,0,0,0-3,1.22,5.28,5.28,0,0,0-1.33,3.29Z"/><path class="cls-1" d="M85.16,25.11a.66.66,0,0,1-.74-.75V8.58a.65.65,0,0,1,.74-.74H87a1.17,1.17,0,0,1,.66.13.77.77,0,0,1,.26.51l.41,1.94a9.47,9.47,0,0,1,2.55-2.11,5.58,5.58,0,0,1,2.59-.61h.13a2.58,2.58,0,0,1,.74.09.66.66,0,0,1,.41.28,1.64,1.64,0,0,1,.12.75v1.83c0,.48-.21.72-.62.72a4.66,4.66,0,0,1-.56,0c-.24,0-.49,0-.77,0a7.88,7.88,0,0,0-4.46,1.29V24.36a.66.66,0,0,1-.75.75Z"/><path class="cls-1" d="M105.39,25.62q-4.29,0-6.5-2.31t-2.22-6.72a9.9,9.9,0,0,1,2.17-6.82,7.63,7.63,0,0,1,6-2.44A6.89,6.89,0,0,1,110,9.14a7,7,0,0,1,1.78,5.14,16.86,16.86,0,0,1-.17,2.41.93.93,0,0,1-.25.6.78.78,0,0,1-.5.15H100.39a5.1,5.1,0,0,0,1.44,3.78A6.09,6.09,0,0,0,106,22.43a15.58,15.58,0,0,0,4.29-.65l.41-.1.24,0c.34,0,.51.22.51.68v1.22a1.35,1.35,0,0,1-.15.73,1.69,1.69,0,0,1-.7.42A13.83,13.83,0,0,1,105.39,25.62Zm2.86-10.86v-.27a4.86,4.86,0,0,0-.9-3.16,3.24,3.24,0,0,0-2.64-1.08,3.93,3.93,0,0,0-3,1.22,5.22,5.22,0,0,0-1.32,3.29Z"/><path class="cls-1" d="M122,25.48a6.4,6.4,0,0,1-5.23-2.42,10.16,10.16,0,0,1-2-6.54,11.8,11.8,0,0,1,.94-4.9,7.28,7.28,0,0,1,2.6-3.19,6.89,6.89,0,0,1,3.85-1.1,7.91,7.91,0,0,1,5,1.76V.75a.66.66,0,0,1,.74-.75h2.52a.66.66,0,0,1,.75.75V24.36a.66.66,0,0,1-.75.75h-2a.8.8,0,0,1-.89-.68l-.23-1A7.87,7.87,0,0,1,122,25.48Zm1.26-3.15A6.94,6.94,0,0,0,127.19,21V11.7a6.6,6.6,0,0,0-3.85-1.22A3.91,3.91,0,0,0,120,11.92a7.49,7.49,0,0,0-1.07,4.43C118.91,20.33,120.36,22.33,123.27,22.33Z"/><path class="cls-1" d="M154.12,25.48a7.87,7.87,0,0,1-2.93-.56,7.2,7.2,0,0,1-2.42-1.58l-.23,1.09a.81.81,0,0,1-.89.68h-1.87a.66.66,0,0,1-.75-.75V.75a.66.66,0,0,1,.75-.75h2.52a.66.66,0,0,1,.75.75V9.36a8.12,8.12,0,0,1,5.34-2,6.25,6.25,0,0,1,5.16,2.41,10.09,10.09,0,0,1,1.93,6.48,12.1,12.1,0,0,1-.94,4.92A7.49,7.49,0,0,1,158,24.36,6.64,6.64,0,0,1,154.12,25.48Zm-1-3.15a3.71,3.71,0,0,0,3.23-1.48,7.72,7.72,0,0,0,1.06-4.5,7.66,7.66,0,0,0-1-4.43,3.7,3.7,0,0,0-3.22-1.44,7.05,7.05,0,0,0-4.08,1.29V21A7,7,0,0,0,153.1,22.33Z"/><path class="cls-1" d="M166.82,32.5a7.38,7.38,0,0,1-2.14-.27,1,1,0,0,1-.58-.35,1.46,1.46,0,0,1-.14-.73V30c0-.45.18-.68.55-.68a2.25,2.25,0,0,1,.41,0,7,7,0,0,0,.78,0,3.63,3.63,0,0,0,2.18-.53,5.32,5.32,0,0,0,1.39-2.36l.45-1.2L163.28,8.85a1.53,1.53,0,0,1-.14-.54c0-.31.21-.47.62-.47h2.76a.81.81,0,0,1,.88.64l4.22,13,4.29-13a.82.82,0,0,1,.89-.64h2.59c.41,0,.61.16.61.47a1.53,1.53,0,0,1-.14.54l-7.42,19a8.54,8.54,0,0,1-2.25,3.57A5,5,0,0,1,166.82,32.5Z"/><path class="cls-1" d="M55.36,70.09A14.34,14.34,0,0,0,56,74.64a22.54,22.54,0,0,0,1.66,3.67A2.44,2.44,0,0,1,58,79.47,2,2,0,0,1,57,81l-3.23,2.14a2.58,2.58,0,0,1-1.35.45,2.17,2.17,0,0,1-1.52-.71A12,12,0,0,1,49,80.5c-.51-.87-1-1.86-1.57-3A19,19,0,0,1,32.4,84.56q-6.45,0-10.22-3.66a13.09,13.09,0,0,1-3.77-9.83,13.12,13.12,0,0,1,4.67-10.5q4.65-4,12.55-4a39.94,39.94,0,0,1,5.43.4c1.88.27,3.84.65,5.87,1.12V54.36c0-3.87-.8-6.6-2.42-8.18s-4.39-2.37-8.34-2.37a24.33,24.33,0,0,0-5.52.67,39.2,39.2,0,0,0-5.51,1.75,15.43,15.43,0,0,1-1.8.67,3.47,3.47,0,0,1-.8.13c-.72,0-1.08-.53-1.08-1.61v-2.5a3.36,3.36,0,0,1,.36-1.79,3.84,3.84,0,0,1,1.43-1.07,33.66,33.66,0,0,1,6.46-2.32,31.27,31.27,0,0,1,8-1q9.15,0,13.41,4.16t4.26,12.56Zm-20.8,7.77a16.47,16.47,0,0,0,5.29-.94,11.17,11.17,0,0,0,4.84-3.26,8,8,0,0,0,1.75-3.26A17.18,17.18,0,0,0,46.93,66V63.83A43.39,43.39,0,0,0,42.22,63a37.72,37.72,0,0,0-4.79-.31c-3.41,0-5.95.69-7.63,2a7.22,7.22,0,0,0-2.51,5.9A7.23,7.23,0,0,0,29.17,76,7.42,7.42,0,0,0,34.56,77.86ZM75.72,83.4a3.17,3.17,0,0,1-2-.49,4,4,0,0,1-1.08-2l-12-39.5a8.89,8.89,0,0,1-.44-2,1.11,1.11,0,0,1,1.25-1.26h5a3.16,3.16,0,0,1,2,.5,4.18,4.18,0,0,1,1,2l8.61,33.78,8-33.78a3.47,3.47,0,0,1,1-2,3.37,3.37,0,0,1,2.06-.5H93.3a3.35,3.35,0,0,1,2.06.5,3.53,3.53,0,0,1,1,2l8.07,34.22L113.3,40.6a4.18,4.18,0,0,1,1-2,3.16,3.16,0,0,1,2-.5h4.75a1.11,1.11,0,0,1,1.26,1.26,4.16,4.16,0,0,1-.09.8,10.69,10.69,0,0,1-.36,1.25L109.53,80.9a4,4,0,0,1-1.07,2,3.2,3.2,0,0,1-2,.49h-4.39a3.18,3.18,0,0,1-2.06-.53,3.9,3.9,0,0,1-1-2.06l-8-32.89L83.17,80.81a3.9,3.9,0,0,1-1,2.06,3.22,3.22,0,0,1-2.06.53Zm65.83,1.34a35.15,35.15,0,0,1-7.89-.89,23.07,23.07,0,0,1-5.92-2.06,3,3,0,0,1-1.88-2.86V76.34c0-1.07.39-1.61,1.16-1.61a2.69,2.69,0,0,1,.94.18c.33.12.77.3,1.31.54a27.47,27.47,0,0,0,5.65,1.79,30.7,30.7,0,0,0,6.09.62c3.23,0,5.73-.56,7.49-1.7a5.4,5.4,0,0,0,2.65-4.82,4.93,4.93,0,0,0-1.39-3.58,13.4,13.4,0,0,0-5.16-2.68l-7.44-2.32Q131.51,61,129,57.58a12.12,12.12,0,0,1-2.56-7.42,11.31,11.31,0,0,1,1.4-5.68,13.88,13.88,0,0,1,3.67-4.2,16.26,16.26,0,0,1,5.34-2.63,22.66,22.66,0,0,1,6.46-.9,27.13,27.13,0,0,1,3.45.23c1.17.15,2.27.34,3.32.58s2,.51,2.91.8a12.55,12.55,0,0,1,2.15.9,4.74,4.74,0,0,1,1.53,1.25,2.86,2.86,0,0,1,.45,1.7v2.41c0,1.07-.39,1.61-1.17,1.61a5.42,5.42,0,0,1-2-.63,23.92,23.92,0,0,0-9.87-2,13.38,13.38,0,0,0-6.81,1.43,4.88,4.88,0,0,0-2.42,4.55,4.82,4.82,0,0,0,1.52,3.62A15.41,15.41,0,0,0,142,56.06l7.27,2.32q5.55,1.78,7.93,4.92a11.44,11.44,0,0,1,2.38,7.14,12.87,12.87,0,0,1-1.35,6,13.44,13.44,0,0,1-3.72,4.51,16.82,16.82,0,0,1-5.69,2.86A25.77,25.77,0,0,1,141.55,84.74Z"/><path class="cls-2" d="M151.25,109.89c-16.88,12.41-41.34,19-62.41,19a113.13,113.13,0,0,1-76.22-29c-1.58-1.42-.18-3.36,1.72-2.26a153.93,153.93,0,0,0,76.28,20.16A152.06,152.06,0,0,0,148.79,106C151.65,104.76,154,107.83,151.25,109.89Z"/><path class="cls-2" d="M158.27,101.9c-2.16-2.75-14.27-1.3-19.71-.65-1.65.19-1.9-1.24-.42-2.28,9.66-6.76,25.49-4.81,27.33-2.54s-.49,18.09-9.54,25.63c-1.39,1.16-2.72.54-2.1-1C155.87,116,160.43,104.66,158.27,101.9Z"/></g></g></svg>