<svg xmlns="http://www.w3.org/2000/svg" xmlns:xlink="http://www.w3.org/1999/xlink" viewBox="0 0 199.34 199.34"><defs><style>.cls-1{fill:#fff;fill-rule:evenodd;}.cls-2{fill:url(#linear-gradient);}.cls-3{fill:#205bc7;}.cls-4{fill:url(#linear-gradient-2);}</style><linearGradient id="linear-gradient" x1="-111.07" y1="-1242.2" x2="-111.07" y2="-776.58" gradientTransform="matrix(0.94, -0.35, -0.35, -0.94, -165.59, -908.87)" gradientUnits="userSpaceOnUse"><stop offset="0" stop-color="#ffc20c"/><stop offset="0.24" stop-color="#ffc20c"/><stop offset="0.44" stop-color="#fad72d"/><stop offset="0.84" stop-color="#e8970e"/><stop offset="1" stop-color="#ffc20c"/></linearGradient><linearGradient id="linear-gradient-2" x1="-367.96" y1="-256.38" x2="757.24" y2="600.35" gradientUnits="userSpaceOnUse"><stop offset="0" stop-color="#3bbbec"/><stop offset="1" stop-color="#624fe6"/></linearGradient></defs><g id="Layer_2" data-name="Layer 2"><g id="Layer_2-2" data-name="Layer 2"><g id="Layer_2-3" data-name="Layer 2"><g id="Ukraine_flag" data-name="Ukraine flag"><g id="Ukraine_flag-2" data-name="Ukraine flag-2"><g id="White_ellipse" data-name="White ellipse"><path class="cls-1" d="M42.08,167.3a88.79,88.79,0,1,0-12.49-125l-.06.07A88.93,88.93,0,0,0,42.08,167.3Z"/></g><path class="cls-2" d="M42.08,167.3A88.94,88.94,0,0,0,167,154.79l.63-.85c19.6-24.6,17.63-66.89,6.41-96.28L12.68,121.48C18.13,136.23,29.89,157.37,42.08,167.3Z"/><path class="cls-3" d="M113.64,11.17A89.17,89.17,0,0,0,29.52,42.38l-.65.82C9.45,67.59,3.56,91.38,14.45,120.6L112,102l60.29-45.21C161.16,27.6,144.39,16.49,113.64,11.17Z"/></g></g></g><path class="cls-4" d="M99.66,0a99.67,99.67,0,1,0,99.68,99.67A99.78,99.78,0,0,0,99.66,0Zm20.15,139.48-11.16-31a143.7,143.7,0,0,0,31.63-15.74,106.78,106.78,0,0,1,4.9,34A132.54,132.54,0,0,1,119.81,139.48Zm23.92.93a73.68,73.68,0,0,1-12.81,29.89l-7.42-20.58A149.6,149.6,0,0,0,143.73,140.41ZM43.56,66.06c-1.13,12.24-.06,26.61,4.85,43.11-8.95.59-18.57.77-28.92.46A80.35,80.35,0,0,1,26.55,65.3c.42-.88.86-1.74,1.31-2.61A53.39,53.39,0,0,0,43.56,66.06Zm-10-12.89A79.38,79.38,0,0,1,52.68,33.9a86.43,86.43,0,0,0-7.5,21.32A47.55,47.55,0,0,1,33.6,53.17Zm-3.88,67.54c7.85,0,15.29-.29,22.34-.82a125.38,125.38,0,0,0,16.75,31c-8.83.86-18.33,1.35-28.58,1.35l-2,0a80.34,80.34,0,0,1-14.58-25.06c-.77-2.15-1.43-4.33-2-6.51C24.38,120.66,27.07,120.71,29.72,120.71ZM80,61.29l14.47,40.16a207.68,207.68,0,0,1-35,6.75c-5.18-16.38-6.18-30.41-5-42.09A111.2,111.2,0,0,0,80,61.29ZM56.44,55a73,73,0,0,1,12-26L76.3,51A102.85,102.85,0,0,1,56.44,55Zm48.35,42.76c0-.08-.08-.15-.11-.23L90.33,57.74a105.4,105.4,0,0,0,23.25-12.1C122,54,130.12,65.73,136.5,81.92l-.45.33a132.26,132.26,0,0,1-31.16,15.83ZM109.48,143a197,197,0,0,1-27.79,6.22,106.86,106.86,0,0,1-18.35-30.42,214.76,214.76,0,0,0,34.92-6.93Zm4.33-111.88A87,87,0,0,0,93.89,19.06a79.64,79.64,0,0,1,26.32,2.52C119.61,23.37,118,26.87,113.81,31.13Zm-8.73,7.06a97.53,97.53,0,0,1-18.45,9.28l-8-22.13A73,73,0,0,1,105.08,38.19ZM77.38,160.82a88.44,88.44,0,0,0,28,19.46A81.11,81.11,0,0,1,49.46,163C59.46,162.67,68.75,161.93,77.38,160.82Zm13.9-2.2a203.43,203.43,0,0,0,21.89-5.37l7.45,20.67A75,75,0,0,1,91.28,158.62ZM121.93,38.53c5.23-5.38,7.59-10.19,8.65-13.43,1.16.49,2.31,1,3.46,1.53a80.81,80.81,0,0,1,30.11,24.44,6.19,6.19,0,0,0-.67,1.15c0,.12-4.6,10.69-18.07,22.63C138.77,59.05,130.52,47.29,121.93,38.53Zm49,23.08a82.71,82.71,0,0,1,4.79,10.78,80.59,80.59,0,0,1,3.81,14.85c-.11.37-4.87,15.78-23.48,31.49a125.58,125.58,0,0,0-6.47-32.84C161.1,76.38,167.63,67.18,170.89,61.61Zm-15.1,71.19q3.28-2.36,6.08-4.65a102.93,102.93,0,0,0,18-19,81,81,0,0,1-33.3,56.34A88.28,88.28,0,0,0,155.79,132.8Z"/></g></g></svg>