<svg xmlns="http://www.w3.org/2000/svg" viewBox="0 0 596.12 319.48"><defs><style>.cls-1{fill:#fff;}.cls-2{fill:none;}</style></defs><g id="Layer_2" data-name="Layer 2"><g id="Layer_1-2" data-name="Layer 1"><path class="cls-1" d="M329.57,99.15c-7.55-7.07-17.35-10.66-29.14-10.66a39.54,39.54,0,0,0-16.11,3.59,38.4,38.4,0,0,0-10.49,6.72V90.7H256.94V192h16.89v-40.2a39.29,39.29,0,0,0,26.6,10.75c11.35,0,21.05-3.63,28.81-10.79s11.75-16,11.75-26a35.07,35.07,0,0,0-11.42-26.57m-5.87,26.29c0,6.88-2.27,12.34-6.93,16.71s-10.66,6.53-18,6.53a25.21,25.21,0,0,1-17.57-6.86A22,22,0,0,1,281.1,109a25.31,25.31,0,0,1,17.54-6.66c7.57,0,13.71,2.18,18.25,6.46s6.81,9.76,6.81,16.64"/><path class="cls-1" d="M416.05,99.07A37.08,37.08,0,0,0,405.47,92a38.45,38.45,0,0,0-15.87-3.48c-11.35,0-21,3.61-28.76,10.72s-11.71,15.87-11.71,25.94A35.35,35.35,0,0,0,360.5,151.8c7.52,7.12,17.31,10.73,29.1,10.73a40.37,40.37,0,0,0,26.45-10.34v8.13h16.89V90.7H416.05Zm0,26.37A21.37,21.37,0,0,1,408.81,142a24.92,24.92,0,0,1-17.41,6.72c-7.57,0-13.71-2.2-18.25-6.52s-6.81-9.84-6.81-16.72,2.24-12.32,6.84-16.64,10.59-6.46,17.89-6.46a25.35,25.35,0,0,1,17.58,6.8,21.06,21.06,0,0,1,7.4,16.3"/><path class="cls-1" d="M508.31,95.64c-4.9-4.74-11.78-7.15-20.44-7.15a36.76,36.76,0,0,0-23.59,8.71V53.62H447.39v106.7h16.89V113.56c6.48-7.44,13.29-11.22,20.25-11.22,5,0,8.67,1.19,10.9,3.52s3.4,6.27,3.4,11.66v42.8h16.88V114.46c0-7.74-2.49-14.07-7.4-18.82"/><path class="cls-1" d="M92.63,179.9,82.5,185.14A3.62,3.62,0,1,0,87.38,190Z"/><path class="cls-1" d="M217.5,187.62l-6.4-3.33,3.33,6.44a2.3,2.3,0,1,0,3.07-3.11"/><path class="cls-1" d="M100.28,73.45,91.75,57a5.92,5.92,0,1,0-8.17,7.85h0Z"/><path class="cls-1" d="M217.79,53.73a1.33,1.33,0,0,0-1.13.65l-2,3.78,3.75-2a1.31,1.31,0,0,0-.65-2.46"/><path class="cls-1" d="M218.82,106.29a52.66,52.66,0,0,0-52.66-52.66,32.92,32.92,0,0,0-32.4,27.07,23.72,23.72,0,0,0-14.44-4.91c-21.43,0-38.81,17.94-38.81,40.08,0,30.8,20.71,56.59,48.52,63.38a35.66,35.66,0,0,1,6.56,2.48,2.31,2.31,0,0,1,.74,3.58h0a3.86,3.86,0,0,0-.91,2.51,3.78,3.78,0,0,0,3.71,3.85,3.43,3.43,0,0,0,.56-.05,85.59,85.59,0,0,0,79.13-85.34M165.66,166a125,125,0,0,1-24.13-74h0c0-13.63,10.7-24.69,23.91-24.69,21.12,0,38.25,17.69,38.25,39.5,0,26.63-15.7,49.47-38.06,59.19Z"/><path class="cls-1" d="M93.18,239.7c-1.84,1.3-4.07,1.38-6.91,1.38H83.7v12.33H80.51V226h5.76c2.8,0,5.07.07,6.91,1.38a8.21,8.21,0,0,1,0,12.37m-7.83-10.76H83.7v9.18h1.65c4.72,0,7.1-.61,7.1-4.42,0-4-2.34-4.76-7.1-4.76"/><path class="cls-1" d="M112.12,251.37a9.37,9.37,0,0,1-6.61,2.77,9.2,9.2,0,0,1-6.61-2.73,9.23,9.23,0,0,1,0-13.09,9.16,9.16,0,0,1,6.61-2.69,9.3,9.3,0,0,1,6.61,2.72,9.06,9.06,0,0,1,2.72,6.53,8.94,8.94,0,0,1-2.72,6.49m-6.61-13a6.5,6.5,0,1,0,6.18,6.49,6.3,6.3,0,0,0-6.18-6.49"/><rect class="cls-1" x="119.57" y="224.33" width="3" height="29.08"/><path class="cls-1" d="M133.67,254.14c-3.19,0-5.42-1.19-6.76-3.61l2.5-1.69a4.63,4.63,0,0,0,4.37,2.73c2,0,3.23-1.08,3.23-2.58,0-1.3-.88-2-2.69-2.61-4.22-1.46-6.76-2.19-6.76-5.57,0-3,2.42-5.18,6.07-5.18,3,0,5.19,1.22,6.11,3.41l-2.38,1.46a4.08,4.08,0,0,0-3.92-2.45,2.64,2.64,0,0,0-2.92,2.57c0,1.8,1.57,2,4.42,3,3.34,1.07,5,2.3,5,5.11,0,3.18-2.46,5.45-6.26,5.45"/><polygon class="cls-1" points="156.18 253.41 147.35 244.35 147.35 253.41 144.39 253.41 144.39 224.33 147.35 224.33 147.35 244.04 155.6 236.24 159.52 236.24 150.96 244.12 160.29 253.41 156.18 253.41"/><path class="cls-1" d="M176.43,253.41V250.3a6.92,6.92,0,0,1-6.23,3.84c-4.91,0-8.22-3.65-8.22-9.26s3.27-9.25,8.07-9.25a6.64,6.64,0,0,1,6.3,3.84v-3.23h2.92v17.17Zm-5.73-14.86c-3.53,0-5.6,2.26-5.6,6.18,0,4.15,2.07,6.49,5.72,6.49,3.46,0,5.61-2.26,5.61-6.22s-2.42-6.45-5.73-6.45"/><path class="cls-1" d="M214.42,253.41,210.85,245H200.13l-3.57,8.41H193l12.45-28.54L218,253.41Zm-8.95-21.32-4.38,10.1h8.76Z"/><polygon class="cls-1" points="232.32 253.41 223.49 244.35 223.49 253.41 220.53 253.41 220.53 224.33 223.49 224.33 223.49 244.04 231.75 236.24 235.66 236.24 227.1 244.12 236.43 253.41 232.32 253.41"/><path class="cls-1" d="M246.84,254.14c-5.34,0-8.83-3.73-8.83-9.14,0-5.61,3.8-9.37,9-9.37a12.23,12.23,0,0,1,5.34,1.19V240a8.62,8.62,0,0,0-4.77-1.5c-3.76,0-6.37,2.53-6.37,6.61a6.06,6.06,0,0,0,6.15,6.22,8.75,8.75,0,0,0,5.29-2v3.42a11.32,11.32,0,0,1-5.76,1.38"/><path class="cls-1" d="M258.29,230.13a2.12,2.12,0,0,1-2.15-2.15,2.15,2.15,0,0,1,2.15-2.15,2.18,2.18,0,0,1,2.15,2.19,2.11,2.11,0,0,1-2.15,2.11m-1.46,6.11h3v25.54h-3Z"/><path class="cls-1" d="M279.11,253.41V250.3a6.89,6.89,0,0,1-6.22,3.84c-4.92,0-8.22-3.65-8.22-9.26s3.27-9.25,8.07-9.25a6.64,6.64,0,0,1,6.3,3.84v-3.23H282v17.17Zm-5.72-14.86c-3.53,0-5.61,2.26-5.61,6.18,0,4.15,2.08,6.49,5.73,6.49,3.45,0,5.6-2.26,5.6-6.22s-2.42-6.45-5.72-6.45"/><polygon class="cls-1" points="317.34 253.41 317.34 239.62 302.74 239.62 302.74 253.41 299.48 253.41 299.48 225.95 302.74 225.95 302.74 236.51 317.34 236.51 317.34 225.95 320.64 225.95 320.64 253.41 317.34 253.41"/><path class="cls-1" d="M334.39,254.14c-5.07,0-7.79-2.69-7.79-7.87v-10h3.07v8.45c0,4.53,1,6.65,4.8,6.65s4.77-2.12,4.77-6.65v-8.45h3v10c0,5.18-2.69,7.87-7.84,7.87"/><path class="cls-1" d="M371.81,253.41v-10.1c0-3.46-1.34-5.15-4.26-5.15a4.81,4.81,0,0,0-3.88,1.84c-.92,1.19-1,2.62-1,4.54v8.87h-2.85v-10.1c0-3.46-1.34-5.15-4.26-5.15a4.89,4.89,0,0,0-3.92,1.84c-.92,1.19-.92,2.62-.92,4.54v8.87h-2.84V236.24h2.88v2.65a6.67,6.67,0,0,1,5.95-3.26,5.78,5.78,0,0,1,5.76,3.49,6.79,6.79,0,0,1,6.11-3.49c3.8,0,6.11,2.22,6.11,6.1v11.68Z"/><path class="cls-1" d="M393.63,253.41V250.3a6.89,6.89,0,0,1-6.22,3.84c-4.92,0-8.22-3.65-8.22-9.26s3.26-9.25,8.06-9.25a6.64,6.64,0,0,1,6.31,3.84v-3.23h2.91v17.17Zm-5.72-14.86c-3.54,0-5.61,2.26-5.61,6.18,0,4.15,2.07,6.49,5.72,6.49,3.46,0,5.61-2.26,5.61-6.22s-2.42-6.45-5.72-6.45"/><path class="cls-1" d="M415,253.41v-10.1c0-3.46-1.42-5.15-4.49-5.15a5.28,5.28,0,0,0-4.19,1.84c-1,1.23-1,2.66-1,4.54v8.87h-2.92V236.24h2.88v2.65a7.08,7.08,0,0,1,6.26-3.26c4,0,6.46,2.22,6.46,6.1v11.68Z"/><path class="cls-1" d="M425.36,230.13a2.12,2.12,0,0,1-2.15-2.15,2.15,2.15,0,0,1,2.15-2.15,2.19,2.19,0,0,1,2.16,2.19,2.12,2.12,0,0,1-2.16,2.11m-1.45,6.11h2.95v17.17h-2.95Z"/><polygon class="cls-1" points="436.5 238.66 436.5 253.41 433.51 253.41 433.51 238.66 430.36 238.66 430.36 236.24 433.51 236.24 433.51 229.33 436.5 229.33 436.5 236.24 439.65 236.24 439.65 238.66 436.5 238.66"/><path class="cls-1" d="M456.13,253.41V250.3a6.89,6.89,0,0,1-6.22,3.84c-4.92,0-8.22-3.65-8.22-9.26s3.27-9.25,8.07-9.25a6.64,6.64,0,0,1,6.3,3.84v-3.23H459v17.17Zm-5.72-14.86c-3.53,0-5.61,2.26-5.61,6.18,0,4.15,2.08,6.49,5.73,6.49,3.45,0,5.6-2.26,5.6-6.22s-2.42-6.45-5.72-6.45"/><path class="cls-1" d="M474.27,238.66a5.59,5.59,0,0,0-1.81-.35c-3.11,0-4.65,2.23-4.65,6.73v8.37H464.9V236.24h2.61v3.57c1.53-2.92,3.15-4.15,5.76-4.15a5.87,5.87,0,0,1,2,.35Z"/><path class="cls-1" d="M490.94,253.41v-10.1c0-3.46-1.43-5.15-4.5-5.15a5.27,5.27,0,0,0-4.18,1.84c-1,1.23-1,2.66-1,4.54v8.87h-2.92V236.24h2.88v2.65a7.07,7.07,0,0,1,6.26-3.26c4,0,6.45,2.22,6.45,6.1v11.68Z"/><path class="cls-1" d="M512.87,253.41V250.3a6.89,6.89,0,0,1-6.22,3.84c-4.92,0-8.22-3.65-8.22-9.26s3.27-9.25,8.07-9.25a6.64,6.64,0,0,1,6.3,3.84v-3.23h2.91v17.17Zm-5.72-14.86c-3.53,0-5.61,2.26-5.61,6.18,0,4.15,2.08,6.49,5.73,6.49,3.45,0,5.6-2.26,5.6-6.22s-2.42-6.45-5.72-6.45"/><rect class="cls-2" width="596.12" height="319.48"/></g></g></svg>