<svg xmlns="http://www.w3.org/2000/svg" viewBox="0 0 1062.97 437.75"><defs><style>.cls-1{fill:#fff;}</style></defs><g id="Layer_2" data-name="Layer 2"><g id="Layer_2-2" data-name="Layer 2"><path class="cls-1" d="M0,.26H81.67A71.48,71.48,0,0,1,153,71.59c0,39-31.79,71.07-70.3,71.07H50.91v51.43H0ZM50.91,98.73H82.44a27.79,27.79,0,1,0,0-55.57H50.91Z"/><path class="cls-1" d="M180.39.26h50.92V142.92h69.77v51.17H180.39Z"/><path class="cls-1" d="M324.6,194.09,415.06.26h23l91.23,193.83H478.37l-11.88-25.33H387.15l-11.64,25.33Zm82.45-68.23h39.54L426.94,83.22Z"/><path class="cls-1" d="M697.54,194.09l-91.49-91.75v91.75H555.13V.26h20.68l91.75,91.49V.26h50.91V194.09Z"/><path class="cls-1" d="M757.5.26H877.93V42.38H808.41V73.91h61.51v42.91H808.41v35.66h69.52v41.61H757.5Z"/><polygon class="cls-1" points="910.24 0 1062.97 0 1062.97 50.66 1011.54 50.66 1011.54 194.09 960.63 194.09 960.63 50.66 910.24 50.66 910.24 0"/><path class="cls-1" d="M50.91,240.05v69h61.51v-69h50.91V433.88H112.42V360H50.91v73.92H0V240.05Z"/><path class="cls-1" d="M202.36,240.05H322.79v42.12H253.27V313.7h61.51v42.9H253.27v35.67h69.52v41.61H202.36Z"/><path class="cls-1" d="M471.66,433.88l-30-51.43H410.15v51.43H359.23V240.05H440.9a71.15,71.15,0,0,1,48.33,123.53l41.09,70.3Zm-61.51-95.37h31.53a27.78,27.78,0,1,0,0-55.56H410.15Z"/><path class="cls-1" d="M775.33,240.05H895.76v42.12H826.24V313.7h61.51v42.9H826.24v35.67h69.52v41.61H775.33Z"/><path class="cls-1" d="M1003.53,299.49a14.89,14.89,0,0,0-14.73-14.73,14.67,14.67,0,0,0-14.47,14.73A14.45,14.45,0,0,0,988.8,314a60,60,0,0,1,0,119.92c-33.08,0-59.7-26.11-59.7-60.22h45.23a14.5,14.5,0,0,0,14.47,14.73,14.67,14.67,0,0,0,14.73-14.47,14.89,14.89,0,0,0-14.73-14.73,59.57,59.57,0,1,1,59.7-59.7Z"/><path class="cls-1" d="M644.73,238.41a99.67,99.67,0,1,0,99.68,99.67A99.78,99.78,0,0,0,644.73,238.41Zm20.15,139.48-11.16-31a143.7,143.7,0,0,0,31.63-15.74,106.78,106.78,0,0,1,4.9,34A132.25,132.25,0,0,1,664.88,377.89Zm23.92.93A73.68,73.68,0,0,1,676,408.71l-7.42-20.58A149.6,149.6,0,0,0,688.8,378.82ZM588.63,304.47c-1.13,12.24-.06,26.61,4.85,43.11-9,.59-18.57.77-28.92.46a80.35,80.35,0,0,1,7.06-44.33c.42-.88.86-1.74,1.31-2.61A53.39,53.39,0,0,0,588.63,304.47Zm-10-12.89a79.38,79.38,0,0,1,19.08-19.27,86.43,86.43,0,0,0-7.5,21.32A47.55,47.55,0,0,1,578.67,291.58Zm-3.88,67.54c7.85,0,15.29-.29,22.34-.82a125.38,125.38,0,0,0,16.75,30.95c-8.83.86-18.33,1.35-28.58,1.35l-2,0a80.54,80.54,0,0,1-14.58-25.06c-.77-2.15-1.43-4.33-2-6.51C569.45,359.07,572.15,359.12,574.79,359.12Zm50.29-59.42,14.47,40.16a207.68,207.68,0,0,1-35,6.75c-5.18-16.38-6.18-30.41-5-42.09A111.2,111.2,0,0,0,625.08,299.7Zm-23.56-6.27a72.83,72.83,0,0,1,11.94-26l7.91,22A102.91,102.91,0,0,1,601.52,293.43Zm48.34,42.76c0-.08-.08-.15-.11-.23L635.4,296.15a105.4,105.4,0,0,0,23.25-12.1c8.39,8.4,16.54,20.09,22.92,36.28l-.45.33A132.26,132.26,0,0,1,650,336.49Zm4.69,45.23a197,197,0,0,1-27.79,6.22,106.86,106.86,0,0,1-18.35-30.42,215.11,215.11,0,0,0,34.93-6.93Zm4.33-111.88A86.79,86.79,0,0,0,639,257.47,79.61,79.61,0,0,1,665.28,260C664.68,261.78,663.06,265.28,658.88,269.54Zm-8.73,7.06a97.22,97.22,0,0,1-18.45,9.28l-8-22.13A72.94,72.94,0,0,1,650.15,276.6Zm-27.7,122.63a88.44,88.44,0,0,0,28,19.46,81.11,81.11,0,0,1-55.93-17.32C604.53,401.08,613.82,400.34,622.45,399.23Zm13.9-2.2a203.43,203.43,0,0,0,21.89-5.37l7.45,20.67A75,75,0,0,1,636.35,397ZM667,276.94c5.22-5.38,7.58-10.19,8.64-13.43,1.16.49,2.31,1,3.46,1.53a80.92,80.92,0,0,1,30.12,24.44,5.25,5.25,0,0,0-.67,1.15c-.06.12-4.61,10.69-18.08,22.63C683.84,297.46,675.59,285.7,667,276.94ZM716,300a82.71,82.71,0,0,1,4.79,10.78,80.59,80.59,0,0,1,3.81,14.85c-.11.37-4.87,15.78-23.48,31.49a125.58,125.58,0,0,0-6.47-32.84C706.17,314.79,712.7,305.59,716,300Zm-15.1,71.19q3.28-2.35,6.08-4.65a102.59,102.59,0,0,0,18-19,81,81,0,0,1-33.3,56.34A88.28,88.28,0,0,0,700.86,371.21Z"/></g></g></svg>