<?xml version="1.0" encoding="utf-8"?>
<!-- Generator: Adobe Illustrator 26.2.1, SVG Export Plug-In . SVG Version: 6.00 Build 0)  -->
<svg version="1.1" id="Layer_1" xmlns="http://www.w3.org/2000/svg" xmlns:xlink="http://www.w3.org/1999/xlink" x="0px" y="0px"
	 viewBox="0 0 596.1 319.5" style="enable-background:new 0 0 596.1 319.5;" xml:space="preserve">
<style type="text/css">
	.st0{fill:#FFFFFF;}
</style>
<g id="Layer_2_00000142897046018767854030000003928596875297791872_">
	<g id="Layer_1-2">
		<path class="st0" d="M284,106.9h15.6c7.8,0,13.4,4.7,13.4,12.2c0,7.3-4.9,12.2-13.4,12.2h-8v14H284V106.9z M299.6,124.4
			c3.1,0,5.6-2,5.6-5.3c0-4-2.9-5.3-5.6-5.3h-8v10.7H299.6z M315.2,130.7c0-9.8,6.2-15.4,13.6-15.4c7.4,0,13.6,5.6,13.6,15.4
			c0,10-6,15.4-13.6,15.4S315.2,140.7,315.2,130.7z M335.4,130.7c0-5.8-2.9-8.9-6.7-8.9c-4,0-6.7,3.1-6.7,8.9c0,6,2.7,9.1,6.7,9.1
			C332.8,139.8,335.4,136.5,335.4,130.7z M348.1,105.3h7.3v40.1h-7.3V105.3z M367.5,134c0.4,4,2.7,6.2,6.5,6.2
			c3.6,0,5.8-1.3,5.8-3.3s-1.8-2.4-7.8-4c-6.5-1.8-9.8-4.2-9.8-8.7c0-4.4,3.8-8.9,10.9-8.9c7.1,0,10.9,3.8,12.2,8.7l-5.8,1.8
			c-0.9-2.4-2.5-4.4-6.2-4.4c-2.9,0-4.7,1.1-4.7,2.7s1.1,2,8.7,4.2c7.3,2,8.9,4.7,8.9,8.9c0,4-3.6,8.9-11.8,8.9
			c-8.9,0-12.5-5.3-13.4-10.2L367.5,134z M392,105.3h7.1v22.9l10.7-12h8.9L408.2,128l11.3,17.4h-7.8l-8.9-13.4h-0.2l-3.6,4.2v9.1
			H392L392,105.3z M440.1,142.5c0,0-2.2,3.6-8,3.6c-7.6,0-10.5-4.2-10.5-8.5c0-5.3,2.9-7.3,9.8-9.1s7.6-2.2,7.6-4
			c0-1.6-1.6-3.1-4.9-3.1c-4.5,0-5.6,2.7-6.2,4.9l-5.8-2.4c1.1-4.5,4.9-8.5,11.8-8.5c6.7,0,12.2,3.1,12.2,11.6v18.4h-6L440.1,142.5z
			 M428.5,136.9c0,2.2,1.8,3.1,4.2,3.1c4.7,0,6.5-2.2,6.5-4.2v-5.1c-0.4,0.7-0.7,1.3-6.2,2.7C428.7,134.5,428.5,135.8,428.5,136.9
			L428.5,136.9z M284,161.5h15.2c7.6,0,13.1,4.7,13.1,11.9c0,5.5-3.3,9.3-8.1,11l8.1,14.5h-8.1l-7.6-14.1h-5.5v14.1H284L284,161.5z
			 M298.8,178.9c3.8,0,5.9-1.7,5.9-5.5c0-3.8-2.1-5.6-5.9-5.6h-7.6v11H298.8z M334.1,196.3h-0.4c0,0-1.7,3.4-7.6,3.4
			c-7.2,0-10.1-4.3-10.1-8.5c0-5.1,2.9-7.2,9.7-8.8c6.8-1.3,7.2-2.2,7.2-3.9c0-1.3-1.3-2.9-4.6-2.9c-4.3,0-5.5,2.4-5.9,4.6l-5.9-2.1
			c1.2-4.6,4.7-8.5,11.5-8.5s11.9,3.3,11.9,11.5v17.9h-5.5L334.1,196.3z M322.6,190.8c0,2.2,1.7,3.1,4.2,3.1c4.2,0,6.4-2.2,6.4-4.4
			v-4.6h-0.5c0,0.4-0.3,1.3-5.9,2.6C323,188.3,322.6,189.4,322.6,190.8z M364.6,196.3c0,0-2.1,3.4-7.6,3.4
			c-7.2,0-12.4-5.8-12.4-14.9c0-9.7,6.4-15.2,12.4-15.2c2.9-0.1,5.6,1.4,7.2,3.8v-13.6h7.2v39.1h-6.8V196.3z M364.3,182.4
			c0-3.5-2.2-6.4-6-6.4c-3.8,0-6.4,2.9-6.4,8.9s2.5,8.5,6.4,8.5c3.1,0.2,5.8-2.1,6-5.2c0-0.2,0-0.5,0-0.7V182.4z M395.2,196.3
			c0,0-2.2,3.4-8.1,3.4c-7.2,0-10.2-4.3-10.2-8.5c0-5.1,2.9-7.2,9.7-8.8c6.8-1.3,7.2-2.2,7.2-3.9c0-1.3-1.3-2.9-4.6-2.9
			c-4.3,0-5.6,2.4-6,4.6l-5.9-2.1c1.2-4.6,5.1-8.5,11.9-8.5c6.3,0,11.9,3.3,11.9,11.5v17.9h-5.9L395.2,196.3z M383.7,190.8
			c0,2.2,1.7,3.1,4.3,3.1c4.6,0,6.3-2.2,6.3-4.4v-4.6h-0.4c0,0.4-0.4,1.3-5.9,2.6C384.2,188.3,383.7,189.4,383.7,190.8L383.7,190.8z
			 M284,215.4h16.1c6.8,0,11,4.2,11,9.8c0.2,3-1.5,5.8-4.2,7.1c3.4,1.5,5.6,4.8,5.5,8.5c0,3.9-0.8,6.9-3.3,9
			c-1.8,1.6-4.7,2.8-10.7,2.8H284V215.4z M299.2,230.3c3,0,4.7-1.3,4.7-4.4c0-2.5-1.7-4.2-4.7-4.2h-8v8.6H299.2z M300.1,245.9
			c3,0,5.1-0.8,5.1-5c0-2.9-2.1-4.6-5.1-4.6h-8.9v9.6H300.1z M318.3,213.6h7.3v6.4h-7.2L318.3,213.6z M318.3,224.3h7.3v28.4h-7.2
			L318.3,224.3z M331,246.8l15.4-16.1h-14.5v-6.4h23.3v6l-14.8,15.5h15.1v6.8H331V246.8z M361.6,224.3h6.8v2.5
			c2.1-2,4.8-3.2,7.7-3.3c6.3,0,10.1,3.8,10.1,10.5v18.7H379v-16.9c0-3.4-0.7-5.9-4.6-5.9s-5.5,2.1-5.5,5.6v17.3h-7.3L361.6,224.3z
			 M416.8,247.3c-2.5,3.3-5.8,6.3-11.9,6.3c-7.6,0-13.5-5.9-13.5-15c0-9.2,5.9-15.1,13.1-15.1c7.6,0,13.2,5.9,13.2,15.1v1.8h-19.1
			c0.4,4.6,2.6,6.8,6.3,6.8c4,0,5.6-2.2,6.8-4.2L416.8,247.3z M411,235.4c-0.5-3.5-2.6-5.6-6.5-5.6c-3.3,0-5.5,2.5-5.9,5.6H411z
			 M427.5,241.8c0.4,3.8,2.5,6,6.3,6c3.3,0,5.5-1.3,5.5-3c0-2.1-1.7-2.5-7.7-4.2c-6-1.7-9.3-3.8-9.3-8.1c0-4.7,3.8-8.9,10.7-8.9
			c7.2,0,10.5,3.3,11.9,8.4l-5.5,1.7c-0.9-2.4-2.6-4.2-6.3-4.2c-2.6,0-4.4,1.3-4.4,2.5c0,1.7,0.9,2.1,8.6,4.3
			c6.8,1.7,8.5,4.6,8.5,8.5s-3.4,8.9-11.5,8.9c-8.5,0-12.2-5.6-13.1-10.2L427.5,241.8z M450.5,224.4h7.2v17.9c0,3.3,1.3,4.6,4.2,4.6
			s5.5-1.3,5.5-5.5v-17h6.8v28.4h-6.3v-2.4c-1.3,1.2-3.3,3.3-7.7,3.3c-6.8,0-9.7-4.7-9.7-11L450.5,224.4z"/>
		<path class="st0" d="M121.8,69.6v108.8l121.6,20.5V52.6L121.8,69.6z M213,164.1l-64.4-10.2V94.2l64.4-6.9V164.1z"/>
	</g>
</g>
</svg>
