<svg xmlns="http://www.w3.org/2000/svg" xmlns:xlink="http://www.w3.org/1999/xlink" viewBox="0 0 2119.1 218.22"><defs><style>.cls-1{fill:none;}.cls-2{fill:#f0191e;}.cls-3{fill:#b2b2b2;}.cls-4{clip-path:url(#clip-path);}.cls-5{fill:url(#linear-gradient);}.cls-6{fill:#868686;}.cls-7{fill:#fff;}.cls-8{clip-path:url(#clip-path-2);}.cls-9{fill:url(#linear-gradient-2);}</style><clipPath id="clip-path"><rect id="SVGID" class="cls-1" x="2036.31" y="157.84" width="49.33" height="49.41"/></clipPath><linearGradient id="linear-gradient" x1="-199.3" y1="286.45" x2="-198.39" y2="286.45" gradientTransform="matrix(0, 54.5, 54.5, 0, -13550.39, 11019.57)" gradientUnits="userSpaceOnUse"><stop offset="0" stop-color="#b2b2b2"/><stop offset="0.18" stop-color="#929292"/><stop offset="0.57" stop-color="#535352"/><stop offset="0.85" stop-color="#2c2c2a"/><stop offset="1" stop-color="#1d1d1b"/></linearGradient><clipPath id="clip-path-2"><rect id="SVGID-2" data-name="SVGID" class="cls-1" x="1986.99" y="9.95" width="49.33" height="49.41"/></clipPath><linearGradient id="linear-gradient-2" x1="-199.01" y1="292.92" x2="-198.11" y2="292.92" gradientTransform="matrix(0, -54.5, -54.5, 0, 17975.21, -10786.61)" gradientUnits="userSpaceOnUse"><stop offset="0" stop-color="#fff"/><stop offset="1" stop-color="#1d1d1b"/></linearGradient></defs><g id="Layer_2" data-name="Layer 2"><g id="ICON_RGB" data-name="ICON RGB"><rect x="1904.63" y="1.97" width="214.46" height="214.46"/><rect class="cls-2" x="1986.99" y="108.6" width="49.33" height="49.33"/><rect class="cls-3" x="2036.31" y="108.6" width="49.33" height="49.33"/><g class="cls-4"><rect class="cls-5" x="2036.31" y="157.84" width="49.33" height="49.41"/></g><rect class="cls-6" x="1937.66" y="59.27" width="49.33" height="49.33"/><rect class="cls-7" x="1986.99" y="59.27" width="49.33" height="49.33"/><g class="cls-8"><rect class="cls-9" x="1986.99" y="9.95" width="49.33" height="49.41"/></g></g><g id="House_of_Communication_HDK_Englisch" data-name="House of Communication – HDK Englisch"><path class="cls-3" d="M54.4,216.26V179H26.08v37.3H0V121.62H26.08v34.49H54.4V121.62H80.47v94.64Z"/><path class="cls-3" d="M140.06,218.22c-29.72,0-44.3-17.95-44.3-47.95,0-30.56,21.59-50.61,48.08-50.61,24.68,0,44.31,13.32,44.31,47.67C188.15,198.17,167,218.22,140.06,218.22Zm1.82-74.73c-9.11,0-18.36,7-18.36,24.82,0,16.12,5.18,25.93,17.8,25.93,8.13,0,19.07-5.6,19.07-25.65C160.39,152,154.36,143.49,141.88,143.49Z"/><path class="cls-3" d="M241.84,218.22c-30.42,0-38.41-16.12-38.41-36.17V121.62H229.5v59.17c0,10.09,3.09,15.56,13.88,15.56,10.52,0,13.88-4.49,13.88-16.27V121.62h25.8v57.06C283.06,206.16,267.22,218.22,241.84,218.22Z"/><path class="cls-3" d="M321.75,218.08a90.51,90.51,0,0,1-19.48-2l1.4-23.83a66.11,66.11,0,0,0,20.19,3.37c6.31,0,10.37-2.67,10.37-7,0-13.74-35.33-5.61-35.33-38,0-18.78,14.44-30.84,39.4-30.84a113.79,113.79,0,0,1,17.24,1.54l-1.4,22.57a61.92,61.92,0,0,0-16.82-2.52c-7.29,0-10.38,2.94-10.38,6.59,0,11.92,35.33,7.29,35.33,36.87C362.27,203.78,347,218.08,321.75,218.08Z"/><path class="cls-3" d="M378.12,216.26V121.62h55.37v22.15h-29.3v13.32H432V178.4H404.19v15.28h29.3v22.58Z"/><path class="cls-3" d="M527.71,218.22c-29.73,0-44.31-17.95-44.31-47.95,0-30.56,21.59-50.61,48.09-50.61,24.68,0,44.3,13.32,44.3,47.67C575.79,198.17,554.62,218.22,527.71,218.22Zm1.82-74.73c-9.11,0-18.37,7-18.37,24.82,0,16.12,5.19,25.93,17.81,25.93,8.13,0,19.06-5.6,19.06-25.65C548,152,542,143.49,529.53,143.49Z"/><path class="cls-3" d="M616.87,144.05v15.29h26.36v21.45H616.87v35.47H590.79V121.62h54v22.43Z"/><path class="cls-3" d="M739,217.52c-37.15,0-44.86-25.66-44.86-44.73,0-31.54,17.8-51.87,48.79-51.87a76.46,76.46,0,0,1,18.22,2.24l-2.94,23.56a58.44,58.44,0,0,0-15.28-2.11c-12.34,0-20,8.56-20,23.84,0,16.4,6.31,25.23,21,25.23a42.4,42.4,0,0,0,14.3-2.66l3.08,23.27A76.25,76.25,0,0,1,739,217.52Z"/><path class="cls-3" d="M814.25,218.22c-29.73,0-44.31-17.95-44.31-47.95,0-30.56,21.59-50.61,48.09-50.61,24.68,0,44.3,13.32,44.3,47.67C862.33,198.17,841.16,218.22,814.25,218.22Zm1.82-74.73c-9.11,0-18.37,7-18.37,24.82,0,16.12,5.19,25.93,17.81,25.93,8.13,0,19.06-5.6,19.06-25.65C834.57,152,828.55,143.49,816.07,143.49Z"/><path class="cls-3" d="M962.15,216.26,957,184.71c-1-6.31-2-13.32-2.81-21.45h-.28c-1.54,8.27-3.36,16.12-5.75,24.82l-7.57,28.18H916.17l-7.43-25.1a191.7,191.7,0,0,1-6.17-27.9h-.28c-.84,9.39-1.82,16.54-2.8,23.69l-3.93,29.31H869.34L885,121.62h29.45l10,32.81a203.5,203.5,0,0,1,5,21.45h.28A154.72,154.72,0,0,1,935.24,154l10.09-32.39h28.6l15.56,94.64Z"/><path class="cls-3" d="M1091.14,216.26,1086,184.71c-1-6.31-2-13.32-2.8-21.45h-.28c-1.55,8.27-3.37,16.12-5.75,24.82l-7.57,28.18h-24.4l-7.43-25.1a193,193,0,0,1-6.17-27.9h-.28c-.84,9.39-1.82,16.54-2.8,23.69l-3.93,29.31H998.33l15.7-94.64h29.44l10,32.81a201,201,0,0,1,5,21.45h.28a156.09,156.09,0,0,1,5.47-21.87l10.09-32.39h28.6l15.57,94.64Z"/><path class="cls-3" d="M1169.35,218.22c-30.42,0-38.41-16.12-38.41-36.17V121.62H1157v59.17c0,10.09,3.09,15.56,13.88,15.56,10.52,0,13.88-4.49,13.88-16.27V121.62h25.8v57.06C1210.57,206.16,1194.73,218.22,1169.35,218.22Z"/><path class="cls-3" d="M1279.81,216.26,1264,183.87c-3.65-7.43-7-15-9.4-21.31a128.39,128.39,0,0,1,.7,15v38.7h-25.09V121.62h33.37l13.74,28.18c4.06,8.41,8.27,17,11.49,24.54a191.87,191.87,0,0,1-1-19.63V121.62h25.1v94.64Z"/><path class="cls-3" d="M1333,216.26V121.62h26.08v94.64Z"/><path class="cls-3" d="M1418.7,217.52c-37.15,0-44.86-25.66-44.86-44.73,0-31.54,17.81-51.87,48.79-51.87a76.48,76.48,0,0,1,18.23,2.24l-2.95,23.56a58.32,58.32,0,0,0-15.28-2.11c-12.34,0-20.05,8.56-20.05,23.84,0,16.4,6.31,25.23,21,25.23a42.31,42.31,0,0,0,14.3-2.66l3.09,23.27A76.27,76.27,0,0,1,1418.7,217.52Z"/><path class="cls-3" d="M1514.6,216.26l-4.91-15.43h-29.16l-4.76,15.43H1450l30.84-94.64h29.86l32.39,94.64Zm-15.28-47.81A122.63,122.63,0,0,1,1495,152h-.28a124.58,124.58,0,0,1-4.63,18l-3.22,10.37h16.26Z"/><path class="cls-3" d="M1585.39,144.05v72.21h-26.08V144.05h-20.47V121.62h67v22.43Z"/><path class="cls-3" d="M1618.48,216.26V121.62h26.07v94.64Z"/><path class="cls-3" d="M1704.14,218.22c-29.72,0-44.3-17.95-44.3-47.95,0-30.56,21.59-50.61,48.08-50.61,24.68,0,44.31,13.32,44.31,47.67C1752.23,198.17,1731.06,218.22,1704.14,218.22Zm1.82-74.73c-9.11,0-18.37,7-18.37,24.82,0,16.12,5.19,25.93,17.81,25.93,8.13,0,19.07-5.6,19.07-25.65C1724.47,152,1718.44,143.49,1706,143.49Z"/><path class="cls-3" d="M1817.14,216.26l-15.85-32.39c-3.64-7.43-7-15-9.39-21.31a128.39,128.39,0,0,1,.7,15v38.7h-25.09V121.62h33.36l13.74,28.18c4.07,8.41,8.28,17,11.5,24.54a191.87,191.87,0,0,1-1-19.63V121.62h25.09v94.64Z"/></g><g id="Serviceplan_Group" data-name="Serviceplan Group"><path d="M1471.93,29.12a69.67,69.67,0,0,0-25.09-4.62c-17.25,0-26.22,10.79-26.22,26.07,0,14.72,7,24.4,23.13,24.4a19.63,19.63,0,0,0,5.33-.7V45.53h26.08V92.21c-9.11,4.07-21.17,6.59-34.07,6.59-31.82,0-48.79-18.08-48.79-46.4,0-30.71,21.31-51.46,55.8-51.46a98.79,98.79,0,0,1,27.76,4.21Z"/><path d="M1539,97.12l-17.81-34.49h-1V97.12h-26.08V2.49c8.84-.57,20.47-.71,32.39-.71,24.11,0,37.57,8.56,37.57,29.59,0,11.21-6.31,22-17.24,25.93,2.52,3.79,4.77,7.29,6.87,10.94l17,28.88Zm-13.88-73.89a39.86,39.86,0,0,0-4.91.29V43.84a37.84,37.84,0,0,0,4.35.28c7.15,0,12-3.78,12-10.79C1536.56,27.72,1533.62,23.23,1525.07,23.23Z"/><path d="M1621,99.08c-29.72,0-44.3-17.94-44.3-47.95,0-30.56,21.59-50.61,48.09-50.61,24.67,0,44.3,13.32,44.3,47.67C1669.05,79,1647.88,99.08,1621,99.08Zm1.83-74.72c-9.12,0-18.37,7-18.37,24.81,0,16.12,5.19,25.94,17.81,25.94,8.13,0,19.06-5.61,19.06-25.66C1641.29,32.91,1635.26,24.36,1622.79,24.36Z"/><path d="M1722.75,99.08c-30.43,0-38.42-16.12-38.42-36.17V2.49h26.08V61.65c0,10.09,3.08,15.56,13.88,15.56,10.51,0,13.88-4.49,13.88-16.26V2.49H1764V59.55C1764,87,1748.12,99.08,1722.75,99.08Z"/><path d="M1814.71,68.1c-.56,0-2.1,0-3.92-.14V97.12h-26.08V2.49c8.69-.43,18.23-.71,28.6-.71,25.24,0,39.12,10.8,39.12,31.69C1852.43,51.84,1840.09,68.1,1814.71,68.1ZM1813.31,23a20.13,20.13,0,0,0-2.52.14V46.23a12.32,12.32,0,0,0,2,.14c6.73,0,12.76-4.21,12.76-12.06C1825.51,28.14,1822.28,23,1813.31,23Z"/><path d="M563.23,78.42a31.15,31.15,0,0,1-8,10.54,37.22,37.22,0,0,1-12.79,7,53.49,53.49,0,0,1-17,2.53q-4.92,0-9.84-.42a67,67,0,0,1-9.69-1.55l1.4-23.89A58.44,58.44,0,0,0,516.72,75a60.74,60.74,0,0,0,10.82,1,13.45,13.45,0,0,0,7.59-1.9A5.89,5.89,0,0,0,537.94,69a6.35,6.35,0,0,0-2.6-5.34,26,26,0,0,0-6.54-3.44c-2.62-1-5.48-2.06-8.57-3.24a32.28,32.28,0,0,1-8.57-4.84,24.4,24.4,0,0,1-6.54-8.08q-2.6-5-2.6-13.14,0-14.21,10.33-22.56T542,0q3.66,0,8.22.42t9.07,1.13l-1.41,22.62a82.1,82.1,0,0,0-8.29-1.83,53,53,0,0,0-8.57-.7c-3.66,0-6.3.64-7.94,1.9a5.73,5.73,0,0,0-2.46,4.71,5.59,5.59,0,0,0,2.6,4.78,37.13,37.13,0,0,0,6.53,3.51q3.93,1.68,8.58,3.58a36,36,0,0,1,8.57,5A25.15,25.15,0,0,1,563.44,53Q566,57.77,566,65.21a31,31,0,0,1-2.81,13.21"/><polygon points="578.47 96.69 578.47 1.83 633.98 1.83 633.98 24.03 604.61 24.03 604.61 37.38 632.43 37.38 632.43 58.74 604.61 58.74 604.61 74.2 633.98 74.2 633.98 96.69 578.47 96.69"/><path d="M699.32,96.69,681.47,62.11h-1V96.69H654.35V1.83q6.75-.42,15.11-.56t17.35-.15q18.13,0,27.9,7t9.77,22.7a28.49,28.49,0,0,1-1.2,8.22,31,31,0,0,1-3.37,7.52,25.28,25.28,0,0,1-5.41,6.18,23.18,23.18,0,0,1-7.31,4.07q2,2.82,3.66,5.48C712,64,713,65.86,714.08,67.74l17,29ZM694.4,25.44q-2.52-3-9-3c-.84,0-1.76,0-2.74.08a14.31,14.31,0,0,0-2.18.21V43.14a13,13,0,0,0,2,.21c.84,0,1.64.07,2.39.07a13.35,13.35,0,0,0,8.71-2.74c2.25-1.82,3.37-4.52,3.37-8.08a10.59,10.59,0,0,0-2.53-7.16"/><path d="M790.56,96.69H759.79L728.59,1.83h28.1l14.48,47.5q1.13,3.8,2.32,7.87t2.32,9h.28c.28-1.5.53-2.88.77-4.15s.51-2.57.84-3.93.73-2.86,1.2-4.5,1-3.53,1.68-5.69L794.64,1.83h26.7Z"/><rect x="831.17" y="1.83" width="26.14" height="94.86"/><path d="M928.32,97.13a81.24,81.24,0,0,1-11.59.85q-13.9,0-22.7-4.29a37.16,37.16,0,0,1-13.77-11,37.9,37.9,0,0,1-6.74-14.55,69.09,69.09,0,0,1-1.76-15,65.73,65.73,0,0,1,3.3-21.42,46.13,46.13,0,0,1,9.56-16.45A41.59,41.59,0,0,1,899.94,4.8a55.18,55.18,0,0,1,20.72-3.65,81.61,81.61,0,0,1,9.42.56,59.94,59.94,0,0,1,8.85,1.69L936,27a52.78,52.78,0,0,0-7.31-1.55,57.21,57.21,0,0,0-8-.56q-9.27,0-14.68,6.18t-5.41,17.71q0,12.36,5,18.83t16.09,6.47a44.08,44.08,0,0,0,7.24-.71,31.22,31.22,0,0,0,7.09-2l3.09,23.33a68.41,68.41,0,0,1-10.75,2.39"/><polygon points="954 96.71 954 1.85 1009.51 1.85 1009.51 24.06 980.14 24.06 980.14 37.41 1007.97 37.41 1007.97 58.77 980.14 58.77 980.14 74.23 1009.51 74.23 1009.51 96.71 954 96.71"/><path d="M1095.35,46.09a30.82,30.82,0,0,1-7,11.1,33.92,33.92,0,0,1-11.8,7.59,45.15,45.15,0,0,1-16.65,2.81h-1.55c-.66,0-1.45,0-2.39-.14V96.68h-26.14V1.82q6.62-.29,13.7-.49t15-.21q19.11,0,29.16,8t10.05,23.75a38,38,0,0,1-2.32,13.21M1068,25.83q-2.75-3.36-9.49-3.35h-1a8.82,8.82,0,0,0-1.55.14v23a5.53,5.53,0,0,0,1.12.14h.85a13.92,13.92,0,0,0,8.92-3.07q3.87-3.07,3.87-8.94a12.22,12.22,0,0,0-2.74-8"/><polygon points="1107.82 96.68 1107.82 1.82 1133.96 1.82 1133.96 73.35 1159.43 73.35 1151.18 96.68 1107.82 96.68"/><path d="M1227.13,96.68l-4.92-15.46H1193l-4.78,15.46h-25.86l30.92-94.86h29.93l32.47,94.86Zm-15.32-47.92q-1.26-4.08-2.46-8a63.09,63.09,0,0,1-1.9-8.44h-.28q-.7,4.08-1.89,8.72t-2.74,9.27l-3.24,10.4h16.3Z"/><path d="M1314.19,96.68l-15.88-32.46q-2.82-5.62-5.2-11.11t-4.22-10.26c.28,2.82.47,5.25.57,7.31s.14,4.64.14,7.73V96.68h-25.16V1.82h33.45l13.77,28.25q3.09,6.32,6.11,12.57t5.41,12q-.56-4.92-.77-10c-.14-3.42-.21-6.62-.21-9.62V1.82h25.15V96.68Z"/></g></g></svg>