<svg xmlns="http://www.w3.org/2000/svg" viewBox="0 0 1943.01 1943.02"><defs><style>.cls-1{fill:#fff;fill-rule:evenodd;}</style></defs><g id="Layer_2" data-name="Layer 2"><g id="Warstwa_1" data-name="Warstwa 1"><path class="cls-1" d="M888.58,917.3c-35.41,36.81-8.32,64,72.31,55.11,50.6-5.56,177.44-51.41,274.88-134.56,21.6-18.43,41.69-37,59.21-58C1028.5,805.25,920.2,884.46,888.58,917.3Z"/><path class="cls-1" d="M525.54,1484.32a45.28,45.28,0,0,0-11.79-1.36h-5.2v89.94h5.2a44.77,44.77,0,0,0,11.79-1.39q7.15-2,10.79-6.76,6.2-8.16,6.2-28.47v-17.11q0-20.3-6.2-28.25Q532.7,1486.26,525.54,1484.32Z"/><path class="cls-1" d="M782.28,1300.94q-4.54,4.07-4.54,14.25v9.91q0,19.47,10.28,19.49h.16q10.43-.15,10.43-19.49v-29.4a48,48,0,0,0-10.43,2.06A16.93,16.93,0,0,0,782.28,1300.94Z"/><polygon class="cls-1" points="710.21 1489.88 709.02 1497.97 690.71 1622.57 709.02 1622.57 727.32 1622.57 711.8 1489.88 710.21 1489.88"/><path class="cls-1" d="M1186.28,1274.68v-15.44q0-22.41-11.4-22.41h0q-11.4,0-11.4,22.41v15.44h22.81Z"/><polygon class="cls-1" points="1495.73 1489.88 1494.54 1498.01 1476.23 1622.57 1494.54 1622.57 1512.85 1622.57 1497.32 1489.88 1495.73 1489.88"/><path class="cls-1" d="M1871.36,898.21C1739,834,1560.46,767.31,1398,773.18q-30.18,1.08-58.18,3c-26.32,26.65-53.7,49.67-77.4,69.34-117.24,97.26-338.2,173.9-401.62,159.63-57.4-12.91-65.82-33.32-27.76-80.81,43.3-54,191-130.43,348.67-161.62,48.45-9.59,95.23-17,140.84-22.34,15.64-27.2,27.4-59,33.85-98.7,42.09-258.83-71.38-319.62-207.59-299.41S908.31,468.19,862.78,519.39c-17.3,20.06-20.27,23.6-20.71,24.14a.27.27,0,0,0,0,.07s-.11.1,0-.07c.76-1.28,21.44-37.81-10.71-159.44-32.75-123.86-138.3-157.27-207.68-153.17-60.75,3.59-171.42,100.37-32.33,423.7,135.15,314.2,104.71,333.25,96,364.86-4.4,15.91-38.87,118.4-374.85,127.85-2.95.27-150.24,5.17-231.63,3.87l-10-125.61c94.62,14.74,289.64,90.37,406.21,61.94,165.14-18.2,204.53-56,173.53-163.5C579.56,756.24,444.68,657.59,436.79,423.2s222.49-318.81,343-199.86,83,268.94,83,268.94,53.7-144.54,255-197.18,358.08,36.58,353.33,184.82c-2.28,71.08-26.79,154-70.54,221.92A399.53,399.53,0,0,1,1376.71,735c166.47-13.77,319.56.61,484.69,37.93L1800,0,0,143,143,1943l1800-143Zm-410,411.89q0-20.1,15-29.39,12-7.05,37.7-9.66c3.31-.34,6.81-.62,10.47-.85v-10.49q0-11.12-1.5-15.3c-1.39-3.59-4.09-5.4-8.08-5.4-.31,0-.6,0-.89,0q-10.17.74-10.17,18.26v2.41h-37.4V1257q0-24.9,10.91-34.34,10.46-9.06,36.66-9.44l2.4,0q28.71,0,39.48,9.46t10.77,34.34v110.37h-40.39l-1.79-17.39a59.78,59.78,0,0,1-10.47,12.6q-9.49,8.4-20.64,8.4-32,0-32-42.89Zm-220.77-93.17h15.89v-22.28l42.23-16.55v38.83h19.49v25.72h-19.49v76.16q0,11.36,1.79,15.53,2.1,5.07,9,5.08a55,55,0,0,0,11.4-1.49v29.57q-17.42,3.29-26.68,3.28-23.67,0-31.46-11.35-6.29-9.56-6.28-37.92v-78.86h-15.89ZM865.7,1280.51q0-37.77,11.24-52.61t42.72-14.85q27.57,0,39.71,11.14t12.14,36.11v6.62H930.26v-9q0-18.9-11.61-18.91-10.71,0-10.72,21v64q0,21,10.54,21,10.81,0,10.82-21v-12h42.22v11.69q0,24.84-12.14,35.94t-39.71,11.09q-31.49,0-42.86-15.3-11.1-14.38-11.1-52.18ZM671,1151.4h42.23v216H671Zm-99,181.88,38.7-89.18h-36v-27.17h75.58V1249l-39.89,91.19h39.89v27.17H571.94Zm-78.3,8.2q2.67,3.57,10.07,3.58,11.54,0,11.54-12.87v-5.39q0-13.47-14.68-21L481.11,1296q-15.3-7.79-21.87-15.71t-6.6-20.21v-11.38q0-16.46,13.45-26t38.26-9.58q26.07,0,37,9.72t10.94,32.17v5.67h-39v-6.9q0-8.1-1.5-10.8c-1.39-3-4.6-4.5-9.6-4.5q-9.29,0-9.28,10.2v4.5q0,9.9,17.67,19.21l20.67,10.8q24.26,12.62,24.27,39.62v7.8q0,21-13.19,30.65T501,1370.78q-28.16,0-38-10.06t-9.88-37.07v-4.8H491V1329C491,1334.93,491.88,1339.11,493.64,1341.48Zm107.61,195.61q0,77.65-75.71,78h-17v111.83H453.23V1440.37h61.68c3.66,0,7.21.08,10.63.24q37.89,1.76,55.42,16.48,20.29,17.91,20.29,61.28Zm139.2,189.82-7.55-60.17H683.15l-10,60.17H621.06l53.33-286.34h76l47.36,286.34ZM798.65,1350a59.48,59.48,0,0,1-10.47,12.6q-9.49,8.4-20.64,8.4-32,0-32-42.89v-18q0-20.1,15-29.39,12-7.05,37.7-9.66,5-.51,10.47-.85v-10.49c0-7.41-.51-12.51-1.5-15.3-1.39-3.59-4.09-5.4-8.08-5.4-.31,0-.6,0-.89,0q-10.18.72-10.17,18.26v2.41H740.6V1257q0-24.9,10.93-34.34,10.46-9.06,36.65-9.44l2.39,0q28.73,0,39.49,9.46T840.83,1257v110.37H800.45ZM997.4,1647.83q0,46.15-17.11,65.05t-59.67,18.89q-46.56,0-63.67-23.07-16.31-21.89-16.32-78.77v-92.29q0-56.88,16.33-78.36,17.5-23.08,64.12-23.07,41.8,0,58.32,18.69T996,1519.73v11.15H938.68v-6.37q0-24.65-3.21-33.42-4-10.74-16.44-10.73t-16.46,10.73q-3.2,8.78-3.2,33.43v118.54q0,21.09,1.45,28.24,4,16.31,18.56,16.31,13.32,0,17.36-14.32,1.93-6.75,1.94-25.06v-16.31H997.4Zm38.19-280.45H993.37v-216h42.05v82.78q14.31-21,31.9-21,17,0,23.27,10.8,5.67,9.62,5.67,33.6v109.77H1054V1262.1c0-12.19-3-18.29-8.92-18.29q-9.54,0-9.53,18.29ZM1175,1493.09l-78.8,192.57H1175v41.25H1040.09v-55.69l77.61-189.39h-70.85v-41.26H1175Zm39.75-133.46q-12.29,11.14-39.56,11.15h-.32q-30.92-.09-42.55-15.3-11.07-14.38-11.08-52.18v-22.79q0-37.47,11.24-52.47t41.51-15h.88q30.15.2,41.08,14.68,11.08,14.68,11.09,52.75v18h-63.58V1324q0,21,10.81,21l.6,0q11.4-.51,11.4-21.22v-5.45h40.77v5.11Q1227.05,1348.49,1214.76,1359.63Zm112.13,367.28-48.16-155.09v155.09h-56.29V1440.57h56.29v125.28l41.39-125.28h55.32l-40.59,122.08,50.54,164.26Zm60.74-483.1q-9.53,0-9.52,18.29v105.28h-42.23V1216.82h40.86l1.19,17.39q14.31-21,31.92-21,17,0,23.26,10.8,5.66,9.62,5.66,33.6v109.77h-42.23V1262.1Q1396.55,1243.82,1387.63,1243.81Zm130.79,422.93h-49.74l-10,60.17h-52.14l53.33-286.34h76l47.35,286.34H1526Z"/><path class="cls-1" d="M1513.85,1344.59h.15q10.41-.15,10.43-19.49v-29.4a48,48,0,0,0-10.43,2.06,17.08,17.08,0,0,0-5.91,3.18q-4.53,4.07-4.53,14.25v9.91Q1503.56,1344.57,1513.85,1344.59Z"/><path class="cls-1" d="M1872.13,898.59l-10-125.48-.77-.17,10,125.27Z"/></g></g></svg>