<svg xmlns="http://www.w3.org/2000/svg" viewBox="0 0 430.35 100.6"><defs><style>.cls-1{fill:#e1251b;}</style></defs><g id="Layer_2" data-name="Layer 2"><g id="Warstwa_1" data-name="Warstwa 1"><path class="cls-1" d="M429,100.53A1.43,1.43,0,0,0,430.35,99V88.64A1.42,1.42,0,0,0,429,87.15h-12.5c-2.93,0-10.66-.17-14.91-2.47A8.53,8.53,0,0,1,398.45,82a6.2,6.2,0,0,1-1-3.58V1.65A1.43,1.43,0,0,0,396.13.16H368.8a1.42,1.42,0,0,0-1.33,1.49V76a19.84,19.84,0,0,0,2.34,10.1,22.57,22.57,0,0,0,7.59,7.53c10.31,6.23,28.55,6.94,35.65,6.9Z"/><path class="cls-1" d="M63.1,100.08a1.42,1.42,0,0,0,1.34-1.5V13.75H97.58a1.44,1.44,0,0,0,1.36-1.5V1.86A1.43,1.43,0,0,0,97.58.36H1.35A1.43,1.43,0,0,0,0,1.86V12.25a1.43,1.43,0,0,0,1.35,1.5H34.42V98.58a1.42,1.42,0,0,0,1.35,1.5Z"/><path class="cls-1" d="M153.34,50.4a6.29,6.29,0,0,1-1,3.6,8.78,8.78,0,0,1-3.13,2.63c-4.26,2.3-12,2.47-14.91,2.47H110.5V47.51a6.33,6.33,0,0,1,1-3.59,8.68,8.68,0,0,1,3.13-2.63c4.25-2.3,12-2.47,14.91-2.47h4.83c2.93,0,10.65.17,14.91,2.47a8.68,8.68,0,0,1,3.13,2.63,6.25,6.25,0,0,1,1,3.59Zm29.57,49.68a1.43,1.43,0,0,0,1.35-1.5V88.19a1.43,1.43,0,0,0-1.35-1.5H129.54c-2.93,0-10.67-.15-14.93-2.47a8.63,8.63,0,0,1-3.12-2.64,6.15,6.15,0,0,1-1-3.58V72.49h27.22c7.1,0,25.82-.4,36.13-6a20.68,20.68,0,0,0,7.58-6.38c3.55-5.24,3.86-15.72,0-21.41a20.8,20.8,0,0,0-7.57-6.36c-10.31-5.6-29-6-36.13-6H126.09c-7.09,0-25.81.6-36.12,6.2a21.77,21.77,0,0,0-7.58,6.8,16.56,16.56,0,0,0-2.33,9.09V78a16.59,16.59,0,0,0,2.33,9.1A21.75,21.75,0,0,0,90,93.88c10.31,5.59,29,6.24,36.12,6.2Z"/><path class="cls-1" d="M321.47,79.42a6.2,6.2,0,0,1-1,3.58,8.77,8.77,0,0,1-3.13,2.64c-4.26,2.3-12,2.47-14.91,2.47h-4.84c-2.93,0-10.65-.17-14.92-2.47A8.73,8.73,0,0,1,279.59,83a6.2,6.2,0,0,1-1-3.58V76a6.28,6.28,0,0,1,1-3.59,8.71,8.71,0,0,1,3.12-2.63c4.27-2.3,12-2.48,14.92-2.48h23.84Zm28.11-39.56A21.68,21.68,0,0,0,342,33.07c-10.3-5.6-29-6.25-36.12-6.21H259.25a1.43,1.43,0,0,0-1.35,1.5V38.75a1.43,1.43,0,0,0,1.35,1.5h43.18c2.93,0,10.66.15,14.91,2.47a8.5,8.5,0,0,1,3.13,2.64,6.23,6.23,0,0,1,1,3.58v5H294.22c-7.1,0-25.82.4-36.13,6a20.57,20.57,0,0,0-7.57,6.37c-3.8,5.61-3.82,16.33,0,21.93a21,21,0,0,0,7.57,6.38c10.32,5.59,29,6,36.14,6h11.68c7.1,0,25.82-.6,36.12-6.21a21.78,21.78,0,0,0,7.59-6.79,16.44,16.44,0,0,0,2.33-9.1V49a16.46,16.46,0,0,0-2.33-9.1"/><path class="cls-1" d="M413.54,5.81h.67l1.33,2.34h1l-1.42-2.41a1.47,1.47,0,0,0,1.34-1.59,1.5,1.5,0,0,0-1.64-1.66h-2.25V8.15h.92Zm0-.86V3.35h1c.5,0,1,0,1,.73,0,.83-.44.87-1.07.87Z"/><path class="cls-1" d="M414.41,9.59a4.11,4.11,0,0,1-3.89-4.29,3.9,3.9,0,1,1,7.76,0,4.1,4.1,0,0,1-3.87,4.29m0-9.59a5.06,5.06,0,0,0-4.77,5.3,4.79,4.79,0,1,0,9.53,0A5,5,0,0,0,414.41,0"/><path class="cls-1" d="M197.07,98.59a1.43,1.43,0,0,0,1.34,1.5h27.28a1.43,1.43,0,0,0,1.36-1.5V40.25h16.68a1.43,1.43,0,0,0,1.36-1.5V28.36a1.43,1.43,0,0,0-1.36-1.5H227.05V22.23a6.22,6.22,0,0,1,1-3.58A8.58,8.58,0,0,1,231.14,16c4.25-2.31,12.5-2.48,15.43-2.48h12a1.43,1.43,0,0,0,1.35-1.5V1.65A1.42,1.42,0,0,0,258.56.16H243.12C236,.1,217.3.83,207,7a22.62,22.62,0,0,0-7.59,7.55c-1.54,2.52-2.34,6.16-2.34,11Z"/></g></g></svg>