<?xml version="1.0" encoding="utf-8"?>
<!-- Generator: Adobe Illustrator 26.2.1, SVG Export Plug-In . SVG Version: 6.00 Build 0)  -->
<svg version="1.1" id="Layer_1" xmlns="http://www.w3.org/2000/svg" xmlns:xlink="http://www.w3.org/1999/xlink" x="0px" y="0px"
	 viewBox="0 0 142 32" style="enable-background:new 0 0 142 32;" xml:space="preserve">
<style type="text/css">
	.st0{fill:#005C7A;}
	.st1{fill:#61E212;}
</style>
<path class="st0" d="M27,25c-0.2,1.6-1.3,3-2.8,3.6c-0.7,0.3-1.6,0.4-2.4,0.3c-0.8-0.1-1.6-0.4-2.4-0.8c-1.1-0.6-2.3-1.6-3.5-3
	c2-2.5,3.3-4.8,3.8-6.9c0.2-0.9,0.3-1.8,0.1-2.6c-0.1-0.8-0.4-1.5-0.8-2.1c-0.9-1.4-2.6-2.2-4.4-2.2c-1.8,0-3.4,0.9-4.4,2.2
	c-0.4,0.6-0.7,1.3-0.8,2.1c-0.1,0.8-0.1,1.7,0.1,2.6c0.5,2.1,1.7,4.4,3.8,6.9c-1.3,1.4-2.4,2.4-3.5,3c-0.8,0.5-1.6,0.7-2.4,0.8
	c-0.8,0.1-1.6,0-2.4-0.3c-1.5-0.6-2.6-2-2.8-3.6c-0.1-0.8,0-1.5,0.3-2.4c0.1-0.3,0.2-0.6,0.4-1C2.9,21.2,10.9,5,11.1,4.5
	c0.3-0.5,0.5-1,0.9-1.4C12.7,2.4,13.6,2,14.5,2c0.9,0,1.8,0.4,2.5,1.2c0.3,0.4,0.6,0.9,0.9,1.4C18.1,5,26,21.2,26.3,21.7
	c0.2,0.4,0.3,0.7,0.4,1C27,23.5,27.1,24.3,27,25z M14.5,23.6c-1.7-2.1-2.8-4.1-3.1-5.8c-0.2-0.7-0.2-1.3-0.1-1.9
	c0.1-0.5,0.2-0.9,0.5-1.3c0.6-0.9,1.6-1.3,2.7-1.3c1.1,0,2.2,0.5,2.7,1.3c0.2,0.4,0.4,0.8,0.5,1.3c0.1,0.6,0.1,1.2-0.1,1.9
	C17.3,19.5,16.2,21.5,14.5,23.6z M28.6,22c-0.2-0.4-0.3-0.8-0.5-1.1C27.9,20.3,19.9,4,19.6,3.6C19.3,3,19,2.4,18.5,1.9
	c-1-1.2-2.4-1.9-4-1.9c-1.6,0-3,0.7-4,1.9C10,2.4,9.7,3,9.4,3.6C9.1,4,1.1,20.3,0.9,20.9c-0.2,0.3-0.3,0.7-0.5,1.1
	c-0.4,1.2-0.5,2.2-0.4,3.3c0.3,2.3,1.9,4.3,4.1,5.2C4.9,30.8,5.8,31,6.7,31c0.3,0,0.5,0,0.8-0.1c1-0.1,2.1-0.5,3.1-1.1
	c1.3-0.7,2.5-1.7,3.9-3.2c1.4,1.5,2.6,2.5,3.9,3.2c1,0.6,2.1,0.9,3.1,1.1c0.3,0,0.5,0.1,0.8,0.1c0.9,0,1.7-0.2,2.5-0.5
	c2.2-0.9,3.7-2.9,4.1-5.2C29.1,24.2,29,23.1,28.6,22z"/>
<path class="st0" d="M41.5,24c-0.8,0-1.5-0.2-2.2-0.5c-0.7-0.3-1.2-0.8-1.7-1.3c-0.5-0.6-0.9-1.2-1.2-2c-0.3-0.7-0.4-1.6-0.4-2.5
	c0-0.9,0.2-1.7,0.4-2.5c0.3-0.8,0.7-1.5,1.2-2c0.5-0.6,1.1-1,1.8-1.4c0.7-0.3,1.5-0.5,2.2-0.5c0.8,0,1.5,0.2,2.1,0.5
	c0.7,0.3,1.2,0.8,1.6,1.4l0.1-1.6h2.9v12h-2.9l-0.1-1.7c-0.4,0.7-1,1.2-1.6,1.5C43,23.8,42.3,24,41.5,24z M42.2,21.1
	c0.6,0,1.1-0.2,1.6-0.5c0.5-0.3,0.8-0.7,1.1-1.2c0.3-0.5,0.4-1.1,0.4-1.8c0-0.7-0.1-1.3-0.4-1.8c-0.3-0.5-0.6-0.9-1.1-1.2
	c-0.5-0.3-1-0.5-1.6-0.5c-0.6,0-1.1,0.2-1.6,0.5c-0.5,0.3-0.8,0.7-1.1,1.2c-0.3,0.5-0.4,1.1-0.4,1.8c0,0.7,0.1,1.3,0.4,1.8
	c0.3,0.5,0.6,0.9,1.1,1.2C41.1,21,41.7,21.1,42.2,21.1z"/>
<path class="st0" d="M53.4,8.4c0,0.3-0.1,0.7-0.2,0.9c-0.2,0.3-0.4,0.5-0.7,0.7c-0.3,0.2-0.6,0.2-0.9,0.2c-0.3,0-0.7-0.1-0.9-0.2
	c-0.3-0.2-0.5-0.4-0.7-0.7c-0.2-0.3-0.2-0.6-0.2-0.9c0-0.3,0.1-0.7,0.2-0.9c0.2-0.3,0.4-0.5,0.7-0.7c0.3-0.2,0.6-0.2,0.9-0.2
	c0.3,0,0.7,0.1,0.9,0.2c0.3,0.2,0.5,0.4,0.7,0.7C53.3,7.7,53.4,8,53.4,8.4z M49.9,11.6h3.2v12h-3.2V11.6z"/>
<path class="st0" d="M61.6,11.6c-0.1,0-0.2,0-0.2-0.1c-0.2,0-0.4-0.1-0.7-0.1c-0.7,0-1.3,0.2-1.8,0.5c-0.5,0.3-0.9,0.8-1.2,1.5
	l-0.1-1.8h-2.9v12h3.2v-5.9c0-1,0.2-1.7,0.7-2.3c0.5-0.5,1.2-0.8,2-0.8c0.2,0,0.4,0,0.5,0c0.2,0,0.3,0.1,0.5,0.1L61.6,11.6
	L61.6,11.6z"/>
<path class="st0" d="M62.9,23.6V6.7h3.2v6.5c0.4-0.6,1-1,1.6-1.4c0.7-0.3,1.3-0.5,2.1-0.5c0.8,0,1.5,0.2,2.2,0.5
	c0.7,0.3,1.2,0.8,1.7,1.3c0.5,0.6,0.9,1.2,1.2,2c0.3,0.7,0.4,1.6,0.4,2.5c0,0.9-0.2,1.7-0.4,2.5c-0.3,0.8-0.7,1.5-1.2,2
	c-0.5,0.6-1.1,1-1.8,1.4c-0.7,0.3-1.5,0.5-2.2,0.5c-0.8,0-1.5-0.2-2.1-0.5c-0.7-0.3-1.2-0.8-1.6-1.4l-0.1,1.6L62.9,23.6L62.9,23.6z
	 M69.1,21.1c0.6,0,1.1-0.2,1.6-0.5c0.5-0.3,0.8-0.7,1.1-1.2c0.3-0.5,0.4-1.1,0.4-1.8c0-0.7-0.1-1.3-0.4-1.8
	c-0.3-0.5-0.6-0.9-1.1-1.2c-0.5-0.3-1-0.5-1.6-0.5c-0.6,0-1.1,0.2-1.6,0.5c-0.5,0.3-0.8,0.7-1.1,1.2C66.2,16.4,66,17,66,17.6
	c0,0.7,0.1,1.3,0.4,1.8c0.3,0.5,0.6,0.9,1.1,1.2C68,21,68.5,21.1,69.1,21.1z"/>
<path class="st0" d="M76.6,23.6v-12h2.9l0.1,1.6c0.3-0.6,0.8-1,1.4-1.4c0.6-0.3,1.3-0.5,2.1-0.5c0.9,0,1.6,0.2,2.3,0.6
	c0.7,0.4,1.2,1,1.5,1.8c0.4,0.8,0.6,1.7,0.6,2.7v7.2h-3.2v-6.8c0-0.8-0.2-1.5-0.6-2c-0.4-0.5-0.9-0.7-1.6-0.7
	c-0.5,0-0.9,0.1-1.3,0.3c-0.4,0.2-0.7,0.5-0.9,0.9c-0.2,0.4-0.3,0.8-0.3,1.3v6.8H76.6z"/>
<path class="st0" d="M89.1,23.6V6.7h3.2v6.5c0.4-0.6,1-1,1.6-1.4c0.7-0.3,1.4-0.5,2.1-0.5c0.8,0,1.5,0.2,2.2,0.5
	c0.7,0.3,1.2,0.8,1.7,1.3c0.5,0.6,0.9,1.2,1.2,2s0.4,1.6,0.4,2.5c0,0.9-0.2,1.7-0.4,2.5c-0.3,0.8-0.7,1.5-1.2,2
	c-0.5,0.6-1.1,1-1.8,1.4c-0.7,0.3-1.5,0.5-2.2,0.5c-0.8,0-1.5-0.2-2.1-0.5c-0.6-0.3-1.2-0.8-1.6-1.4L92,23.7L89.1,23.6L89.1,23.6z
	 M95.3,21.1c0.6,0,1.1-0.2,1.6-0.5c0.5-0.3,0.8-0.7,1.1-1.2c0.3-0.5,0.4-1.1,0.4-1.8c0-0.7-0.1-1.3-0.4-1.8
	c-0.3-0.5-0.6-0.9-1.1-1.2c-0.5-0.3-1-0.5-1.6-0.5c-0.6,0-1.1,0.2-1.6,0.5c-0.5,0.3-0.8,0.7-1.1,1.2c-0.3,0.5-0.4,1.1-0.4,1.8
	c0,0.7,0.1,1.3,0.4,1.8c0.3,0.5,0.6,0.9,1.1,1.2C94.2,21,94.7,21.1,95.3,21.1z"/>
<path class="st1" d="M104.3,23.6c-0.4,0-0.7-0.1-1-0.3c-0.3-0.2-0.5-0.4-0.7-0.7c-0.2-0.3-0.3-0.6-0.3-1c0-0.4,0.1-0.7,0.3-1
	c0.2-0.3,0.4-0.6,0.7-0.7c0.3-0.2,0.6-0.3,1-0.3s0.7,0.1,1,0.3c0.3,0.2,0.5,0.4,0.7,0.7c0.2,0.3,0.3,0.6,0.3,1c0,0.4-0.1,0.7-0.3,1
	c-0.2,0.3-0.4,0.6-0.7,0.7C105,23.5,104.7,23.6,104.3,23.6z"/>
<path class="st1" d="M113,23.9c-0.9,0-1.7-0.2-2.4-0.5c-0.7-0.3-1.4-0.7-2-1.3c-0.6-0.6-1-1.2-1.3-2c-0.3-0.8-0.5-1.6-0.5-2.5
	c0-0.9,0.2-1.7,0.5-2.5c0.3-0.8,0.7-1.4,1.3-2c0.6-0.6,1.2-1,2-1.3c0.7-0.3,1.6-0.5,2.5-0.5c0.9,0,1.7,0.2,2.4,0.5s1.4,0.7,2,1.3
	c0.6,0.6,1,1.2,1.3,2c0.3,0.7,0.5,1.6,0.5,2.5c0,0.9-0.2,1.7-0.5,2.5c-0.3,0.8-0.7,1.5-1.3,2c-0.6,0.6-1.2,1-2,1.3
	C114.8,23.7,113.9,23.9,113,23.9z M113.1,21c0.6,0,1.1-0.2,1.5-0.5c0.4-0.3,0.8-0.7,1.1-1.2c0.2-0.5,0.4-1.1,0.4-1.8
	c0-0.7-0.1-1.3-0.4-1.8c-0.2-0.5-0.6-0.9-1.1-1.2c-0.4-0.3-1-0.5-1.5-0.5c-0.6,0-1.1,0.2-1.5,0.5c-0.5,0.3-0.8,0.7-1.1,1.2
	c-0.2,0.5-0.4,1.1-0.4,1.8c0,0.7,0.1,1.3,0.4,1.8c0.2,0.5,0.6,0.9,1.1,1.2C112,20.9,112.5,21,113.1,21z"/>
<path class="st1" d="M127.5,11.5c-0.1,0-0.2,0-0.2-0.1c-0.2,0-0.4-0.1-0.7-0.1c-0.7,0-1.3,0.2-1.8,0.5c-0.5,0.3-0.9,0.8-1.2,1.5
	l-0.1-1.8h-2.9v12h3.2v-5.9c0-1,0.2-1.7,0.7-2.3s1.2-0.8,2-0.8c0.2,0,0.4,0,0.5,0c0.2,0,0.3,0.1,0.5,0.1V11.5L127.5,11.5z"/>
<path class="st1" d="M133.3,23.2c-0.7,0-1.4-0.2-2.1-0.5c-0.7-0.3-1.2-0.7-1.7-1.3c-0.5-0.5-0.8-1.2-1.1-1.9
	c-0.3-0.7-0.4-1.5-0.4-2.3c0-0.9,0.1-1.6,0.4-2.4c0.3-0.7,0.7-1.4,1.1-1.9c0.5-0.5,1.1-1,1.7-1.3c0.7-0.3,1.4-0.5,2.1-0.5
	c0.7,0,1.4,0.2,2.1,0.5c0.6,0.3,1.1,0.7,1.5,1.3l0.1-1.5h2.9v10.6c0,0.9-0.2,1.8-0.4,2.5c-0.3,0.7-0.7,1.4-1.2,2
	c-0.5,0.6-1.2,1-1.9,1.3c-0.7,0.3-1.6,0.4-2.5,0.4c-0.9,0-1.7-0.2-2.4-0.4c-0.7-0.3-1.3-0.7-1.8-1.2c-0.5-0.5-0.9-1.1-1.2-1.7l3-0.7
	c0.3,0.4,0.6,0.8,1,1c0.4,0.2,0.9,0.4,1.4,0.4c0.6,0,1.1-0.1,1.5-0.4c0.4-0.3,0.7-0.6,1-1.1c0.2-0.5,0.3-1,0.3-1.7v-1
	c-0.4,0.6-0.9,1-1.5,1.3C134.7,23,134.1,23.2,133.3,23.2z M134.1,20.4c0.6,0,1-0.1,1.5-0.4c0.4-0.3,0.8-0.7,1-1.2
	c0.2-0.5,0.4-1,0.4-1.6c0-0.6-0.1-1.2-0.4-1.6c-0.2-0.5-0.6-0.9-1-1.2c-0.4-0.3-0.9-0.4-1.5-0.4c-0.6,0-1,0.1-1.5,0.4
	c-0.4,0.3-0.8,0.7-1,1.2c-0.2,0.5-0.4,1-0.4,1.6c0,0.6,0.1,1.2,0.4,1.6c0.2,0.5,0.6,0.9,1,1.2C133,20.2,133.5,20.4,134.1,20.4z"/>
</svg>
