<svg xmlns="http://www.w3.org/2000/svg" viewBox="0 0 301.97 50.75"><defs><style>.cls-1,.cls-2{fill:#fff;}.cls-1{fill-rule:evenodd;}</style></defs><g id="Layer_2" data-name="Layer 2"><g id="Warstwa_1" data-name="Warstwa 1"><path class="cls-1" d="M67.38,30.38H60.92L51.34,18l-2.25.08V26c0,2.69.4,3.44,3.62,3.61v.75H41.59v-.75c3.26-.21,3.42-1.05,3.42-4.05V8.16c0-3-.6-3.35-3.42-3.63V3.78H52.67c3.58,0,10.22.85,10.22,7.06,0,5.4-5.23,6.36-7.28,6.76l8.28,10.14a4.46,4.46,0,0,0,3.49,1.89ZM37.4,0h0V34.15H71.55V0ZM58.51,10.76c0-5.36-5.28-5.48-6.92-5.48-2.14,0-2.5.28-2.5,1.45v9.91c3.38,0,9.42-.12,9.42-5.88"/><path class="cls-1" d="M97.87,4.53h0c-2.93.12-3.94.4-3.94,3.62V26c0,3.13,1,3.54,3.94,3.62v.75H86v-.75c3.42-.08,3.9-.77,3.9-3.62V8.15c0-3-.57-3.46-3.9-3.62V3.78H97.87ZM74.8,34.15H109V0H74.8Z"/><path class="cls-1" d="M127.48,30.38h-11.4v-.75c3-.16,3.54-.8,3.54-3.62V8.15c0-3-.45-3.37-3.54-3.62V3.79h10.84c9.64,0,16,4.38,16,13.38,0,5.33-3.17,13.21-15.47,13.21M112.2,0h0V34.15h34.15V0Zm22.63,8.09c-1.93-1.72-4.18-2.81-9.24-2.81-1.89,0-1.89.77-1.89,1.57V27.24c0,1.36.48,1.65,2.41,1.65,2.57,0,12.46,0,12.46-11.68a11.67,11.67,0,0,0-3.74-9.12"/><path class="cls-1" d="M31,16.92h0c-1.76.16-2.81.23-2.81,3.09v8.06c0,.56-5.33,2.9-9.77,2.9-4,0-8.45-1.22-11.3-4.3C5,24.34,3.77,22,3.77,16.71A13.44,13.44,0,0,1,17.52,3.25c4.06,0,5.91,1.34,7.2,1.34.32,0,1.65-.21,1.89-1.34h.89l.33,8.48h-.94c-1.08-2.89-3.18-6.86-8.81-6.86-3.82,0-9.73,2.52-9.73,12.69,0,7.26,4.18,11.79,10.42,11.79,2.74,0,5.51-.92,5.51-2.37v-6.5c0-3.33-.8-3.36-3.54-3.56v-.74H31ZM0,34.15H34.15V0H0Z"/><rect class="cls-2" x="156.09" width="1" height="50.55"/><path class="cls-2" d="M177.05,20.8v8.78A4.48,4.48,0,0,1,175.68,33a6.14,6.14,0,0,1-7.44,0,4.39,4.39,0,0,1-1.4-3.39V20.8h2.74v8.79a2.53,2.53,0,0,0,.63,1.91,2.41,2.41,0,0,0,1.73.6c1.55,0,2.33-.81,2.36-2.43V20.8Z"/><polygon class="cls-2" points="190.14 34.13 187.4 34.13 182.05 25.36 182.05 34.13 179.31 34.13 179.31 20.8 182.05 20.8 187.41 29.59 187.41 20.8 190.14 20.8 190.14 34.13"/><polygon class="cls-2" points="205.23 28.33 199.96 28.33 199.96 31.92 206.15 31.92 206.15 34.13 197.21 34.13 197.21 20.8 206.13 20.8 206.13 23.02 199.96 23.02 199.96 26.2 205.23 26.2 205.23 28.33"/><path class="cls-2" d="M210,24.22l.08,1.14A3.47,3.47,0,0,1,213,24a2.85,2.85,0,0,1,2.34.92,4.32,4.32,0,0,1,.79,2.76v6.4h-2.65V27.78a1.77,1.77,0,0,0-.36-1.23,1.67,1.67,0,0,0-1.22-.38,1.83,1.83,0,0,0-1.68,1v7h-2.64v-9.9Z"/><polygon class="cls-2" points="221.79 30.89 223.63 24.22 226.4 24.22 223.05 34.13 220.53 34.13 217.19 24.22 219.95 24.22 221.79 30.89"/><path class="cls-2" d="M227.54,21.66a1.27,1.27,0,0,1,.4-1,1.46,1.46,0,0,1,1.08-.39,1.48,1.48,0,0,1,1.08.39,1.38,1.38,0,0,1,0,2,1.68,1.68,0,0,1-2.15,0,1.28,1.28,0,0,1-.41-1m2.81,12.46h-2.66v-9.9h2.66Z"/><path class="cls-2" d="M238.1,26.7a7.1,7.1,0,0,0-1-.07,1.94,1.94,0,0,0-2,1v6.47h-2.64v-9.9H235l.07,1.18A2.45,2.45,0,0,1,237.31,24a2.76,2.76,0,0,1,.82.12Z"/><path class="cls-2" d="M238.62,29.08a5.88,5.88,0,0,1,.57-2.63,4.1,4.1,0,0,1,1.64-1.78A4.75,4.75,0,0,1,243.3,24a4.56,4.56,0,0,1,3.28,1.22A5,5,0,0,1,248,28.6l0,.67a5.18,5.18,0,0,1-1.27,3.66,4.94,4.94,0,0,1-6.84,0,5.29,5.29,0,0,1-1.28-3.74Zm2.65.19a3.74,3.74,0,0,0,.53,2.16,1.92,1.92,0,0,0,3,0,4.07,4.07,0,0,0,.54-2.36,3.67,3.67,0,0,0-.54-2.15,1.74,1.74,0,0,0-1.52-.76,1.72,1.72,0,0,0-1.5.76,4.13,4.13,0,0,0-.53,2.34"/><path class="cls-2" d="M252.07,24.22l.09,1.14A3.44,3.44,0,0,1,255,24a2.88,2.88,0,0,1,2.35.92,4.32,4.32,0,0,1,.78,2.76v6.4h-2.64V27.78a1.77,1.77,0,0,0-.37-1.23,1.65,1.65,0,0,0-1.22-.38,1.81,1.81,0,0,0-1.67,1v7h-2.65v-9.9Z"/><path class="cls-2" d="M262.62,24.22l.08,1.11A3.51,3.51,0,0,1,265.55,24a2.64,2.64,0,0,1,2.63,1.51,3.39,3.39,0,0,1,3-1.51,3,3,0,0,1,2.4.93,4.3,4.3,0,0,1,.79,2.83v6.32h-2.66V27.8a1.9,1.9,0,0,0-.33-1.24,1.45,1.45,0,0,0-1.16-.39,1.66,1.66,0,0,0-1.65,1.14v6.81h-2.64V27.8a1.92,1.92,0,0,0-.34-1.25,1.51,1.51,0,0,0-1.16-.38,1.69,1.69,0,0,0-1.62.94v7h-2.65v-9.9Z"/><path class="cls-2" d="M280.93,34.31A4.88,4.88,0,0,1,277.38,33,4.76,4.76,0,0,1,276,29.41v-.26a6,6,0,0,1,.58-2.66,4.25,4.25,0,0,1,1.63-1.82,4.65,4.65,0,0,1,2.42-.63,4.1,4.1,0,0,1,3.2,1.28A5.24,5.24,0,0,1,285,29V30h-6.31a2.49,2.49,0,0,0,.78,1.56,2.32,2.32,0,0,0,1.63.58,2.87,2.87,0,0,0,2.39-1.1l1.3,1.45a3.9,3.9,0,0,1-1.61,1.32,5.36,5.36,0,0,1-2.25.47m-.3-8.14a1.65,1.65,0,0,0-1.28.54,2.7,2.7,0,0,0-.63,1.52h3.68V28a2,2,0,0,0-.47-1.36,1.72,1.72,0,0,0-1.3-.48"/><path class="cls-2" d="M288.94,24.22l.08,1.14A3.47,3.47,0,0,1,291.87,24a2.85,2.85,0,0,1,2.34.92,4.32,4.32,0,0,1,.79,2.76v6.4h-2.64V27.78a1.77,1.77,0,0,0-.37-1.23,1.67,1.67,0,0,0-1.22-.38,1.81,1.81,0,0,0-1.67,1v7h-2.65v-9.9Z"/><path class="cls-2" d="M300.17,21.79v2.43h1.69v1.94h-1.69V31.1a1.19,1.19,0,0,0,.21.79,1.06,1.06,0,0,0,.81.24,4.58,4.58,0,0,0,.78-.06v2a5.44,5.44,0,0,1-1.6.24,2.52,2.52,0,0,1-2.84-2.81V26.16h-1.45V24.22h1.45V21.79Z"/><rect class="cls-2" x="166.83" y="0.63" width="2.38" height="11.55"/><path class="cls-2" d="M173.38,3.6l.07,1a3,3,0,0,1,2.47-1.15,2.5,2.5,0,0,1,2,.81,3.72,3.72,0,0,1,.68,2.39v5.54h-2.29V6.68A1.51,1.51,0,0,0,176,5.62,1.45,1.45,0,0,0,175,5.29a1.59,1.59,0,0,0-1.45.82v6.07h-2.29V3.6Z"/><path class="cls-2" d="M192.13,8a5.17,5.17,0,0,1-.9,3.18,2.9,2.9,0,0,1-2.43,1.19,2.68,2.68,0,0,1-2.1-.9v4h-2.29V3.6h2.12l.08.84a2.72,2.72,0,0,1,2.18-1,2.89,2.89,0,0,1,2.46,1.18,5.25,5.25,0,0,1,.88,3.23Zm-2.29-.17a3.44,3.44,0,0,0-.42-1.86,1.41,1.41,0,0,0-1.24-.65,1.52,1.52,0,0,0-1.48.82V9.64a1.52,1.52,0,0,0,1.5.85c1.09,0,1.64-.9,1.64-2.69"/><path class="cls-2" d="M198.52,12.18a2.71,2.71,0,0,1-.23-.77,2.75,2.75,0,0,1-2.16.93,3,3,0,0,1-2.09-.73,2.36,2.36,0,0,1-.83-1.84,2.43,2.43,0,0,1,1-2.09,4.94,4.94,0,0,1,2.92-.74h1.06V6.45a1.36,1.36,0,0,0-.31-1,1.18,1.18,0,0,0-1-.36,1.36,1.36,0,0,0-.91.28.94.94,0,0,0-.33.76H193.4a2.27,2.27,0,0,1,.46-1.38,3.14,3.14,0,0,1,1.31-1,4.67,4.67,0,0,1,1.88-.36,3.79,3.79,0,0,1,2.52.8,2.79,2.79,0,0,1,.93,2.24V10.2a4.06,4.06,0,0,0,.34,1.85v.13Zm-1.89-1.59a2,2,0,0,0,.93-.23,1.49,1.49,0,0,0,.64-.6V8.28h-.86c-1.15,0-1.76.4-1.83,1.19V9.6a.91.91,0,0,0,.3.71,1.16,1.16,0,0,0,.83.28"/><path class="cls-2" d="M207.08,5.75a6.59,6.59,0,0,0-.82-.06,1.68,1.68,0,0,0-1.71.88v5.61h-2.29V3.6h2.17l.06,1a2.14,2.14,0,0,1,1.91-1.18,2.71,2.71,0,0,1,.71.1Z"/><path class="cls-2" d="M211.32,1.49V3.6h1.47V5.28h-1.47V9.56a1.05,1.05,0,0,0,.19.69.93.93,0,0,0,.69.2,4.5,4.5,0,0,0,.68,0v1.73a4.64,4.64,0,0,1-1.39.21A2.18,2.18,0,0,1,209,9.91V5.28h-1.26V3.6H209V1.49Z"/><path class="cls-2" d="M216.18,3.6l.07,1a3,3,0,0,1,2.46-1.15,2.49,2.49,0,0,1,2,.81,3.72,3.72,0,0,1,.68,2.39v5.54h-2.29V6.68a1.51,1.51,0,0,0-.32-1.06,1.43,1.43,0,0,0-1.06-.33,1.59,1.59,0,0,0-1.45.82v6.07H214V3.6Z"/><path class="cls-2" d="M227.12,12.34A4.23,4.23,0,0,1,224,11.18a4.14,4.14,0,0,1-1.18-3.08V7.88a5.11,5.11,0,0,1,.5-2.32A3.71,3.71,0,0,1,224.77,4a4,4,0,0,1,2.09-.55,3.54,3.54,0,0,1,2.77,1.11,4.49,4.49,0,0,1,1,3.15v.94h-5.47a2.08,2.08,0,0,0,.67,1.34,2,2,0,0,0,1.42.51,2.48,2.48,0,0,0,2.07-1l1.12,1.26a3.34,3.34,0,0,1-1.39,1.14,4.48,4.48,0,0,1-1.95.41m-.27-7a1.45,1.45,0,0,0-1.1.46,2.36,2.36,0,0,0-.54,1.33h3.18V6.89A1.72,1.72,0,0,0,228,5.71a1.47,1.47,0,0,0-1.13-.42"/><path class="cls-2" d="M236.77,5.75a6.59,6.59,0,0,0-.82-.06,1.68,1.68,0,0,0-1.71.88v5.61H232V3.6h2.16l.07,1a2.12,2.12,0,0,1,1.91-1.18,2.71,2.71,0,0,1,.71.1Z"/><path class="cls-2" d="M242.52,9.81a.73.73,0,0,0-.42-.66,4.55,4.55,0,0,0-1.34-.43c-2-.43-3.06-1.3-3.06-2.61a2.35,2.35,0,0,1,1-1.9,3.85,3.85,0,0,1,2.48-.77,4.12,4.12,0,0,1,2.61.77,2.44,2.44,0,0,1,1,2h-2.29a1.1,1.1,0,0,0-.32-.81,1.31,1.31,0,0,0-1-.32,1.36,1.36,0,0,0-.9.26.85.85,0,0,0-.31.66.71.71,0,0,0,.36.62,3.72,3.72,0,0,0,1.22.4,11.11,11.11,0,0,1,1.44.39,2.36,2.36,0,0,1,1.81,2.31,2.25,2.25,0,0,1-1,1.9,4.37,4.37,0,0,1-2.6.72,4.67,4.67,0,0,1-1.92-.38,3.29,3.29,0,0,1-1.31-1.06,2.45,2.45,0,0,1-.48-1.45h2.18a1.2,1.2,0,0,0,.45.94,1.76,1.76,0,0,0,1.12.33,1.73,1.73,0,0,0,1-.25.81.81,0,0,0,.34-.66"/><path class="cls-2" d="M248.45,4.54a2.88,2.88,0,0,1,2.3-1.1q2.79,0,2.83,3.25v5.49h-2.29V6.74A1.58,1.58,0,0,0,251,5.65a1.33,1.33,0,0,0-1.05-.36,1.59,1.59,0,0,0-1.47.78v6.11h-2.28V0h2.28Z"/><path class="cls-2" d="M255.3,1.38a1.13,1.13,0,0,1,.34-.85,1.31,1.31,0,0,1,.94-.33,1.29,1.29,0,0,1,.93.33,1.11,1.11,0,0,1,.36.85,1.17,1.17,0,0,1-.36.86,1.29,1.29,0,0,1-.93.33,1.31,1.31,0,0,1-.93-.33,1.12,1.12,0,0,1-.35-.86m2.43,10.8h-2.3V3.6h2.3Z"/><path class="cls-2" d="M267.34,8a5.17,5.17,0,0,1-.9,3.18A2.9,2.9,0,0,1,264,12.34a2.67,2.67,0,0,1-2.1-.9v4h-2.29V3.6h2.12l.08.84a2.72,2.72,0,0,1,2.17-1,2.89,2.89,0,0,1,2.47,1.18,5.32,5.32,0,0,1,.88,3.23Zm-2.29-.17a3.44,3.44,0,0,0-.42-1.86,1.41,1.41,0,0,0-1.24-.65,1.51,1.51,0,0,0-1.48.82V9.64a1.52,1.52,0,0,0,1.5.85c1.09,0,1.64-.9,1.64-2.69"/><polygon class="cls-2" points="280.27 9.07 281.39 3.6 283.61 3.6 281.42 12.18 279.5 12.18 277.87 6.78 276.25 12.18 274.34 12.18 272.15 3.6 274.36 3.6 275.48 9.06 277.05 3.6 278.71 3.6 280.27 9.07"/><path class="cls-2" d="M284.73,1.38a1.13,1.13,0,0,1,.34-.85A1.3,1.3,0,0,1,286,.2a1.33,1.33,0,0,1,.94.33,1.13,1.13,0,0,1,.34.85,1.12,1.12,0,0,1-.35.86,1.29,1.29,0,0,1-.93.33,1.31,1.31,0,0,1-.93-.33,1.12,1.12,0,0,1-.35-.86m2.43,10.8h-2.3V3.6h2.3Z"/><path class="cls-2" d="M291.79,1.49V3.6h1.47V5.28h-1.47V9.56a1.06,1.06,0,0,0,.18.69,1,1,0,0,0,.7.2,4.5,4.5,0,0,0,.68,0v1.73a4.64,4.64,0,0,1-1.39.21,2.19,2.19,0,0,1-2.46-2.43V5.28h-1.25V3.6h1.25V1.49Z"/><path class="cls-2" d="M296.77,4.54a2.86,2.86,0,0,1,2.29-1.1c1.87,0,2.81,1.08,2.84,3.25v5.49h-2.3V6.74a1.58,1.58,0,0,0-.31-1.09,1.36,1.36,0,0,0-1.06-.36,1.56,1.56,0,0,0-1.46.78v6.11h-2.29V0h2.29Z"/><path class="cls-2" d="M51.65,47.52l.18,1.29.28-1.16,1.94-6.83h1.09L57,47.65l.26,1.18.21-1.31L59,40.82h1.3L58,50.61H56.77l-2-7.14-.15-.74-.16.74-2.09,7.14H51.17l-2.36-9.79H50.1Z"/><path class="cls-2" d="M69.9,48.05H65.8l-.92,2.56H63.55l3.73-9.79h1.13l3.75,9.79H70.84ZM66.19,47h3.33l-1.67-4.58Z"/><path class="cls-2" d="M80.1,46.65H77.8v4H76.5V40.82h3.24a3.88,3.88,0,0,1,2.55.75,2.71,2.71,0,0,1,.89,2.19,2.67,2.67,0,0,1-.5,1.6,2.86,2.86,0,0,1-1.37,1l2.3,4.16v.08H82.22Zm-2.3-1.06h2a2.21,2.21,0,0,0,1.53-.5,1.67,1.67,0,0,0,.57-1.33,1.76,1.76,0,0,0-.54-1.39,2.23,2.23,0,0,0-1.56-.49h-2Z"/><path class="cls-2" d="M90.9,46.25a6,6,0,0,1-2.41-1.18,2.21,2.21,0,0,1-.76-1.72,2.37,2.37,0,0,1,.92-1.91,3.71,3.71,0,0,1,2.41-.75,4,4,0,0,1,1.8.39,3,3,0,0,1,1.22,1.07,2.75,2.75,0,0,1,.43,1.5H93.22a1.79,1.79,0,0,0-.57-1.4,2.28,2.28,0,0,0-1.59-.51,2.34,2.34,0,0,0-1.49.42A1.4,1.4,0,0,0,89,43.33a1.25,1.25,0,0,0,.51,1,5,5,0,0,0,1.73.76,7.94,7.94,0,0,1,1.91.76,2.88,2.88,0,0,1,1,1,2.49,2.49,0,0,1,.33,1.3A2.28,2.28,0,0,1,93.61,50a4,4,0,0,1-2.48.72,4.6,4.6,0,0,1-1.89-.39,3.22,3.22,0,0,1-1.35-1.06,2.64,2.64,0,0,1-.47-1.53h1.3a1.7,1.7,0,0,0,.65,1.4,2.73,2.73,0,0,0,1.76.52,2.5,2.5,0,0,0,1.56-.42,1.37,1.37,0,0,0,.55-1.13A1.33,1.33,0,0,0,92.73,47,5.63,5.63,0,0,0,90.9,46.25Z"/><path class="cls-2" d="M100.19,49.55h5.6v1.06H98.66v-1L104,41.88H98.75V40.82h6.82v.94Z"/><path class="cls-2" d="M116,48.05h-4.11L111,50.61h-1.33l3.74-9.79h1.13l3.75,9.79h-1.33ZM112.27,47h3.33l-1.66-4.58Z"/><path class="cls-2" d="M124.24,47.52l.19,1.29.27-1.16,1.94-6.83h1.09l1.89,6.83.27,1.18.21-1.31,1.52-6.7h1.3l-2.38,9.79h-1.17l-2-7.14-.16-.74-.15.74L125,50.61h-1.18l-2.37-9.79h1.29Z"/><path class="cls-2" d="M142.5,48.05h-4.11l-.92,2.56h-1.33l3.74-9.79H141l3.75,9.79h-1.33ZM138.78,47h3.33l-1.67-4.58Z"/></g></g></svg>