<svg xmlns="http://www.w3.org/2000/svg" viewBox="0 0 268.5 50.1"><defs><style>.cls-1,.cls-2{fill:#fff;}.cls-2{fill-rule:evenodd;}</style></defs><g id="Layer_2" data-name="Layer 2"><g id="Layer_1-2" data-name="Layer 1"><path class="cls-1" d="M150.09,10.25h-1.74V1.8h1.74Z"/><path class="cls-1" d="M154.32,4l.05.73a2.19,2.19,0,0,1,1.8-.84,1.83,1.83,0,0,1,1.49.58,2.78,2.78,0,0,1,.5,1.75v4.06h-1.68v-4a1.11,1.11,0,0,0-.23-.77,1,1,0,0,0-.77-.24,1.15,1.15,0,0,0-1.06.6v4.44h-1.68V4Z"/><path class="cls-1" d="M170.41,7.17a3.76,3.76,0,0,1-.66,2.32,2.11,2.11,0,0,1-1.78.87,2,2,0,0,1-1.53-.66v3h-1.68V4h1.56l.05.62A2,2,0,0,1,168,3.86a2.13,2.13,0,0,1,1.81.85,3.9,3.9,0,0,1,.64,2.37ZM168.73,7a2.47,2.47,0,0,0-.31-1.36,1,1,0,0,0-.9-.47,1.09,1.09,0,0,0-1.08.6V8.39a1.11,1.11,0,0,0,1.09.62C168.33,9,168.73,8.35,168.73,7Z"/><path class="cls-1" d="M176.27,10.25a2.28,2.28,0,0,1-.17-.57,2,2,0,0,1-1.58.68A2.23,2.23,0,0,1,173,9.83a1.73,1.73,0,0,1-.6-1.35A1.77,1.77,0,0,1,173.13,7a3.71,3.71,0,0,1,2.13-.54H176V6.05a1,1,0,0,0-.23-.69.85.85,0,0,0-.7-.26,1,1,0,0,0-.67.2.7.7,0,0,0-.24.56h-1.67a1.69,1.69,0,0,1,.33-1,2.29,2.29,0,0,1,.95-.73,3.4,3.4,0,0,1,1.38-.26,2.75,2.75,0,0,1,1.85.58,2,2,0,0,1,.68,1.64V8.8a2.87,2.87,0,0,0,.25,1.35v.1Zm-1.38-1.17a1.45,1.45,0,0,0,.68-.16,1.14,1.14,0,0,0,.47-.45V7.39h-.63c-.84,0-1.29.29-1.34.87v.1a.71.71,0,0,0,.22.52A.9.9,0,0,0,174.89,9.08Z"/><path class="cls-1" d="M183.72,5.54a4.62,4.62,0,0,0-.6,0,1.23,1.23,0,0,0-1.25.64v4.11h-1.68V4h1.59l0,.75a1.54,1.54,0,0,1,1.4-.86,1.72,1.72,0,0,1,.52.07Z"/><path class="cls-1" d="M188,2.43V4h1.07V5.2H188V8.33a.75.75,0,0,0,.13.5.67.67,0,0,0,.51.15,2.53,2.53,0,0,0,.5,0v1.27a3.5,3.5,0,0,1-1,.15,1.61,1.61,0,0,1-1.8-1.78V5.2h-.91V4h.91V2.43Z"/><path class="cls-1" d="M192.75,4l.05.73a2.19,2.19,0,0,1,1.8-.84,1.83,1.83,0,0,1,1.49.58,2.78,2.78,0,0,1,.5,1.75v4.06h-1.68v-4a1.11,1.11,0,0,0-.23-.77,1,1,0,0,0-.77-.24,1.15,1.15,0,0,0-1.06.6v4.44h-1.68V4Z"/><path class="cls-1" d="M201.93,10.36a3.1,3.1,0,0,1-2.25-.84,3.05,3.05,0,0,1-.86-2.26V7.1a3.82,3.82,0,0,1,.36-1.69,2.7,2.7,0,0,1,1-1.15,2.89,2.89,0,0,1,1.53-.4,2.59,2.59,0,0,1,2,.81,3.26,3.26,0,0,1,.74,2.3v.68h-4a1.52,1.52,0,0,0,.49,1A1.45,1.45,0,0,0,202,9a1.82,1.82,0,0,0,1.52-.7l.82.92a2.39,2.39,0,0,1-1,.83A3.36,3.36,0,0,1,201.93,10.36Zm-.19-5.15a1.07,1.07,0,0,0-.81.33,1.76,1.76,0,0,0-.39,1h2.33V6.38a1.26,1.26,0,0,0-.31-.87A1.07,1.07,0,0,0,201.74,5.21Z"/><path class="cls-1" d="M210.18,5.54a4.62,4.62,0,0,0-.6,0,1.23,1.23,0,0,0-1.25.64v4.11h-1.68V4h1.59l0,.75a1.54,1.54,0,0,1,1.4-.86,1.72,1.72,0,0,1,.52.07Z"/><path class="cls-1" d="M215.57,8.51a.54.54,0,0,0-.3-.48,3.71,3.71,0,0,0-1-.32c-1.49-.31-2.24-.94-2.24-1.9a1.71,1.71,0,0,1,.69-1.39,2.79,2.79,0,0,1,1.82-.56,3,3,0,0,1,1.91.56,1.75,1.75,0,0,1,.71,1.46h-1.67a.81.81,0,0,0-.23-.59,1,1,0,0,0-.73-.24,1,1,0,0,0-.65.19.6.6,0,0,0-.24.49.53.53,0,0,0,.27.45,2.68,2.68,0,0,0,.89.29,7,7,0,0,1,1.05.29,1.72,1.72,0,0,1,1.33,1.68,1.61,1.61,0,0,1-.74,1.39,3.12,3.12,0,0,1-1.9.53,3.3,3.3,0,0,1-1.4-.28,2.32,2.32,0,0,1-1-.77,1.82,1.82,0,0,1-.35-1.06h1.59a.92.92,0,0,0,.33.69,1.38,1.38,0,0,0,.83.23,1.25,1.25,0,0,0,.73-.18A.57.57,0,0,0,215.57,8.51Z"/><path class="cls-1" d="M221.1,4.66a2.09,2.09,0,0,1,1.68-.8q2,0,2.07,2.37v4h-1.68v-4a1.13,1.13,0,0,0-.23-.8,1,1,0,0,0-.77-.26,1.15,1.15,0,0,0-1.07.57v4.47h-1.67V1.34h1.67Z"/><path class="cls-1" d="M227.29,2.35a.81.81,0,0,1,.25-.62.93.93,0,0,1,.69-.25.91.91,0,0,1,.68.25.82.82,0,0,1,.26.62.82.82,0,0,1-.26.62,1,1,0,0,1-1.36,0A.82.82,0,0,1,227.29,2.35Zm1.78,7.9h-1.68V4h1.68Z"/><path class="cls-1" d="M237.29,7.17a3.76,3.76,0,0,1-.66,2.32,2.11,2.11,0,0,1-1.78.87,2,2,0,0,1-1.53-.66v3h-1.68V4h1.55l.06.62a2,2,0,0,1,1.59-.73,2.12,2.12,0,0,1,1.8.85,3.9,3.9,0,0,1,.65,2.37ZM235.61,7a2.47,2.47,0,0,0-.31-1.36,1,1,0,0,0-.9-.47,1.08,1.08,0,0,0-1.08.6V8.39a1.11,1.11,0,0,0,1.09.62C235.21,9,235.61,8.35,235.61,7Z"/><path class="cls-1" d="M249.12,8l.82-4h1.62L250,10.25h-1.41L247.37,6.3l-1.19,4h-1.4L243.18,4h1.62l.81,4,1.15-4H248Z"/><path class="cls-1" d="M253.56,2.35a.82.82,0,0,1,.26-.62.91.91,0,0,1,.68-.25.93.93,0,0,1,.69.25.81.81,0,0,1,.25.62.81.81,0,0,1-.25.62,1.06,1.06,0,0,1-1.37,0A.82.82,0,0,1,253.56,2.35Zm1.79,7.9h-1.69V4h1.69Z"/><path class="cls-1" d="M259.92,2.43V4H261V5.2h-1.07V8.33a.75.75,0,0,0,.13.5.67.67,0,0,0,.51.15,2.53,2.53,0,0,0,.5,0v1.27a3.5,3.5,0,0,1-1,.15,1.61,1.61,0,0,1-1.8-1.78V5.2h-.91V4h.91V2.43Z"/><path class="cls-1" d="M264.75,4.66a2.06,2.06,0,0,1,1.68-.8q2,0,2.07,2.37v4h-1.68v-4a1.18,1.18,0,0,0-.23-.8,1,1,0,0,0-.77-.26,1.15,1.15,0,0,0-1.07.57v4.47h-1.68V1.34h1.68Z"/><path class="cls-1" d="M155.85,19.71v6.57a3.38,3.38,0,0,1-1,2.59,4,4,0,0,1-2.8.95,4,4,0,0,1-2.78-.92,3.37,3.37,0,0,1-1.05-2.55V19.71h2.06v6.58a1.91,1.91,0,0,0,.47,1.43,1.79,1.79,0,0,0,1.3.45c1.15,0,1.74-.61,1.76-1.82V19.71Z"/><path class="cls-1" d="M167.06,29.69H165l-4-6.57v6.57h-2.06v-10H161l4,6.58V19.71h2.05Z"/><path class="cls-1" d="M181.16,25.35h-3.95V28h4.64v1.66h-6.69v-10h6.67v1.66h-4.62v2.38h3.95Z"/><path class="cls-1" d="M186.15,22.27l.06.86a2.57,2.57,0,0,1,2.13-1,2.17,2.17,0,0,1,1.76.69,3.29,3.29,0,0,1,.59,2.07v4.8h-2V24.93a1.31,1.31,0,0,0-.28-.92,1.22,1.22,0,0,0-.91-.28,1.38,1.38,0,0,0-1.26.71v5.25h-2V22.27Z"/><path class="cls-1" d="M196.37,27.27l1.37-5h2.07l-2.5,7.42h-1.89l-2.5-7.42H195Z"/><path class="cls-1" d="M202.07,20.35a1,1,0,0,1,.3-.73,1.28,1.28,0,0,1,1.62,0,1,1,0,0,1,.3.73,1,1,0,0,1-.3.74,1.26,1.26,0,0,1-1.61,0A1,1,0,0,1,202.07,20.35Zm2.11,9.34h-2V22.27h2Z"/><path class="cls-1" d="M211.38,24.13a5,5,0,0,0-.71-.06,1.48,1.48,0,0,0-1.48.76v4.86h-2V22.27h1.87l.06.88a1.84,1.84,0,0,1,1.65-1,2.06,2.06,0,0,1,.62.09Z"/><path class="cls-1" d="M213.18,25.91a4.32,4.32,0,0,1,.43-2,3.17,3.17,0,0,1,1.22-1.34,3.62,3.62,0,0,1,1.86-.47,3.4,3.4,0,0,1,2.45.92,3.67,3.67,0,0,1,1.05,2.5l0,.5a3.9,3.9,0,0,1-1,2.74,3.7,3.7,0,0,1-5.12,0,3.91,3.91,0,0,1-1-2.79Zm2,.14a2.85,2.85,0,0,0,.4,1.62,1.33,1.33,0,0,0,1.14.56,1.31,1.31,0,0,0,1.12-.56,3,3,0,0,0,.41-1.76,2.73,2.73,0,0,0-.41-1.61,1.41,1.41,0,0,0-2.26,0A3.1,3.1,0,0,0,215.16,26.05Z"/><path class="cls-1" d="M224.66,22.27l.06.86a2.57,2.57,0,0,1,2.13-1,2.15,2.15,0,0,1,1.75.69,3.23,3.23,0,0,1,.59,2.07v4.8h-2V24.93a1.31,1.31,0,0,0-.27-.92,1.24,1.24,0,0,0-.91-.28,1.38,1.38,0,0,0-1.26.71v5.25h-2V22.27Z"/><path class="cls-1" d="M234,22.27l.06.83a2.58,2.58,0,0,1,2.13-1,2,2,0,0,1,2,1.13,2.55,2.55,0,0,1,2.22-1.13,2.23,2.23,0,0,1,1.8.7,3.27,3.27,0,0,1,.59,2.12v4.74h-2V25a1.4,1.4,0,0,0-.25-.93,1.09,1.09,0,0,0-.87-.29,1.23,1.23,0,0,0-1.23.85v5.11h-2V25a1.38,1.38,0,0,0-.26-.93,1.1,1.1,0,0,0-.86-.29,1.28,1.28,0,0,0-1.22.7v5.26h-2V22.27Z"/><path class="cls-1" d="M249.07,29.82a3.63,3.63,0,0,1-2.66-1,3.56,3.56,0,0,1-1-2.66V26a4.41,4.41,0,0,1,.43-2A3.17,3.17,0,0,1,247,22.61a3.42,3.42,0,0,1,1.81-.48,3.07,3.07,0,0,1,2.39,1,3.87,3.87,0,0,1,.88,2.72v.81h-4.73a1.9,1.9,0,0,0,.58,1.17,1.78,1.78,0,0,0,1.23.44A2.15,2.15,0,0,0,251,27.4l1,1.09a3,3,0,0,1-1.21,1A3.86,3.86,0,0,1,249.07,29.82Zm-.23-6.09a1.25,1.25,0,0,0-1,.4,2,2,0,0,0-.46,1.14h2.75v-.16a1.47,1.47,0,0,0-.36-1A1.28,1.28,0,0,0,248.84,23.73Z"/><path class="cls-1" d="M256.47,22.27l.06.86a2.57,2.57,0,0,1,2.13-1,2.17,2.17,0,0,1,1.76.69,3.23,3.23,0,0,1,.58,2.07v4.8h-2V24.93a1.31,1.31,0,0,0-.27-.92,1.22,1.22,0,0,0-.91-.28,1.38,1.38,0,0,0-1.26.71v5.25h-2V22.27Z"/><path class="cls-1" d="M266.28,20.45v1.82h1.27v1.45h-1.27v3.7a.85.85,0,0,0,.16.59.78.78,0,0,0,.6.18,2.51,2.51,0,0,0,.58-.05v1.5a3.94,3.94,0,0,1-1.19.18,1.89,1.89,0,0,1-2.13-2.1v-4h-1.08V22.27h1.08V20.45Z"/><path class="cls-1" d="M150.62,43.66v3.52h-2.06v-10h3.9a4.58,4.58,0,0,1,2,.41,3.17,3.17,0,0,1,1.31,1.17,3.33,3.33,0,0,1,.46,1.72,2.89,2.89,0,0,1-1,2.32,4.2,4.2,0,0,1-2.78.84Zm0-1.66h1.84a1.77,1.77,0,0,0,1.24-.39,1.37,1.37,0,0,0,.43-1.09,1.53,1.53,0,0,0-1.62-1.65h-1.89Z"/><path class="cls-1" d="M163.06,41.62a4.81,4.81,0,0,0-.71,0,1.46,1.46,0,0,0-1.48.76v4.85h-2V39.76h1.87l.06.89a1.84,1.84,0,0,1,1.65-1,2.06,2.06,0,0,1,.62.09Z"/><path class="cls-1" d="M164.86,43.4a4.28,4.28,0,0,1,.43-2,3.11,3.11,0,0,1,1.22-1.34,3.51,3.51,0,0,1,1.85-.47,3.34,3.34,0,0,1,2.45.92A3.63,3.63,0,0,1,171.87,43l0,.51a3.86,3.86,0,0,1-1,2.74,3.31,3.31,0,0,1-2.55,1,3.35,3.35,0,0,1-2.56-1,4,4,0,0,1-1-2.8Zm2,.14a2.73,2.73,0,0,0,.4,1.62,1.43,1.43,0,0,0,2.26,0,3,3,0,0,0,.41-1.77,2.76,2.76,0,0,0-.41-1.61,1.32,1.32,0,0,0-1.14-.57,1.28,1.28,0,0,0-1.12.57A3,3,0,0,0,166.84,43.54Z"/><path class="cls-1" d="M174.22,43.42a4.29,4.29,0,0,1,.82-2.75,2.61,2.61,0,0,1,2.18-1,2.32,2.32,0,0,1,1.9.83l.09-.7H181v7.17a3.23,3.23,0,0,1-.44,1.7,2.86,2.86,0,0,1-1.24,1.09,4.41,4.41,0,0,1-1.88.38,4,4,0,0,1-1.59-.33,2.71,2.71,0,0,1-1.17-.83l.87-1.21a2.34,2.34,0,0,0,1.8.83,1.73,1.73,0,0,0,1.23-.42,1.6,1.6,0,0,0,.43-1.2v-.4a2.26,2.26,0,0,1-1.8.78,2.62,2.62,0,0,1-2.16-1,4.33,4.33,0,0,1-.83-2.77Zm2,.14a2.7,2.7,0,0,0,.41,1.58,1.28,1.28,0,0,0,1.11.58A1.38,1.38,0,0,0,179,45V41.91a1.36,1.36,0,0,0-1.28-.69,1.3,1.3,0,0,0-1.12.59A3.07,3.07,0,0,0,176.2,43.56Z"/><path class="cls-1" d="M188.09,41.62a4.72,4.72,0,0,0-.71,0,1.44,1.44,0,0,0-1.47.76v4.85h-2V39.76h1.87l0,.89a1.84,1.84,0,0,1,1.65-1,2.06,2.06,0,0,1,.62.09Z"/><path class="cls-1" d="M194.54,47.18a2.23,2.23,0,0,1-.2-.66,2.4,2.4,0,0,1-1.87.8,2.62,2.62,0,0,1-1.8-.63A2,2,0,0,1,190,45.1a2.09,2.09,0,0,1,.87-1.81,4.31,4.31,0,0,1,2.53-.64h.91v-.42a1.27,1.27,0,0,0-.26-.83,1.07,1.07,0,0,0-.83-.31,1.18,1.18,0,0,0-.79.24.81.81,0,0,0-.28.66h-2a2,2,0,0,1,.39-1.19,2.62,2.62,0,0,1,1.13-.86,4.05,4.05,0,0,1,1.63-.31,3.21,3.21,0,0,1,2.17.69,2.38,2.38,0,0,1,.81,1.93v3.22a3.49,3.49,0,0,0,.29,1.59v.12ZM192.9,45.8a1.67,1.67,0,0,0,.81-.19,1.28,1.28,0,0,0,.55-.53V43.81h-.74c-1,0-1.52.34-1.58,1V45a.8.8,0,0,0,.26.61A1,1,0,0,0,192.9,45.8Z"/><path class="cls-1" d="M201,39.76l.06.83a2.63,2.63,0,0,1,2.14-1,2,2,0,0,1,2,1.13,2.54,2.54,0,0,1,2.23-1.13,2.23,2.23,0,0,1,1.8.7,3.24,3.24,0,0,1,.59,2.11v4.74h-2V42.44a1.37,1.37,0,0,0-.25-.92,1.06,1.06,0,0,0-.87-.3,1.24,1.24,0,0,0-1.23.86v5.1h-2V42.45a1.41,1.41,0,0,0-.25-.94,1.11,1.11,0,0,0-.86-.29,1.29,1.29,0,0,0-1.22.7v5.26h-2V39.76Z"/><path class="cls-1" d="M214.59,39.76l.06.83a2.61,2.61,0,0,1,2.13-1,2,2,0,0,1,2,1.13A2.53,2.53,0,0,1,221,39.63a2.19,2.19,0,0,1,1.79.7,3.18,3.18,0,0,1,.59,2.11v4.74h-2V42.44a1.43,1.43,0,0,0-.24-.92,1.09,1.09,0,0,0-.87-.3,1.24,1.24,0,0,0-1.24.86v5.1h-2V42.45a1.41,1.41,0,0,0-.26-.94,1.08,1.08,0,0,0-.86-.29,1.3,1.3,0,0,0-1.22.7v5.26h-2V39.76Z"/><path class="cls-1" d="M229.7,47.32a3.69,3.69,0,0,1-2.66-1,3.58,3.58,0,0,1-1-2.67v-.19a4.45,4.45,0,0,1,.43-2,3.23,3.23,0,0,1,1.22-1.36,3.51,3.51,0,0,1,1.81-.47,3.09,3.09,0,0,1,2.4,1,3.9,3.9,0,0,1,.87,2.72v.81H228a1.82,1.82,0,0,0,.58,1.16,1.76,1.76,0,0,0,1.22.44,2.15,2.15,0,0,0,1.79-.83l1,1.09a2.91,2.91,0,0,1-1.2,1A3.91,3.91,0,0,1,229.7,47.32Zm-.23-6.1a1.24,1.24,0,0,0-.95.4,2.06,2.06,0,0,0-.47,1.15h2.75v-.16a1.46,1.46,0,0,0-.35-1A1.27,1.27,0,0,0,229.47,41.22Z"/><polygon class="cls-2" points="138.41 0 137.57 0 137.26 0 137.26 47.18 137.57 47.18 138.41 47.18 138.72 47.18 138.72 0 138.41 0"/><path class="cls-1" d="M43.47,44.41l1.3-6.83h2l-2.13,9.6h-2l-1.56-6.42-1.57,6.42h-2l-2.12-9.6h2l1.29,6.82,1.59-6.82H41.9Z"/><path class="cls-1" d="M55.37,45.2H51.9l-.66,2h-2.1l3.57-9.6h1.83l3.6,9.6H56Zm-2.93-1.6h2.39L53.63,40Z"/><path class="cls-1" d="M65,43.67H63.44v3.51h-2v-9.6H65a4.07,4.07,0,0,1,2.62.76,2.64,2.64,0,0,1,.92,2.14,2.68,2.68,0,0,1-1.71,2.69l2.07,3.92v.09H66.81Zm-1.57-1.6H65a1.67,1.67,0,0,0,1.16-.38,1.36,1.36,0,0,0,.41-1,1.45,1.45,0,0,0-.39-1.07A1.64,1.64,0,0,0,65,39.19H63.44Z"/><path class="cls-1" d="M77.48,44.66a1,1,0,0,0-.4-.86,5,5,0,0,0-1.42-.63A9.71,9.71,0,0,1,74,42.51a2.64,2.64,0,0,1-1.63-2.37,2.26,2.26,0,0,1,.44-1.39,2.75,2.75,0,0,1,1.26-1,4.68,4.68,0,0,1,1.84-.35,4.31,4.31,0,0,1,1.83.38A2.81,2.81,0,0,1,79,38.88a2.7,2.7,0,0,1,.44,1.54h-2a1.31,1.31,0,0,0-.42-1A1.72,1.72,0,0,0,75.9,39a1.84,1.84,0,0,0-1.12.3,1,1,0,0,0-.4.81.92.92,0,0,0,.47.79,5.44,5.44,0,0,0,1.38.59,6,6,0,0,1,2.46,1.26,2.47,2.47,0,0,1,.77,1.87,2.29,2.29,0,0,1-.94,2,4.07,4.07,0,0,1-2.54.71,4.88,4.88,0,0,1-2-.4,3.19,3.19,0,0,1-1.39-1.11,2.85,2.85,0,0,1-.48-1.64h2q0,1.59,1.89,1.59a1.84,1.84,0,0,0,1.1-.29A.91.91,0,0,0,77.48,44.66Z"/><path class="cls-1" d="M85.33,45.59h4.83v1.59H82.85V46l4.75-6.83H82.86V37.58h7.2v1.14Z"/><path class="cls-1" d="M99.34,45.2H95.88l-.66,2H93.11l3.58-9.6h1.83l3.59,9.6H100Zm-2.93-1.6h2.4L97.6,40Z"/><path class="cls-1" d="M112.65,44.41l1.29-6.83h2l-2.13,9.6h-2l-1.56-6.42-1.56,6.42h-2l-2.13-9.6h2l1.3,6.82,1.58-6.82h1.68Z"/><path class="cls-1" d="M124.54,45.2h-3.46l-.66,2h-2.1l3.57-9.6h1.83l3.59,9.6h-2.1Zm-2.93-1.6H124L122.8,40Z"/><path class="cls-1" d="M51.49,9.47c0-4.72-4.64-4.83-6.09-4.83-1.88,0-2.2.25-2.2,1.28v8.72c3,0,8.29-.11,8.29-5.17M32.92,0h0V30.05H63V0ZM59.3,26.73H53.61L45.19,15.88l-2,.07v7c0,2.36.36,3,3.19,3.17v.66H36.61v-.66c2.86-.17,3-.92,3-3.56V7.18c0-2.63-.53-2.95-3-3.2V3.33h9.74c3.16,0,9,.74,9,6.2,0,4.76-4.59,5.61-6.4,6l7.29,8.92a3.89,3.89,0,0,0,3.07,1.66Z"/><path class="cls-1" d="M65.83,30.05H95.89V0H65.83ZM86.13,4h0c-2.57.11-3.46.36-3.46,3.19V22.89c0,2.76.85,3.11,3.46,3.18v.67H75.65v-.67c3-.07,3.44-.67,3.44-3.18V7.17c0-2.62-.5-3-3.44-3.19V3.32H86.13Z"/><path class="cls-1" d="M118.67,7.12C117,5.6,115,4.65,110.53,4.65c-1.67,0-1.67.67-1.67,1.37V24c0,1.2.43,1.45,2.13,1.45,2.26,0,11,0,11-10.28a10.29,10.29,0,0,0-3.29-8M98.75,0h0V30.05H128.8V0Zm13.44,26.73h-10v-.65c2.68-.14,3.11-.71,3.11-3.19V7.18c0-2.62-.39-3-3.11-3.19V3.33h9.53c8.49,0,14.11,3.86,14.11,11.78,0,4.69-2.79,11.62-13.62,11.62"/><path class="cls-1" d="M0,30.05H30.05V0H0ZM27.27,14.89h0c-1.56.14-2.47.2-2.47,2.72V24.7c0,.5-4.71,2.56-8.6,2.56-3.51,0-7.44-1.08-9.95-3.8-1.87-2-2.93-4.12-2.93-8.75A11.83,11.83,0,0,1,15.42,2.86C19,2.86,20.63,4,21.75,4c.29,0,1.46-.17,1.67-1.17h.78l.29,7.46h-.82c-1-2.55-2.8-6-7.75-6-3.37,0-8.57,2.22-8.57,11.17,0,6.38,3.68,10.37,9.17,10.37,2.41,0,4.85-.81,4.85-2.08V18c0-2.94-.71-3-3.11-3.14v-.66h9Z"/></g></g></svg>