<?xml version="1.0" encoding="utf-8"?>
<!-- Generator: Adobe Illustrator 26.2.1, SVG Export Plug-In . SVG Version: 6.00 Build 0)  -->
<svg version="1.1" id="Layer_1" xmlns="http://www.w3.org/2000/svg" xmlns:xlink="http://www.w3.org/1999/xlink" x="0px" y="0px"
	 viewBox="0 0 596.1 319.5" style="enable-background:new 0 0 596.1 319.5;" xml:space="preserve">
<style type="text/css">
	.st0{fill:#FFFFFF;}
</style>
<g id="Layer_2_00000123441588561757267430000014531909044408980098_">
	<g id="Layer_1-2">
		<path class="st0" d="M257.7,202.8c0,7-5.7,12.7-12.7,12.7s-12.7-5.7-12.7-12.7s5.7-12.7,12.7-12.7
			C252,190.1,257.7,195.8,257.7,202.8"/>
		<path class="st0" d="M108.5,54h33v161.4h-33V54z"/>
		<path class="st0" d="M284.4,215.6l-2.4-4.8l-32.9-70l-4.1-9.1l-12.4,26.2L217,190.7l-11.8,24.9h-36.3L245,53.7l75.9,161.8h-36.5
			V215.6z"/>
		<path class="st0" d="M451.1,215.6l-2.5-4.8l-32.8-70l-4.1-9l-12.5,26l-15.6,32.8l-11.8,24.9h-36.2l76.1-161.8l75.9,161.8h-36.5
			V215.6z"/>
		<path class="st0" d="M108.5,240.7h1.9v12.7h-1.9V240.7z"/>
		<path class="st0" d="M123.7,240.7v12.9h-0.4l-7.7-8.7v8.5h-1.9v-12.9h0.4l7.7,8.7v-8.5H123.7z"/>
		<path class="st0" d="M130,242.4h-3.9v-1.7h9.7v1.7h-3.9v10.9H130L130,242.4z"/>
		<path class="st0" d="M145.9,251.6v1.8h-7.8v-12.7h7.6v1.7H140v3.5h5.5v1.8H140v3.9H145.9z"/>
		<path class="st0" d="M152.2,246.6c0.8,0.1,1.7-0.1,2.4-0.5c0.5-0.4,0.8-0.9,0.8-1.6c0-1.4-0.9-2.1-2.7-2.1h-2v4.2L152.2,246.6z
			 M155.3,253.4l-4.6-6.2v6.2h-1.8v-12.7h4.1c0.8,0,1.7,0.1,2.5,0.4c0.6,0.2,1.2,0.7,1.6,1.3c0.4,0.6,0.6,1.4,0.5,2.1
			c0.1,0.9-0.3,1.9-1,2.5c-0.8,0.7-1.8,1.1-2.9,1.1l4.2,5.3L155.3,253.4L155.3,253.4z"/>
		<path class="st0" d="M170.1,240.7v12.9h-0.4l-7.7-8.7v8.5h-1.9v-12.9h0.4l7.7,8.7v-8.5H170.1z"/>
		<path class="st0" d="M177.4,244.2l-1.8,4.6h3.7L177.4,244.2z M179.8,250.4H175l-1.2,2.9h-2.1l5.6-12.9h0.3l5.5,12.9H181
			L179.8,250.4z"/>
		<path class="st0" d="M186,242.4h-3.9v-1.7h9.7v1.7h-3.9v10.9H186V242.4z"/>
		<path class="st0" d="M194.1,240.7h1.9v12.7h-1.9V240.7z"/>
		<path class="st0" d="M207.1,251.2c0.7-0.4,1.2-0.9,1.6-1.6c0.8-1.6,0.8-3.5,0-5.1c-0.4-0.7-0.9-1.2-1.6-1.6
			c-0.6-0.4-1.4-0.6-2.1-0.6c-1.5,0-3,0.8-3.7,2.1c-0.8,1.6-0.8,3.5,0,5.1c0.4,0.7,0.9,1.2,1.6,1.6c0.6,0.4,1.4,0.6,2.1,0.6
			C205.7,251.7,206.5,251.5,207.1,251.2 M201.9,252.8c-1-0.5-1.8-1.3-2.3-2.3c-1.2-2.2-1.2-4.8,0-7c0.6-1,1.4-1.7,2.3-2.3
			c0.9-0.5,2-0.8,3.1-0.8s2.2,0.3,3.1,0.8c1,0.5,1.7,1.3,2.3,2.3c1.2,2.2,1.2,4.8,0,7c-0.6,1-1.4,1.8-2.4,2.3s-2,0.8-3.1,0.8
			S202.8,253.3,201.9,252.8"/>
		<path class="st0" d="M223.9,240.7v12.9h-0.4l-7.7-8.7v8.5h-1.9v-12.9h0.4l7.7,8.7v-8.5H223.9z"/>
		<path class="st0" d="M231.1,244.2l-1.8,4.6h3.7L231.1,244.2z M233.5,250.4h-4.8l-1.2,2.9h-2.1l5.6-12.9h0.3l5.5,12.9h-2.1
			L233.5,250.4z"/>
		<path class="st0" d="M245.4,251.6v1.8h-6.9v-12.7h1.9v10.9H245.4z"/>
		<path class="st0" d="M255.8,244.2l-1.8,4.6h3.7L255.8,244.2z M258.2,250.4h-4.8l-1.1,2.9h-2.1l5.6-12.9h0.3l5.5,12.9h-2.1
			L258.2,250.4z"/>
		<path class="st0" d="M269.2,251.1c0.7-0.3,1.4-0.9,1.8-1.6c0.5-0.8,0.7-1.7,0.6-2.6c0.1-1.3-0.4-2.5-1.3-3.3
			c-1.1-0.8-2.4-1.2-3.8-1.1h-1.4v9.1h1.4C267.4,251.6,268.3,251.4,269.2,251.1 M270.3,241.5c1,0.4,1.9,1.2,2.5,2.1
			c0.6,1,0.9,2.2,0.8,3.3c0,1.2-0.3,2.4-0.9,3.5c-0.6,0.9-1.5,1.7-2.5,2.1c-1.2,0.5-2.4,0.8-3.7,0.8h-3.3v-12.7h3.3
			c1.3,0,2.6,0.2,3.8,0.7"/>
		<path class="st0" d="M285.8,240.7l-5.6,12.9h-0.4l-5.6-12.9h2.1l3.6,9l3.6-9H285.8z"/>
		<path class="st0" d="M295.2,251.6v1.8h-7.7v-12.7h7.6v1.7h-5.7v3.5h5.5v1.8h-5.5v3.9H295.2z"/>
		<path class="st0" d="M301.6,246.6c0.8,0.1,1.7-0.1,2.4-0.5c0.5-0.4,0.8-0.9,0.8-1.6c0-1.4-0.9-2.1-2.7-2.1H300v4.2L301.6,246.6z
			 M304.7,253.4l-4.7-6.2v6.2h-1.9v-12.7h4.1c0.8,0,1.7,0.1,2.5,0.4c0.6,0.2,1.2,0.7,1.6,1.3s0.6,1.4,0.6,2.1
			c0.1,0.9-0.3,1.9-0.9,2.5c-0.8,0.7-1.8,1.1-2.9,1.1l4.2,5.3L304.7,253.4z"/>
		<path class="st0" d="M312.2,242.4h-4v-1.7h9.7v1.7H314v10.9h-1.8V242.4z"/>
		<path class="st0" d="M320.3,240.7h1.9v12.7h-1.9V240.7z"/>
		<path class="st0" d="M326.4,253c-0.8-0.3-1.5-0.8-2.1-1.4l1.2-1.4c0.9,1,2.2,1.5,3.5,1.5c0.5,0,0.9-0.1,1.4-0.2
			c0.3-0.1,0.6-0.4,0.9-0.7c0.2-0.3,0.3-0.7,0.3-1s0-0.6-0.2-0.9c-0.3-0.3-0.6-0.5-0.9-0.6c-0.5-0.2-1-0.3-1.5-0.4
			c-0.7-0.2-1.4-0.4-2.1-0.7c-0.5-0.2-1-0.6-1.4-1.1c-0.4-0.6-0.6-1.3-0.6-2s0.2-1.4,0.6-1.9c0.4-0.6,0.9-1,1.6-1.3s1.5-0.5,2.4-0.5
			c0.8,0,1.6,0.1,2.3,0.4c0.7,0.3,1.3,0.6,1.8,1.1l-1.1,1.4c-0.4-0.4-0.8-0.7-1.3-0.9s-1.1-0.3-1.7-0.3c-0.5,0-0.9,0.1-1.4,0.2
			c-0.4,0.1-0.7,0.4-0.9,0.7c-0.2,0.3-0.3,0.6-0.3,1c0,0.3,0.1,0.7,0.4,0.9s0.6,0.4,0.9,0.6c0.3,0.1,0.8,0.3,1.5,0.4
			c0.7,0.1,1.4,0.4,2.1,0.6c0.5,0.2,1,0.6,1.4,1c0.4,0.5,0.6,1.2,0.6,1.9s-0.2,1.5-0.6,2.1s-0.9,1.1-1.6,1.4
			c-0.7,0.3-1.5,0.5-2.4,0.5S327.4,253.2,326.4,253"/>
		<path class="st0" d="M336.1,240.7h1.9v12.7h-1.9V240.7z"/>
		<path class="st0" d="M351.3,240.7v12.9h-0.4l-7.7-8.7v8.5h-1.9v-12.9h0.4l7.7,8.7v-8.5H351.3z"/>
		<path class="st0" d="M366,247.3c0,1.2-0.2,2.3-0.7,3.3c-0.5,0.9-1.2,1.6-2.1,2.1s-2,0.8-3.1,0.8s-2.2-0.3-3.1-0.8
			s-1.7-1.3-2.3-2.2c-0.6-1.1-0.9-2.2-0.9-3.5c0-1.2,0.3-2.4,0.8-3.5c0.5-1,1.3-1.8,2.3-2.3s2-0.8,3.1-0.8c1,0,1.9,0.2,2.8,0.5
			c0.8,0.4,1.6,0.9,2.1,1.6l-1.3,1.3c-0.4-0.5-0.9-0.9-1.5-1.2s-1.3-0.4-2-0.4s-1.5,0.2-2.1,0.6c-0.7,0.4-1.2,0.9-1.6,1.6
			c-0.4,0.8-0.6,1.6-0.6,2.5s0.2,1.7,0.6,2.5c0.4,0.7,0.9,1.2,1.5,1.6c0.6,0.4,1.4,0.6,2.1,0.6c1,0.1,1.9-0.3,2.6-0.9
			c0.7-0.7,1.1-1.6,1.1-2.5h-4.1v-1.7h6.1C365.9,246.9,365.9,247.2,366,247.3"/>
		<path class="st0" d="M376.4,244.2l-1.8,4.6h3.7L376.4,244.2z M378.8,250.4H374l-1.2,2.9h-2.1l5.5-12.9h0.3l5.5,12.9h-2.1
			L378.8,250.4z"/>
		<path class="st0" d="M384.8,253c-0.8-0.3-1.5-0.8-2.1-1.4l1.2-1.4c0.9,1,2.2,1.5,3.5,1.5c0.5,0,0.9-0.1,1.3-0.2
			c0.4-0.1,0.7-0.4,0.9-0.7c0.2-0.3,0.3-0.7,0.3-1c0-0.4-0.1-0.7-0.4-1s-0.6-0.5-0.9-0.6c-0.5-0.2-1-0.3-1.5-0.4
			c-0.7-0.2-1.4-0.4-2.1-0.7c-0.5-0.2-1-0.6-1.4-1.1c-0.4-0.6-0.6-1.3-0.6-2s0.2-1.4,0.6-1.9c0.4-0.6,1-1,1.6-1.3
			c0.7-0.3,1.5-0.5,2.4-0.5c0.8,0,1.6,0.1,2.3,0.4c0.7,0.3,1.3,0.7,1.8,1.1l-1.1,1.4c-0.4-0.4-0.8-0.7-1.3-0.9s-1.1-0.3-1.7-0.3
			c-0.5,0-0.9,0.1-1.4,0.2c-0.4,0.1-0.7,0.4-0.9,0.7c-0.2,0.3-0.3,0.6-0.3,1c0,0.3,0.1,0.7,0.4,0.9s0.6,0.4,0.9,0.6l1.5,0.4
			c0.7,0.1,1.4,0.4,2.1,0.6c0.5,0.2,1,0.6,1.4,1c0.4,0.5,0.6,1.2,0.6,1.9c0,1.5-0.8,2.8-2.1,3.4c-0.7,0.3-1.5,0.5-2.4,0.5
			C386.4,253.6,385.5,253.4,384.8,253"/>
		<path class="st0" d="M395.1,253c-0.7-0.3-1.4-0.8-2-1.4l1.2-1.4c0.9,1,2.2,1.5,3.5,1.5c0.5,0,0.9-0.1,1.4-0.2
			c0.3-0.1,0.6-0.4,0.9-0.7c0.2-0.3,0.3-0.7,0.3-1c0-0.4-0.1-0.7-0.4-1c-0.2-0.3-0.6-0.5-0.9-0.6c-0.5-0.2-1-0.3-1.5-0.4
			c-0.7-0.2-1.4-0.4-2.1-0.7c-0.5-0.2-1-0.6-1.4-1.1c-0.4-0.6-0.6-1.3-0.6-2s0.2-1.4,0.6-1.9c0.4-0.6,0.9-1,1.6-1.3s1.5-0.5,2.4-0.5
			c0.8,0,1.6,0.1,2.3,0.4c0.7,0.3,1.3,0.6,1.8,1.1l-1.1,1.4c-0.4-0.4-0.8-0.7-1.3-0.9s-1.1-0.3-1.6-0.3s-0.9,0.1-1.4,0.2
			c-0.4,0.1-0.7,0.4-0.9,0.7c-0.2,0.3-0.3,0.6-0.3,1c0,0.3,0.1,0.7,0.4,0.9s0.6,0.4,0.9,0.6c0.4,0.1,0.9,0.3,1.5,0.4
			c0.7,0.1,1.4,0.4,2.1,0.6c0.5,0.2,1,0.6,1.4,1c0.4,0.6,0.6,1.2,0.6,1.9s-0.1,1.5-0.6,2.1c-0.4,0.6-0.9,1.1-1.6,1.4
			c-0.7,0.3-1.6,0.5-2.4,0.5C396.9,253.7,396,253.5,395.1,253"/>
		<path class="st0" d="M412.5,251.2c0.7-0.4,1.2-0.9,1.6-1.6c0.8-1.6,0.8-3.5,0-5.1c-0.4-0.7-0.9-1.3-1.6-1.6
			c-0.6-0.4-1.4-0.6-2.1-0.6s-1.5,0.2-2.1,0.6c-0.7,0.4-1.2,1-1.6,1.6c-0.8,1.6-0.8,3.5,0,5.1c0.4,0.7,0.9,1.2,1.6,1.6
			c0.6,0.4,1.4,0.6,2.1,0.6S411.9,251.6,412.5,251.2 M407.2,252.8c-1-0.5-1.8-1.3-2.3-2.3c-1.2-2.2-1.2-4.8,0-7
			c0.5-1,1.4-1.8,2.3-2.3s2-0.8,3.1-0.8s2.2,0.3,3.1,0.8c1,0.5,1.8,1.3,2.4,2.3c1.2,2.2,1.2,4.8,0,7c-0.6,1-1.4,1.8-2.4,2.3
			s-2,0.8-3.1,0.8C409.3,253.6,408.2,253.4,407.2,252.8"/>
		<path class="st0" d="M421.6,252.8c-0.9-0.6-1.6-1.4-2.1-2.3c-0.5-1-0.8-2.2-0.8-3.4s0.3-2.4,0.8-3.4s1.3-1.8,2.3-2.3
			c1-0.6,2.1-0.8,3.2-0.8c1.8-0.1,3.6,0.7,4.8,2.1l-1.3,1.3c-0.4-0.5-0.9-0.9-1.5-1.1c-0.6-0.3-1.2-0.4-1.9-0.4
			c-0.8,0-1.6,0.2-2.3,0.6c-0.7,0.4-1.2,1-1.5,1.7c-0.4,0.8-0.6,1.6-0.6,2.5s0.2,1.7,0.6,2.5c0.4,0.7,0.9,1.2,1.5,1.7
			c1.9,1.1,4.4,0.6,5.7-1.2l1.3,1.2c-0.5,0.8-1.3,1.4-2.1,1.8c-0.9,0.4-1.8,0.6-2.8,0.6c-1.1,0-2.2-0.3-3.2-0.8"/>
		<path class="st0" d="M432,240.7h1.9v12.7H432V240.7z"/>
		<path class="st0" d="M441.1,244.2l-1.8,4.6h3.7L441.1,244.2z M443.5,250.4h-4.8l-1.2,2.9h-2.1l5.6-12.9h0.3l5.5,12.9h-2.1
			L443.5,250.4z"/>
		<path class="st0" d="M449.8,242.4H446v-1.7h9.7v1.7h-3.9v10.9h-1.9L449.8,242.4z"/>
		<path class="st0" d="M457.9,240.7h1.9v12.7h-1.9V240.7z"/>
		<path class="st0" d="M470.8,251.2c0.7-0.4,1.2-0.9,1.6-1.6c0.8-1.6,0.8-3.5,0-5.1c-0.4-0.7-0.9-1.2-1.6-1.6
			c-0.6-0.4-1.4-0.6-2.1-0.6c-1.5,0-3,0.8-3.7,2.1c-0.8,1.6-0.8,3.5,0,5.1c0.4,0.7,0.9,1.2,1.6,1.6c0.6,0.4,1.4,0.6,2.1,0.6
			S470.1,251.5,470.8,251.2 M465.5,252.8c-1-0.5-1.8-1.3-2.3-2.3c-1.2-2.2-1.2-4.8,0-7c0.6-1,1.4-1.7,2.3-2.3c1-0.5,2-0.8,3.1-0.7
			c1.1,0,2.2,0.3,3.1,0.8c1,0.5,1.8,1.3,2.4,2.3c1.2,2.2,1.2,4.8,0,7c-0.6,1-1.4,1.8-2.4,2.3s-2,0.8-3.1,0.8
			C467.5,253.6,466.5,253.3,465.5,252.8"/>
		<path class="st0" d="M487.6,240.7v12.9h-0.4l-7.7-8.7v8.5h-1.8v-12.9h0.4l7.7,8.7v-8.5H487.6z"/>
	</g>
</g>
</svg>
