<svg xmlns="http://www.w3.org/2000/svg" viewBox="0 0 537.37 256.17"><defs><style>.cls-1{fill:#0ea3db;}.cls-2{fill:#fff;}</style></defs><g id="Layer_2" data-name="Layer 2"><g id="Layer_1-2" data-name="Layer 1"><path class="cls-1" d="M174.78,89.28c0,48.38-33,87.56-87.56,87.56S0,137.66,0,89.28c0-48,33.39-87.56,86.88-87.56S174.78,41.25,174.78,89.28Zm-133.21,0c0,25.56,15.33,49.41,45.65,49.41s45.66-23.85,45.66-49.41c0-25.21-17.72-49.74-45.66-49.74C57.24,39.5,41.57,64.07,41.57,89.28Z"/><path class="cls-1" d="M311.23,173.1V85.2c0-25.56-14-45-40.54-45-25.56,0-42.93,21.47-42.93,47v85.9H186.53V4.79h37.14l2.76,22.83c17-16.7,34.08-25.21,55.2-25.21,39.52,0,71.2,29.64,71.2,82.44V173.1Z"/><path class="cls-1" d="M405.43,103.93c2.73,20.79,20.78,35.78,50.08,35.78,15.33,0,35.43-5.79,45-15.67l26.58,26.23c-17.75,18.4-46.66,27.23-72.26,27.23-57.92,0-92.33-35.77-92.33-89.6C362.5,36.8,397.25,0,451.76,0,508,0,543.07,34.75,536.6,103.91ZM496.74,69.5C494,47.7,477,36.8,453.13,36.8c-22.49,0-40.89,10.9-47,32.7Z"/><path class="cls-2" d="M35.68,229.83a13.24,13.24,0,0,0-9-3.56c-7.8,0-12.32,5.84-12.27,12.88,0,6.09,3.61,12,12.27,12a11.88,11.88,0,0,0,8.13-3V241.4H25.56v-4.75H39.77v13.64a16.73,16.73,0,0,1-13.07,5.8c-12.22,0-17.5-8.13-17.5-17,0-9.6,6.13-17.78,17.5-17.78a17.48,17.48,0,0,1,12.31,5Z"/><path class="cls-2" d="M103.83,255.5H97.6L87.43,244h-7V255.5H75.11V222.13h15.5c7.7,0,11.74,5.27,11.74,10.88,0,4.76-2.47,9.42-9,10.37l9.9,11.12ZM80.43,227V239.1H90.56c4.42,0,6.37-2.8,6.37-5.94A5.92,5.92,0,0,0,91.24,227c-.21,0-.42,0-.63,0Z"/><path class="cls-2" d="M169.92,239c0,9-5.47,17.21-17,17.21s-17-8.41-17-17.16c0-10.13,7.08-17.45,17.12-17.45C164.36,221.61,169.92,230,169.92,239Zm-17,12.32c8.27,0,11.74-5.85,11.74-12.22,0-6.14-3.51-12.51-11.64-12.65-7.71,0-11.84,5.37-11.84,12.65.07,5.89,3.5,12.22,11.72,12.22Z"/><path class="cls-2" d="M232.6,222.22v19.45c0,9.79-6.47,14.69-14.51,14.41-7.41-.19-13.74-5-13.74-14.41V222.22h5.28v19.45c0,6,3.52,9.32,8.46,9.51,5.33.28,9.23-3.19,9.23-9.51V222.22Z"/><path class="cls-2" d="M274.43,245.24V255.5H269.1V222.18h15.41c15.88,0,15.93,23,0,23.11Zm0-4.9h10.08c8.79,0,8.75-13.31,0-13.31H274.43Z"/><path class="cls-2" d="M401.6,239c0,9-5.47,17.21-17,17.21s-17-8.41-17-17.16c0-10.13,7.09-17.45,17.12-17.45C396,221.61,401.6,230,401.6,239Zm-17,12.32c8.28,0,11.75-5.85,11.75-12.22,0-6.14-3.52-12.51-11.65-12.65-7.7,0-11.84,5.37-11.84,12.65.07,5.89,3.49,12.22,11.71,12.22Z"/><path class="cls-2" d="M459.43,245.85V222.18h5.33V255.5h-4.05L441.83,232V255.5h-5.4V222.18h4.09Z"/><path class="cls-2" d="M526.23,255.5H501.65V222.18h24.44v5.18H507v9h18.36v4.94H507v8.94h19.26Z"/></g></g></svg>