<?xml version="1.0" encoding="utf-8"?>
<!-- Generator: Adobe Illustrator 26.2.1, SVG Export Plug-In . SVG Version: 6.00 Build 0)  -->
<svg version="1.1" id="Layer_1" xmlns="http://www.w3.org/2000/svg" xmlns:xlink="http://www.w3.org/1999/xlink" x="0px" y="0px"
	 viewBox="0 0 596.1 319.5" style="enable-background:new 0 0 596.1 319.5;" xml:space="preserve">
<style type="text/css">
	.st0{fill-rule:evenodd;clip-rule:evenodd;fill:#FFFFFF;}
</style>
<g id="Layer_2_00000183233590819539224960000016045981144943944600_">
	<g id="Warstwa_1">
		<path class="st0" d="M287.5,147.1c-4.5,4.7-1.1,8.2,9.2,7c6.5-0.7,22.6-6.6,35.1-17.2c2.8-2.4,5.3-4.7,7.6-7.4
			C305.3,132.8,291.5,142.9,287.5,147.1z"/>
		<path class="st0" d="M241.2,219.4c-0.5-0.1-1-0.2-1.5-0.2H239v11.5h0.7c0.5,0,1-0.1,1.5-0.2c0.6-0.2,1.1-0.5,1.4-0.9
			c0.5-0.7,0.8-1.9,0.8-3.6v-2.2c0-1.7-0.3-2.9-0.8-3.6C242.2,219.8,241.8,219.6,241.2,219.4z"/>
		<path class="st0" d="M273.9,196c-0.4,0.3-0.6,1-0.6,1.8v1.3c0,1.7,0.4,2.5,1.3,2.5h0c0.9,0,1.3-0.8,1.3-2.5v-3.7
			c-0.5,0-0.9,0.1-1.3,0.3C274.4,195.7,274.1,195.8,273.9,196z"/>
		<polygon class="st0" points="264.7,220.1 264.6,221.1 262.2,237 264.6,237 266.9,237 264.9,220.1 		"/>
		<path class="st0" d="M325.4,192.7v-2c0-1.9-0.5-2.9-1.5-2.9l0,0c-1,0-1.5,1-1.5,2.9v2H325.4L325.4,192.7z"/>
		<polygon class="st0" points="364.9,220.1 364.8,221.1 362.4,237 364.8,237 367.1,237 365.1,220.1 		"/>
		<path class="st0" d="M412.8,144.7c-16.9-8.2-39.6-16.7-60.4-15.9c-2.6,0.1-5,0.2-7.4,0.4c-3.4,3.4-6.8,6.3-9.9,8.8
			c-15,12.4-43.1,22.2-51.2,20.4c-7.3-1.6-8.4-4.2-3.5-10.3c5.5-6.9,24.4-16.6,44.5-20.6c6.2-1.2,12.1-2.2,18-2.8
			c2-3.5,3.5-7.5,4.3-12.6c5.4-33-9.1-40.8-26.5-38.2c-17.4,2.6-30.7,16.1-36.5,22.6c-2.2,2.6-2.6,3-2.6,3.1c0,0,0,0,0,0
			c0,0,0,0,0,0c0.1-0.2,2.7-4.8-1.4-20.3C276,63.3,262.5,59,253.7,59.6c-7.7,0.5-21.9,12.8-4.1,54c17.2,40.1,13.4,42.5,12.2,46.5
			c-0.6,2-5,15.1-47.8,16.3c-0.4,0-19.2,0.7-29.5,0.5l-1.3-16c12.1,1.9,36.9,11.5,51.8,7.9c21.1-2.3,26.1-7.1,22.1-20.9
			c-9.1-21.4-26.3-34-27.3-63.9c-1-29.9,28.4-40.7,43.7-25.5c15.4,15.2,10.6,34.3,10.6,34.3s6.8-18.4,32.5-25.1s45.7,4.7,45.1,23.6
			c-0.3,9.1-3.4,19.6-9,28.3c-0.9,1.5-2,2.9-3,4.2c21.2-1.8,40.8,0.1,61.8,4.8l-7.8-98.6L174.2,48.3l18.2,229.5l229.5-18.2
			L412.8,144.7z M360.5,197.2c0-1.7,0.6-3,1.9-3.7c1-0.6,2.6-1,4.8-1.2c0.4,0,0.9-0.1,1.3-0.1v-1.3c0-0.9-0.1-1.6-0.2-2
			c-0.2-0.5-0.5-0.7-1-0.7c0,0-0.1,0-0.1,0c-0.9,0.1-1.3,0.8-1.3,2.3v0.3h-4.8v-0.3c0-2.1,0.5-3.6,1.4-4.4c0.9-0.8,2.4-1.2,4.7-1.2
			h0.3c2.4,0,4.1,0.4,5,1.2s1.4,2.3,1.4,4.4v14.1h-5.2l-0.2-2.2c-0.4,0.6-0.8,1.1-1.3,1.6c-0.8,0.7-1.7,1.1-2.6,1.1
			c-2.7,0-4.1-1.8-4.1-5.5L360.5,197.2z M332.4,185.3h2v-2.8l5.4-2.1v5h2.5v3.3h-2.5v9.7c0,1,0.1,1.6,0.2,2c0.2,0.4,0.6,0.6,1.1,0.6
			c0.5,0,1-0.1,1.5-0.2v3.8c-1.5,0.3-2.6,0.4-3.4,0.4c-2,0-3.3-0.5-4-1.4c-0.5-0.8-0.8-2.4-0.8-4.8v-10.1h-2V185.3z M284.6,193.4
			c0-3.2,0.5-5.4,1.4-6.7c1-1.3,2.8-1.9,5.4-1.9c2.3,0,4,0.5,5.1,1.4c1,0.9,1.5,2.5,1.5,4.6v0.8h-5.3v-1.1c0-1.6-0.5-2.4-1.5-2.4
			c-0.9,0-1.4,0.9-1.4,2.7v8.2c0,1.8,0.4,2.7,1.3,2.7c0.9,0,1.4-0.9,1.4-2.7v-1.5h5.4v1.5c0,2.1-0.5,3.6-1.5,4.6s-2.7,1.4-5.1,1.4
			c-2.7,0-4.5-0.7-5.5-2c-0.9-1.2-1.4-3.4-1.4-6.7V193.4z M259.7,176.9h5.4v27.5h-5.4V176.9z M247.1,200.1l4.9-11.4h-4.6v-3.5h9.6
			v4.1L252,201h5.1v3.5h-10L247.1,200.1z M237.1,201.2c0.2,0.3,0.7,0.5,1.3,0.5c1,0,1.5-0.5,1.5-1.6v-0.7c0-1.1-0.6-2-1.9-2.7
			l-2.5-1.2c-1.3-0.7-2.2-1.3-2.8-2c-0.6-0.7-0.8-1.5-0.8-2.6v-1.5c0-1.4,0.6-2.5,1.7-3.3s2.8-1.2,4.9-1.2c2.2,0,3.8,0.4,4.7,1.2
			c0.9,0.8,1.4,2.2,1.4,4.1v0.7h-5V190c0-0.7-0.1-1.1-0.2-1.4c-0.2-0.4-0.6-0.6-1.2-0.6c-0.8,0-1.2,0.4-1.2,1.3v0.6
			c0,0.8,0.8,1.7,2.3,2.4l2.6,1.4c2.1,1.1,3.1,2.8,3.1,5.1v1c0,1.8-0.6,3.1-1.7,3.9c-1.1,0.8-2.9,1.2-5.3,1.2c-2.4,0-4-0.4-4.8-1.3
			c-0.8-0.9-1.3-2.4-1.3-4.7v-0.6h4.8v1.3C236.8,200.3,236.9,200.9,237.1,201.2L237.1,201.2z M250.8,226.1c0,6.6-3.2,9.9-9.7,9.9
			H239v14.3H232v-36.5h7.9c0.5,0,0.9,0,1.4,0c3.2,0.1,5.6,0.9,7.1,2.1c1.7,1.5,2.6,4.1,2.6,7.8L250.8,226.1z M268.6,250.3l-1-7.7
			h-6.4l-1.3,7.7h-6.6l6.8-36.5h9.7l6,36.5H268.6z M276,202.3c-0.4,0.6-0.8,1.1-1.3,1.6c-0.8,0.7-1.7,1.1-2.6,1.1
			c-2.7,0-4.1-1.8-4.1-5.5v-2.3c0-1.7,0.6-3,1.9-3.7c1-0.6,2.6-1,4.8-1.2c0.4,0,0.9-0.1,1.3-0.1v-1.3c0-0.9-0.1-1.6-0.2-2
			c-0.2-0.5-0.5-0.7-1-0.7c0,0-0.1,0-0.1,0c-0.9,0.1-1.3,0.8-1.3,2.3v0.3h-4.8v-0.3c0-2.1,0.5-3.6,1.4-4.4c0.9-0.8,2.4-1.2,4.7-1.2
			h0.3c2.4,0,4.1,0.4,5,1.2c0.9,0.8,1.4,2.3,1.4,4.4v14.1h-5.1L276,202.3z M301.4,240.3c0,3.9-0.7,6.7-2.2,8.3
			c-1.5,1.6-4,2.4-7.6,2.4c-4,0-6.7-1-8.1-2.9c-1.4-1.9-2.1-5.2-2.1-10v-11.8c0-4.8,0.7-8.2,2.1-10c1.5-2,4.2-2.9,8.2-2.9
			c3.6,0,6,0.8,7.4,2.4s2.1,4.3,2.1,8.3v1.4h-7.3v-0.8c0-2.1-0.1-3.5-0.4-4.3c-0.3-0.9-1-1.4-2.1-1.4s-1.8,0.5-2.1,1.4
			c-0.3,0.7-0.4,2.2-0.4,4.3v15.1c0,1.8,0.1,3,0.2,3.6c0.3,1.4,1.1,2.1,2.4,2.1c1.1,0,1.9-0.6,2.2-1.8c0.2-0.6,0.2-1.6,0.2-3.2v-2.1
			h7.5V240.3z M306.2,204.5h-5.4v-27.5h5.4v10.6c1.2-1.8,2.6-2.7,4.1-2.7c1.4,0,2.4,0.5,3,1.4c0.5,0.8,0.7,2.2,0.7,4.3v14h-5.4
			v-13.4c0-1.6-0.4-2.3-1.1-2.3c-0.8,0-1.2,0.8-1.2,2.3L306.2,204.5z M324,220.5l-10,24.6h10v5.3h-17.2v-7.1l9.9-24.2h-9v-5.3H324
			V220.5z M329.1,203.5c-1,0.9-2.7,1.4-5,1.4h0c-2.6,0-4.4-0.7-5.4-2c-0.9-1.2-1.4-3.4-1.4-6.7v-2.9c0-3.2,0.5-5.4,1.4-6.7
			c1-1.3,2.7-1.9,5.3-1.9h0.1c2.6,0,4.3,0.6,5.2,1.9c0.9,1.2,1.4,3.5,1.4,6.7v2.3h-8.1v3.3c0,1.8,0.5,2.7,1.4,2.7h0.1
			c1,0,1.5-0.9,1.5-2.7v-0.7h5.2v0.7C330.6,201,330.1,202.6,329.1,203.5L329.1,203.5z M343.4,250.3l-6.1-19.8v19.8h-7.2v-36.5h7.2
			v16l5.3-16h7.1l-5.2,15.6l6.4,20.9L343.4,250.3z M351.1,188.7c-0.8,0-1.2,0.8-1.2,2.3v13.4h-5.4v-19.2h5.2l0.2,2.2
			c1.2-1.8,2.6-2.7,4.1-2.7c1.4,0,2.4,0.5,3,1.4c0.5,0.8,0.7,2.2,0.7,4.3v14h-5.4v-13.4C352.3,189.5,351.9,188.7,351.1,188.7
			L351.1,188.7z M367.8,242.7h-6.3l-1.3,7.7h-6.6l6.8-36.5h9.7l6,36.5h-7.3L367.8,242.7z"/>
		<path class="st0" d="M367.2,201.6L367.2,201.6c0.9,0,1.3-0.8,1.3-2.5v-3.7c-0.5,0-0.9,0.1-1.3,0.3c-0.3,0.1-0.5,0.2-0.8,0.4
			c-0.4,0.3-0.6,1-0.6,1.8v1.3C365.9,200.7,366.3,201.6,367.2,201.6z"/>
		<path class="st0" d="M412.9,144.7l-1.3-16l-0.1,0L412.9,144.7L412.9,144.7z"/>
	</g>
</g>
</svg>
